<svg width="268" height="133" viewBox="0 0 268 133" fill="none" xmlns="http://www.w3.org/2000/svg">
<path d="M2.1875 93.7188L4.6875 78.6406L46.0547 27H59.4531L56.0547 47.4688H48.2813L24.0625 77.8594L23.9063 78.4844H71.4062L68.8672 93.7188H2.1875ZM38.6328 107L41.6406 89.1094L43.125 82.5078L52.3047 27H70.3906L57.1094 107H38.6328Z" fill="black"/>
<path d="M194.188 93.7188L196.688 78.6406L238.055 27H251.453L248.055 47.4688H240.281L216.062 77.8594L215.906 78.4844H263.406L260.867 93.7188H194.188ZM230.633 107L233.641 89.1094L235.125 82.5078L244.305 27H262.391L249.109 107H230.633Z" fill="black"/>
<g clip-path="url(#clip0_2408_72814)">
<g clip-path="url(#clip1_2408_72814)">
<path d="M182.619 21.6168C182.962 19.6645 181.646 17.8072 179.691 17.4837L150.159 12.5977C148.231 12.2788 146.406 13.5717 146.067 15.4961L131.422 98.7539C131.079 100.706 132.394 102.563 134.35 102.887L163.882 107.773C165.81 108.092 167.635 106.799 167.973 104.875L182.619 21.6168Z" fill="#181818"/>
<path d="M138.501 28.5367C138.845 26.5844 137.529 24.7272 135.573 24.4036L106.041 19.5176C104.114 19.1987 102.289 20.4916 101.95 22.416L87.3049 105.674C86.9615 107.626 88.2772 109.483 90.2329 109.807L119.765 114.693C121.693 115.012 123.518 113.719 123.856 111.795L138.501 28.5367Z" fill="#FF6701"/>
<path d="M148.176 42.935C150.111 42.5739 151.972 43.8496 152.333 45.7843L157.563 73.8087C157.924 75.7434 156.649 77.6045 154.714 77.9656C152.779 78.3266 150.918 77.051 150.557 75.1163L148.596 64.6072L121.973 69.5761L123.934 80.0853C124.295 82.02 123.019 83.881 121.085 84.2421C119.15 84.6032 117.289 83.3276 116.928 81.3929L111.697 53.3685C111.336 51.4338 112.612 49.5727 114.547 49.2116C116.481 48.8505 118.342 50.1262 118.703 52.0609L120.665 62.57L147.288 57.601L145.327 47.0919C144.966 45.1572 146.241 43.2961 148.176 42.935Z" fill="white"/>
<path d="M106.793 54.2838C108.341 53.9949 109.83 55.0155 110.119 56.5632L114.303 78.9827C114.592 80.5305 113.571 82.0194 112.024 82.3082C110.476 82.5971 108.987 81.5766 108.698 80.0288L104.514 57.6093C104.225 56.0616 105.245 54.5727 106.793 54.2838Z" fill="white"/>
<path d="M157.237 44.8689C158.785 44.5801 160.274 45.6006 160.563 47.1483L164.747 69.5679C165.036 71.1156 164.015 72.6045 162.468 72.8934C160.92 73.1822 159.431 72.1617 159.142 70.614L154.958 48.1944C154.669 46.6467 155.689 45.1578 157.237 44.8689Z" fill="white"/>
<path d="M101.874 62.6467C102.648 62.5023 103.393 63.0126 103.537 63.7864L105.629 74.9962C105.774 75.7701 105.263 76.5145 104.49 76.6589C103.716 76.8034 102.971 76.2931 102.827 75.5193L100.735 64.3095C100.59 63.5356 101.1 62.7912 101.874 62.6467Z" fill="white"/>
<path d="M164.771 51.1397C165.545 50.9953 166.289 51.5055 166.434 52.2794L168.526 63.4892C168.67 64.263 168.16 65.0075 167.386 65.1519C166.612 65.2963 165.868 64.7861 165.724 64.0122L163.631 52.8024C163.487 52.0286 163.997 51.2841 164.771 51.1397Z" fill="white"/>
</g>
</g>
<defs>
<clipPath id="clip0_2408_72814">
<rect width="95.4032" height="103.172" fill="white" transform="translate(87 12)"/>
</clipPath>
<clipPath id="clip1_2408_72814">
<rect width="96.8311" height="124.926" fill="white" transform="matrix(-0.949892 -0.312577 -0.312577 0.949892 200.156 19.4453)"/>
</clipPath>
</defs>
</svg>
