<svg width="24" height="24" viewBox="0 0 24 24" fill="none" xmlns="http://www.w3.org/2000/svg">
  <path d="M15.25 13.2808C15.0625 13.1558 14.875 13.0933 14.6875 13.3433L13.9375 14.3433C13.75 14.4683 13.625 14.5308 13.375 14.4058C12.4375 13.9058 11.125 13.3433 10 11.4683C9.93753 11.2183 10.0625 11.0933 10.1875 10.9683L10.75 10.0933C10.875 9.96832 10.8125 9.84332 10.75 9.71832L10 7.90582C9.81253 7.40582 9.62503 7.46832 9.43753 7.46832H8.93753C8.81253 7.46832 8.56253 7.53082 8.31253 7.78082C6.93753 9.15582 7.50003 11.0933 8.50003 12.3433C8.68753 12.5933 9.93753 14.8433 12.625 16.0308C14.625 16.9058 15.0625 16.7808 15.625 16.6558C16.3125 16.5933 17 16.0308 17.3125 15.4683C17.375 15.2808 17.6875 14.4683 17.4375 14.3433" fill="white"/>
  <path d="M12.5 20.2183C9.9375 20.2183 8 18.8433 8 18.8433L4.9375 19.6558L5.6875 16.6558C5.6875 16.6558 4.4375 14.7183 4.4375 12.2808C4.4375 7.78076 8.125 4.03076 12.6875 4.03076C16.9375 4.03076 20.5625 7.34326 20.5625 11.9683C20.5625 16.4683 16.9375 20.1558 12.5 20.2183ZM2.5625 22.0308L7.75 20.5933C9.25239 21.3624 10.9268 21.7336 12.6135 21.6715C14.3002 21.6094 15.9428 21.116 17.3846 20.2384C18.8263 19.3608 20.019 18.1284 20.8489 16.6587C21.6788 15.189 22.1182 13.5311 22.125 11.8433C22.125 6.46826 17.875 2.15576 12.5 2.15576C10.7748 2.16018 9.08091 2.61647 7.58694 3.4792C6.09297 4.34194 4.85109 5.58101 3.98497 7.07301C3.11884 8.56502 2.65871 10.2579 2.65038 11.9831C2.64205 13.7082 3.08582 15.4055 3.9375 16.9058" fill="white"/>
</svg>
