<svg preserveAspectRatio="none" width="100%" height="100%" overflow="visible" style="display: block;" viewBox="0 0 164 64" fill="none" xmlns="http://www.w3.org/2000/svg">
<g id="bitcoin-accepted-here-btc 1">
<path id="Vector" d="M44.2558 16C35.4523 16 28.3145 23.1628 28.3145 32.003C28.3145 40.8405 35.4523 48.01 44.2558 48.01C53.0593 48.01 60.2013 40.8405 60.2013 32.003C60.2013 23.1626 53.0593 16 44.2558 16ZM66.5557 17.146L64.1538 29.2017C64.009 29.907 63.8879 30.6383 63.8879 31.3705C63.8879 33.4864 65.2935 34.7058 68.1065 34.7058C73.4454 34.7058 75.9667 30.2754 75.9667 26.4045C75.9667 24.2833 74.8532 22.2559 72.3783 22.2559C70.9247 22.2559 69.5917 22.8903 68.7202 23.94H68.667L70.0746 17.146H66.5557ZM81.6747 17.3473C80.6047 17.3473 79.6829 18.1455 79.6615 19.3353C79.6588 20.3851 80.3874 21.0441 81.3556 21.0441C82.4738 21.0441 83.4178 20.3134 83.4178 19.0724C83.4178 18.0252 82.6882 17.3473 81.6747 17.3473ZM120.313 17.3473C119.251 17.3473 118.321 18.1455 118.3 19.3353C118.297 20.3851 119.03 21.0441 119.998 21.0441C121.113 21.0441 122.06 20.3134 122.06 19.0724C122.06 18.0252 121.335 17.3473 120.313 17.3473ZM90.0668 19.1957L86.507 20.0213L86.02 22.5268H84.4938L84.0109 25.1845H85.5126L84.588 29.9328C84.4191 30.8318 84.3464 31.4899 84.3464 32.1468C84.3464 33.6355 85.3468 34.7058 87.4274 34.7058C88.1757 34.7058 89.0472 34.6069 89.4897 34.4348L89.8989 31.6828C89.5798 31.7311 89.2416 31.7321 88.9332 31.7321C88.1771 31.7321 87.9308 31.3234 87.9308 30.7339C87.9308 30.3247 88.0333 29.715 88.1272 29.2223L88.9332 25.1846H91.4496L91.957 22.527H89.4365L90.0668 19.1957ZM42.8891 22.2517L45.2173 22.6953L44.7918 24.9627L46.2894 25.2461L46.7149 22.9747L49.0431 23.41L48.5889 25.8417C48.9213 25.9735 49.2257 26.1087 49.4646 26.2729C50.0893 26.6902 50.5453 27.1881 50.819 27.7804C51.0897 28.3726 51.1604 28.9838 51.04 29.6082C50.9567 30.0604 50.7789 30.4773 50.5081 30.8569C50.2398 31.2257 49.891 31.5361 49.4647 31.7811C49.041 32.0233 48.5085 32.192 47.8731 32.2862C48.4816 32.5688 48.9449 32.8439 49.2479 33.1077C49.6876 33.4792 50.0069 33.9388 50.2053 34.496C50.4009 35.0452 50.4406 35.6253 50.3281 36.2417C50.1913 36.9767 49.8452 37.6102 49.2929 38.1352C48.7378 38.6764 48.0244 39.0322 47.1612 39.1991C46.8419 39.2556 46.4804 39.2923 46.0809 39.2977L45.6186 41.7581L43.2904 41.3269L43.716 39.0514C43.6569 39.0326 43.6031 39.0293 43.5442 39.0185L42.2144 38.7721L41.7929 41.0435L39.4648 40.6082L39.8863 38.3326L36.3346 37.6631L36.6907 35.7531L37.2348 35.8558C37.5969 35.9285 37.8455 35.9454 37.9877 35.8968C38.1298 35.8591 38.2316 35.7854 38.3069 35.6832C38.3847 35.5782 38.4595 35.3217 38.532 34.9233L39.9642 27.2259C40.0419 26.8221 40.0658 26.5529 40.0337 26.4291C40.0015 26.3052 39.9266 26.1963 39.8086 26.1128C39.696 26.0186 39.4546 25.9351 39.0925 25.8787L38.5484 25.7678L38.9044 23.8578L42.4601 24.5315L42.8891 22.2517ZM99.801 22.2557C95.2827 22.2557 92.0636 25.5684 92.0636 29.8135C92.0636 32.9012 94.126 34.6852 97.0594 34.6852C98.4646 34.6852 99.6802 34.4353 100.431 34.0772L100.406 31.3868C99.8003 31.6344 99.07 31.8756 98.0536 31.8756C96.7451 31.8756 95.7295 31.0453 95.7295 29.4192C95.7295 27.1768 97.2524 25.0612 99.7517 25.0612C100.454 25.0612 100.937 25.1845 101.356 25.3488L102.203 22.6747C101.696 22.4539 100.817 22.2557 99.801 22.2557ZM109.486 22.2557C105.265 22.2557 102.403 25.6446 102.403 29.7848C102.403 32.7378 104.415 34.7057 107.424 34.7057C111.551 34.7057 114.507 31.5073 114.507 27.1519C114.507 24.4465 112.666 22.2557 109.486 22.2557ZM131.213 22.2557C129.636 22.2557 128.161 22.9384 127.04 24.4943H126.99L127.232 22.5267H124.13C123.978 23.5819 123.786 24.8927 123.496 26.4002L121.99 34.4263H125.481L126.479 29.1481C126.962 26.5181 128.302 25.0775 129.441 25.0775C130.316 25.0775 130.607 25.6667 130.607 26.4905C130.607 26.9266 130.556 27.4163 130.489 27.8336L129.249 34.4263H132.743L134.053 27.5133C134.152 26.9292 134.245 26.0269 134.245 25.4965C134.245 23.4454 133.152 22.2557 131.213 22.2557ZM79.1788 22.5226L76.9242 34.4345H80.4144L82.669 22.5226H79.1788ZM117.809 22.5226L115.554 34.4345H119.048L121.303 22.5226H117.809ZM109.024 24.9133C110.431 24.9133 110.894 26.081 110.894 27.1766C110.894 29.2197 109.832 32.0277 107.915 32.0277C106.7 32.0277 106.016 31.0988 106.016 29.7151C105.995 27.863 107.013 24.9133 109.024 24.9133ZM70.7498 25.0857C71.8143 25.0857 72.2964 25.9845 72.2964 27.1312C72.2964 29.2202 70.8446 32.048 68.8307 32.048C68.0262 32.048 67.5209 31.5842 67.4967 30.7336C67.4726 30.2276 67.5672 29.8151 67.6154 29.4274L67.8364 28.4456C68.252 26.3729 69.4867 25.0857 70.7498 25.0857ZM43.5193 27.0245L42.8933 30.3886L44.4031 30.6762C45.1887 30.8216 45.7862 30.8614 46.1912 30.7995C46.5933 30.743 46.9086 30.5956 47.1528 30.3642C47.386 30.1381 47.5466 29.8419 47.6111 29.4893C47.6807 29.1258 47.6495 28.8024 47.5128 28.5116C47.3841 28.2263 47.1566 27.9991 46.8295 27.8134C46.5103 27.6438 45.914 27.4724 45.0291 27.3081L43.5193 27.0245ZM42.5169 32.4301L41.9645 35.4164C41.8973 35.8336 41.8623 36.0938 41.8703 36.164C41.8863 36.2636 41.93 36.34 41.9972 36.3859C42.0696 36.4342 42.2674 36.4979 42.6028 36.5542L43.6052 36.7473C44.1923 36.8524 44.6856 36.8919 45.0905 36.8541C45.4954 36.8163 45.8641 36.6505 46.1994 36.3571C46.5293 36.0608 46.7398 35.6791 46.8337 35.1946C46.9033 34.7881 46.8762 34.4265 46.7395 34.1062C46.5974 33.7885 46.357 33.5165 46.003 33.3011C45.649 33.0856 45.0837 32.911 44.3009 32.763L42.5169 32.4301ZM107.088 36.2707V39.3596H107.064C106.804 38.9637 106.259 38.7147 105.562 38.7147C104.2 38.7147 103.002 39.82 103.013 41.7502C103.013 43.5215 104.096 44.683 105.447 44.683C106.177 44.683 106.863 44.3542 107.227 43.7136H107.252L107.33 44.5556H108.901C108.874 44.168 108.852 43.4916 108.852 42.8509V36.2707H107.088ZM112.628 36.2707V44.5556H114.4V41.1669C114.4 41.0349 114.412 40.8855 114.457 40.7726C114.586 40.4603 114.879 40.1564 115.345 40.1564C116.008 40.1564 116.262 40.6662 116.262 41.4174V44.5556H118.03V41.2203C118.03 39.5029 117.173 38.7188 116.041 38.7188C115.716 38.7188 115.38 38.7979 115.12 38.9407C114.841 39.0913 114.611 39.2816 114.421 39.524H114.4V36.2709L112.628 36.2707ZM94.9604 37.2154L93.2255 37.6056V38.8462H92.4726V40.1524H93.2255V42.4815C93.2255 43.2917 93.388 43.84 93.7125 44.182C93.9915 44.4673 94.4685 44.6749 95.0423 44.6749C95.5411 44.6749 95.9616 44.6157 96.192 44.5188L96.1797 43.1756C96.0536 43.1971 95.88 43.2208 95.66 43.2208C95.1264 43.2208 94.9603 42.9076 94.9603 42.2186V40.1524H96.2328V38.8462H94.9603L94.9604 37.2154ZM65.7292 38.7146C64.6942 38.7146 63.9138 38.9964 63.5197 39.2199L63.843 40.3659C64.2157 40.1289 64.8349 39.9346 65.4142 39.9346C66.2883 39.9346 66.4494 40.3643 66.4494 40.6657V40.7519C64.4382 40.7358 63.1105 41.4512 63.1105 42.9372C63.1105 43.847 63.7947 44.6828 64.9477 44.6828C65.6207 44.6828 66.2033 44.4353 66.5763 43.9804H66.6129L66.7153 44.5555H68.3111C68.2547 44.2405 68.2334 43.7134 68.2334 43.1589V41.1791C68.2334 39.8358 67.6249 38.7146 65.7292 38.7146ZM72.5622 38.7146C70.4438 38.7146 69.3053 40.0811 69.3053 41.7501C69.3053 43.5456 70.48 44.6706 72.3169 44.6706C72.9925 44.6706 73.5865 44.5518 73.9004 44.4118L73.6875 43.1055C73.4193 43.2106 73.0953 43.2739 72.6768 43.2739C71.8162 43.2739 71.1179 42.7287 71.1179 41.6761C71.1045 40.7473 71.7149 40.0824 72.64 40.0824C73.1065 40.0824 73.4212 40.1565 73.6301 40.2508L73.9084 38.9364C73.5383 38.791 73.0263 38.7146 72.5622 38.7146ZM77.681 38.7146C75.5626 38.7146 74.424 40.0811 74.424 41.7501C74.424 43.5456 75.6001 44.6706 77.4396 44.6706C78.1127 44.6706 78.7094 44.5518 79.0231 44.4118L78.8144 43.1055C78.5462 43.2106 78.2207 43.2739 77.7996 43.2739C76.9416 43.2739 76.2407 42.7287 76.2407 41.6761C76.2274 40.7473 76.835 40.0824 77.7628 40.0824C78.2269 40.0824 78.5399 40.1565 78.7489 40.2508L79.0312 38.9364C78.6586 38.791 78.1478 38.7146 77.681 38.7146ZM82.4234 38.7146C80.4444 38.7146 79.5509 40.3127 79.5509 41.7583C79.5509 43.543 80.659 44.6705 82.587 44.6705C83.3568 44.6705 84.0633 44.5499 84.6452 44.3131L84.4161 43.1137C83.9388 43.2698 83.4482 43.3478 82.8448 43.3478C82.0189 43.3478 81.2973 43.0024 81.2409 42.2675H84.899C84.9258 42.1355 84.9605 41.8731 84.9605 41.561C84.9604 40.1588 84.2576 38.7146 82.4234 38.7146ZM89.5102 38.7146C88.687 38.7146 88.03 39.0277 87.6117 39.6388H87.5914L87.5136 38.8461H85.9751C85.9966 39.3655 86.0242 40.0118 86.0242 40.7601V46.864H87.7918V44.0298H87.8123C88.0723 44.4039 88.6029 44.683 89.2893 44.683C90.5577 44.683 91.8713 43.7036 91.8713 41.6229C91.8713 39.8003 90.7546 38.7146 89.5102 38.7146ZM99.7436 38.7146C97.7702 38.7146 96.8712 40.3127 96.8712 41.7583C96.8712 43.543 97.9793 44.6705 99.9073 44.6705C100.677 44.6705 101.384 44.5499 101.965 44.3131L101.732 43.1137C101.255 43.2698 100.769 43.3478 100.165 43.3478C99.3365 43.3478 98.6202 43.0024 98.5613 42.2675H102.219C102.241 42.1355 102.277 41.8731 102.277 41.561C102.277 40.1588 101.581 38.7146 99.7436 38.7146ZM122.003 38.7146C120.024 38.7146 119.13 40.3127 119.13 41.7583C119.13 43.543 120.236 44.6705 122.166 44.6705C122.936 44.6705 123.644 44.5499 124.229 44.3131L123.991 43.1137C123.517 43.2698 123.028 43.3478 122.424 43.3478C121.596 43.3478 120.875 43.0024 120.816 42.2675H124.478C124.5 42.1355 124.536 41.8731 124.536 41.561C124.535 40.1588 123.837 38.7146 122.003 38.7146ZM132.477 38.7146C130.504 38.7146 129.605 40.3127 129.605 41.7583C129.605 43.543 130.713 44.6705 132.641 44.6705C133.411 44.6705 134.122 44.5499 134.703 44.3131L134.47 43.1137C133.993 43.2698 133.505 43.3478 132.899 43.3478C132.073 43.3478 131.354 43.0024 131.295 42.2675H134.953C134.98 42.1355 135.014 41.8731 135.014 41.561C135.014 40.1588 134.314 38.7146 132.477 38.7146ZM128.717 38.7226C128.173 38.7226 127.477 39.0725 127.187 39.9015H127.134L127.076 38.8459H125.558C125.58 39.3361 125.599 39.89 125.599 40.7271V44.5553H127.367V41.6596C127.367 41.5197 127.379 41.381 127.403 41.2652C127.519 40.7136 127.962 40.3656 128.611 40.3656C128.809 40.3656 128.965 40.3934 129.093 40.4149V38.7431C128.968 38.7189 128.884 38.7228 128.717 38.7226ZM82.317 39.8932C83.1269 39.8932 83.3195 40.6183 83.3195 41.0515H81.2245C81.2701 40.5671 81.5715 39.8932 82.317 39.8932ZM99.6373 39.8932C100.455 39.8932 100.644 40.6183 100.644 41.0515H98.5449C98.5958 40.5671 98.8946 39.8932 99.6373 39.8932ZM121.896 39.8932C122.712 39.8932 122.899 40.6183 122.899 41.0515H120.804C120.849 40.5671 121.154 39.8932 121.896 39.8932ZM132.371 39.8932C133.184 39.8932 133.374 40.6183 133.374 41.0515H131.279C131.327 40.5671 131.623 39.8932 132.371 39.8932ZM106.029 40.0658C106.573 40.0658 106.959 40.4617 107.064 40.9407C107.074 41.0296 107.088 41.1586 107.088 41.2529V42.0087C107.088 42.1622 107.078 42.2889 107.043 42.4153C106.939 42.9188 106.531 43.2656 106.016 43.2656C105.287 43.2656 104.805 42.6561 104.805 41.6924C104.805 40.7934 105.221 40.0658 106.029 40.0658ZM88.8842 40.1068C89.678 40.1068 90.079 40.7948 90.079 41.7046C90.079 42.6713 89.624 43.3229 88.8597 43.3229C88.3477 43.3229 87.9399 42.9574 87.8246 42.4809C87.8032 42.3706 87.7918 42.2484 87.7918 42.103V41.3185C87.7918 41.2163 87.8031 41.0992 87.8246 41.0022C87.9398 40.4801 88.3829 40.1068 88.8842 40.1068ZM66.5066 41.8567L66.5105 42.477C66.5105 42.582 66.4978 42.6895 66.4737 42.7809C66.3584 43.1471 65.9956 43.4299 65.5531 43.4299C65.1589 43.4299 64.8576 43.2112 64.8576 42.7563C64.8576 42.0618 65.5787 41.8407 66.5066 41.8567Z" fill="var(--fill-0, #5C5C5C)"/>
</g>
</svg>
