<svg preserveAspectRatio="none" width="100%" height="100%" overflow="visible" style="display: block;" viewBox="0 0 18 20" fill="none" xmlns="http://www.w3.org/2000/svg">
<path id="Subtract" fill-rule="evenodd" clip-rule="evenodd" d="M8.51228 0.0223075C9.92693 -0.107572 11.2908 0.33236 12.3391 1.27219C13.377 2.19202 13.9671 3.51159 13.9672 4.88124V5.63801C15.3943 5.78539 16.423 6.22135 17.1032 6.96114C18.0801 8.04088 18.059 9.48071 17.947 10.4706L17.2354 16.0609C17.0216 18.0006 16.2165 20 11.8401 20H6.16155C1.7849 20 0.980022 18 0.766279 16.0502L0.054597 10.4813C-0.0573603 9.48145 -0.0887208 8.04103 0.898477 6.96114C1.5769 6.22324 2.60209 5.78746 4.02352 5.63899V5.06189C4.02352 2.56212 6.07968 0.252287 8.51228 0.0223075ZM12.3321 9.99992C12.232 9.9949 12.1314 10.0089 12.0369 10.0419C11.9425 10.0749 11.8558 10.1263 11.7814 10.1923C11.7071 10.2582 11.6466 10.3378 11.6035 10.4266C11.376 10.8966 11.0176 11.2941 10.5698 11.572C10.122 11.85 9.60259 11.9968 9.07288 11.9968C8.5434 11.9968 8.02466 11.8498 7.57696 11.572C7.12911 11.2941 6.7708 10.8966 6.54323 10.4266C6.50024 10.3378 6.43958 10.2582 6.36531 10.1923C6.29089 10.1263 6.20333 10.0749 6.10887 10.0419C6.01458 10.009 5.91458 9.99495 5.81465 9.99992C5.71452 10.0049 5.61596 10.0289 5.52541 10.0712C5.43496 10.1134 5.354 10.173 5.28685 10.246C5.21966 10.3191 5.16738 10.4051 5.13378 10.4979C5.10029 10.5906 5.08596 10.6888 5.09104 10.787C5.09615 10.8853 5.12056 10.9822 5.1636 11.0711C5.51416 11.7982 6.06794 12.4122 6.75992 12.8424C7.45192 13.2727 8.25394 13.5015 9.07288 13.5016C9.89191 13.5016 10.6948 13.2727 11.3868 12.8424C12.0786 12.4122 12.6317 11.798 12.9822 11.0711C13.0252 10.9822 13.0506 10.8853 13.0557 10.787C13.0608 10.6887 13.0455 10.5906 13.012 10.4979C12.9784 10.4051 12.9271 10.3191 12.8599 10.246C12.7927 10.1729 12.7109 10.1135 12.6204 10.0712C12.53 10.0291 12.432 10.005 12.3321 9.99992ZM11.3928 2.3014C10.6396 1.63147 9.67223 1.32185 8.65442 1.41183C6.94448 1.57182 5.44788 3.28205 5.44788 5.06189V5.58138H12.5528V4.88124C12.5527 3.90148 12.1255 2.96125 11.3928 2.3014Z" fill="var(--fill-0, #181818)"/>
</svg>
