<svg preserveAspectRatio="none" width="100%" height="100%" overflow="visible" style="display: block;" viewBox="0 0 164 64" fill="none" xmlns="http://www.w3.org/2000/svg">
<g id="logo 1 [Vectorized]">
<g id="Vector">
<path d="M69.3824 20H86.031C86.0367 23.668 85.9692 27.512 86.0363 31.1596L86.0389 43.2147H69.383C69.3275 40.5776 69.3796 37.745 69.3794 35.0949L69.3824 20ZM75.8655 37.6297C77.0881 37.6111 78.341 37.6358 79.5718 37.625C79.5058 35.3758 79.5581 32.8703 79.556 30.6005L79.5527 28.0533C79.5519 27.5779 79.5314 26.9307 79.581 26.4723C78.7469 26.4833 77.9128 26.4858 77.0787 26.48C76.7764 26.4798 76.1517 26.4618 75.8939 26.4952C75.8548 26.6374 75.858 26.6906 75.8588 26.8346C75.9187 27.8483 75.867 29.4729 75.8659 30.5255L75.8655 37.6297Z" fill="var(--fill-0, #5C5C5C)"/>
<path d="M69.4209 20H86.0298C86.0355 23.668 85.9681 27.512 86.0351 31.1596L79.6014 31.1642L79.6034 28.0674C79.6036 27.6149 79.6244 26.8977 79.5798 26.4723C78.7457 26.4833 77.9116 26.4858 77.0775 26.48C76.7752 26.4798 76.1505 26.4618 75.8927 26.4952C75.8536 26.6374 75.8568 26.6906 75.8577 26.8346C75.8005 27.0511 75.8168 28.1059 75.8171 28.3777L75.8208 31.1595L69.4118 31.1653L69.4123 23.7376C69.4114 22.534 69.381 21.191 69.4209 20Z" fill="var(--fill-0, #5C5C5C)"/>
<path d="M37 20H53.6851L53.6817 20.2842C53.7463 24.0627 53.648 27.904 53.6887 31.6876C53.703 33.0239 53.6542 34.458 53.6945 35.7831L44.4132 35.7851C44.4141 36.3693 44.3973 37.0533 44.4179 37.6289C46.8176 37.631 49.4379 37.6855 51.8209 37.6265L51.8253 43.2147H37V31.1601V20ZM44.4174 31.1546L44.4123 32.0527L49.9663 32.0453C49.9627 31.7537 49.9555 31.4545 49.9592 31.1638L49.9654 26.4822C48.1388 26.4425 46.2353 26.5312 44.4124 26.4751L44.4174 31.1546Z" fill="var(--fill-0, #5C5C5C)"/>
<path d="M37 20H53.6851L53.6817 20.2842C53.6071 20.7981 53.6545 23.0379 53.6552 23.6804L53.6531 31.1565L49.9592 31.1638L49.9654 26.4822C48.1388 26.4425 46.2353 26.5312 44.4124 26.4751L44.4174 31.1546L37 31.1601V20Z" fill="var(--fill-0, #5C5C5C)"/>
<path d="M98.0368 20H110.077C110.078 20.2884 110.072 20.5963 110.079 20.8827C110.309 20.8862 110.518 20.892 110.747 20.8721C110.834 20.8647 110.993 20.8136 111.004 20.8136L111.011 20.8938L111.023 21.8483C111.187 21.8473 111.746 21.814 111.877 21.8344L111.925 21.8346L111.923 34.7037C111.922 36.8505 111.873 39.2529 111.927 41.3768C111.623 41.3648 111.319 41.3598 111.015 41.362C111.013 41.6471 111.003 41.9682 111.011 42.2501L110.752 42.2532C110.265 42.1892 109.704 42.2992 109.164 42.2668L109.168 43.2147H98.0355C98.0065 41.8966 98.0315 40.4735 98.0311 39.1499L98.0337 31.129L98.0368 20ZM101.761 30.9604L101.758 37.6304C102.918 37.6311 104.304 37.6673 105.444 37.6206L105.44 31.023L105.446 26.4823L101.758 26.4832L101.761 30.9604Z" fill="var(--fill-0, #5C5C5C)"/>
<path d="M98.0368 20H110.077C110.078 20.2884 110.072 20.5963 110.079 20.8827C110.309 20.8862 110.518 20.892 110.747 20.8721C110.834 20.8647 110.993 20.8136 111.004 20.8136L111.011 20.8938L111.023 21.8483C111.187 21.8473 111.746 21.814 111.877 21.8344L111.874 31.1615L107.567 31.1591C107.199 31.1598 105.82 31.1896 105.516 31.1396C105.488 31.1032 105.455 31.0655 105.44 31.023L105.446 26.4823L101.758 26.4832L101.761 30.9604L101.701 31.1405C101.282 31.1992 99.5536 31.1599 99.0252 31.1587C98.8236 31.1607 98.1862 31.1852 98.0337 31.129L98.0368 20Z" fill="var(--fill-0, #5C5C5C)"/>
<path d="M113.756 31.1634L126.733 31.1562V43.2148H113.759C113.697 41.1643 113.755 38.7895 113.756 36.7139C116.091 36.7383 118.85 36.7741 121.167 36.7077C121.157 36.1032 121.165 35.4763 121.166 34.87L116.324 34.8707C115.546 34.8704 114.52 34.8404 113.759 34.8927L113.756 31.1634Z" fill="var(--fill-0, #5C5C5C)"/>
<path d="M87.8952 28.3144L88.3614 28.3268C90.9267 28.3248 93.6481 28.3725 96.1982 28.3125L96.1973 43.2147H87.8746C87.8014 39.7874 87.8737 36.0809 87.8732 32.638L87.8636 29.7855C87.8627 29.4911 87.8443 28.5594 87.8952 28.3144Z" fill="var(--fill-0, #5C5C5C)"/>
<path d="M87.8952 28.3144L88.3614 28.3268C88.4595 28.3836 95.429 28.3723 96.1533 28.3575L96.1498 31.1584L95.2801 31.1547L87.9239 31.1586C87.9042 30.3844 87.9731 29.0311 87.8952 28.3144Z" fill="var(--fill-0, #5C5C5C)"/>
<path d="M113.762 20H126.735V26.493C125.035 26.4778 123.335 26.4743 121.635 26.4827C121.081 26.4831 119.801 26.5192 119.332 26.4745C119.332 27.6824 119.305 28.9962 119.334 30.1948L126.735 30.1969V31.1562L113.758 31.1634L113.762 20Z" fill="var(--fill-0, #5C5C5C)"/>
<path d="M55.4783 20H67.544C67.5533 22.4095 67.4938 25.0467 67.5511 27.4361C65.7849 27.4362 63.789 27.3943 62.0408 27.4434C62.0022 27.4856 61.9841 27.4958 61.9805 27.5495C61.9139 28.5518 61.9634 30.1078 61.9616 31.1576L56.4342 31.1604L55.4688 31.1633C55.5126 27.4555 55.4471 23.7142 55.4783 20Z" fill="var(--fill-0, #5C5C5C)"/>
<path d="M61.9805 27.5495C62.0243 28.0473 62.0079 28.6861 62.0074 29.1967L62.0033 31.863L62.0034 39.3357C62.0036 40.5633 61.9667 42.0014 62.0094 43.2151H55.4767C55.449 42.841 55.4663 42.2199 55.4662 41.8243L55.4688 31.1633L56.4342 31.1604L61.9616 31.1576C61.9634 30.1078 61.9139 28.5518 61.9805 27.5495Z" fill="var(--fill-0, #5C5C5C)"/>
<path d="M87.873 20H96.1932C96.2343 22.1187 96.1962 24.3722 96.1967 26.5016C95.7804 26.4457 93.7693 26.4688 93.2089 26.4802C91.4918 26.5149 89.5665 26.4214 87.8739 26.4993L87.873 20Z" fill="var(--fill-0, #5C5C5C)"/>
<path d="M111.01 20.8941C111.244 20.916 111.668 20.8894 111.918 20.8799L111.923 21.835L111.876 21.8347C111.745 21.8143 111.186 21.8476 111.022 21.8487L111.01 20.8941Z" fill="var(--fill-0, #5C5C5C)"/>
<path d="M109.164 42.2668C109.704 42.2992 110.265 42.1892 110.752 42.2532C110.505 42.2679 110.301 42.2749 110.053 42.2744L110.049 43.2148L109.168 43.2147L109.164 42.2668Z" fill="var(--fill-0, #5C5C5C)"/>
<path d="M110.077 20H111.01C111.009 20.2307 111.019 20.5936 111.004 20.8136C110.993 20.8136 110.834 20.8647 110.747 20.8721C110.518 20.892 110.309 20.8862 110.079 20.8827C110.072 20.5963 110.078 20.2884 110.077 20Z" fill="var(--fill-0, #5C5C5C)"/>
<path d="M111.015 41.362C111.319 41.3598 111.623 41.3648 111.927 41.3768C111.921 41.6595 111.923 41.9872 111.892 42.2649C111.59 42.266 111.313 42.264 111.011 42.2501C111.003 41.9682 111.013 41.6471 111.015 41.362Z" fill="var(--fill-0, #5C5C5C)"/>
</g>
</g>
</svg>
