<svg width="24" height="24" viewBox="0 0 24 24" fill="none" xmlns="http://www.w3.org/2000/svg">
<path d="M20.5484 13.3883V7.57299C20.5484 6.27531 20.1367 5.25389 19.4748 4.56218C18.8156 3.87332 17.8534 3.45382 16.6369 3.45382H7.36313C6.14665 3.45382 5.18436 3.87341 4.52516 4.56218C3.86329 5.25389 3.45159 6.27531 3.45159 7.57299V13.3883C3.45159 14.686 3.86329 15.7074 4.52516 16.3991C5.18436 17.0879 6.14663 17.5075 7.36313 17.5075C7.76381 17.5076 8.0889 17.833 8.08893 18.2344V20.2987C8.08893 20.4123 8.14306 20.4822 8.20422 20.5164C8.26385 20.5496 8.32441 20.5495 8.38567 20.5069L8.38662 20.506L12.5136 17.6371L12.6081 17.5813C12.707 17.5328 12.8165 17.5075 12.9276 17.5075H16.6369C17.8535 17.5075 18.8156 17.088 19.4748 16.3991C20.1367 15.7074 20.5484 14.686 20.5484 13.3883ZM22 13.3883C22 14.9981 21.4838 16.3999 20.5229 17.4043C19.5591 18.4115 18.2024 18.9613 16.6369 18.9613H13.1553L9.21448 21.7005C8.07714 22.4924 6.63734 21.6065 6.63734 20.2987V18.9187C5.37861 18.7744 4.28859 18.2524 3.47711 17.4043C2.51611 16.3999 2 14.9982 2 13.3883V7.57299C2 5.96309 2.51609 4.5614 3.47711 3.55699C4.44086 2.54979 5.79756 2 7.36313 2H16.6369C18.2024 2 19.5591 2.54979 20.5229 3.55699C21.4838 4.56139 22 5.96317 22 7.57299V13.3883Z" fill="#7E7E7E"/>
<path d="M11.2741 11.382V11.1785C11.2741 10.1493 11.9234 9.61064 12.3542 9.29971L12.358 9.29781C12.5279 9.17657 12.6382 9.07759 12.7096 8.97695C12.77 8.89177 12.8135 8.79013 12.8135 8.62958C12.8135 8.10987 12.4234 7.74745 11.9999 7.74745C11.5763 7.74745 11.1862 8.10986 11.1862 8.62958C11.1861 9.03099 10.8612 9.3565 10.4604 9.3565C10.0596 9.3565 9.73464 9.03099 9.73458 8.62958C9.73458 7.36594 10.717 6.29362 11.9999 6.29362C13.2827 6.29363 14.2651 7.36595 14.2651 8.62958C14.2651 9.63694 13.6291 10.1757 13.2001 10.4819L13.1991 10.4809C13.0215 10.6094 12.9076 10.711 12.8334 10.8151C12.771 10.9027 12.7256 11.0082 12.7256 11.1785V11.382C12.7256 11.7835 12.4007 12.1089 11.9999 12.1089C11.599 12.1089 11.2741 11.7835 11.2741 11.382Z" fill="#7E7E7E"/>
<path d="M12.0039 12.9715C12.4048 12.9715 12.7297 13.297 12.7297 13.6984C12.7297 14.0999 12.4048 14.4254 12.0039 14.4254H11.9954C11.5947 14.4252 11.2696 14.0998 11.2696 13.6984C11.2696 13.2971 11.5947 12.9717 11.9954 12.9715H12.0039Z" fill="#7E7E7E"/>
</svg>
