<svg preserveAspectRatio="none" width="100%" height="100%" overflow="visible" style="display: block;" viewBox="0 0 18 15.5964" fill="none" xmlns="http://www.w3.org/2000/svg">
<g id="gvEBB1.tif">
<path id="Vector" d="M17.1233 15.5245L13.0461 13.1953L3.05257 13.1989C1.30853 13.1998 -0.00161597 11.8334 1.49602e-06 10.1003L0.00687574 3.01132C0.00808884 1.34048 1.3336 0 3.00849 0L15.0251 0.00161747C16.6615 0.00161747 17.9984 1.33158 17.9984 2.97008L18 14.9838C18 15.2074 17.8876 15.3837 17.7477 15.4792C17.5734 15.5981 17.3401 15.6486 17.1229 15.5245H17.1233ZM5.66397 5.48403C5.0554 5.59806 4.70683 6.18196 4.83542 6.74687C4.95997 7.29155 5.49414 7.64456 6.05176 7.54145C6.61302 7.43793 6.98868 6.89001 6.8884 6.33279C6.7873 5.77194 6.26365 5.37161 5.66397 5.48403ZM8.81278 5.48362C8.20178 5.59887 7.85685 6.18156 7.98383 6.74727C8.10635 7.29195 8.64254 7.64618 9.20299 7.54023C9.76344 7.43429 10.1363 6.89082 10.0368 6.3332C9.93692 5.77355 9.41084 5.37121 8.81278 5.48403V5.48362ZM11.96 5.48443C11.3514 5.59887 11.0036 6.18277 11.1318 6.74687C11.256 7.29236 11.7926 7.64658 12.3506 7.54104C12.9086 7.4355 13.2847 6.88961 13.1848 6.3332C13.0849 5.77679 12.5613 5.37161 11.9596 5.48484L11.96 5.48443Z" fill="var(--fill-0, #FF6701)"/>
</g>
</svg>
