<svg preserveAspectRatio="none" width="100%" height="100%" overflow="visible" style="display: block;" viewBox="0 0 20 17.3293" fill="none" xmlns="http://www.w3.org/2000/svg">
<g id="gvEBB1.tif">
<path id="Vector" d="M19.0259 17.2494L14.4957 14.6615L3.39174 14.6655C1.45393 14.6664 -0.00179552 13.1482 1.66224e-06 11.2225L0.00763971 3.34591C0.0089876 1.48942 1.48178 0 3.34277 0L16.6945 0.00179719C18.5128 0.00179719 19.9982 1.47953 19.9982 3.30008L20 16.6487C20 16.8972 19.8751 17.093 19.7196 17.1991C19.526 17.3312 19.2667 17.3873 19.0255 17.2494H19.0259ZM6.2933 6.09336C5.61711 6.22006 5.22982 6.86885 5.37269 7.49652C5.51108 8.10172 6.1046 8.49396 6.72418 8.37939C7.3478 8.26437 7.7652 7.65557 7.65377 7.03644C7.54145 6.41326 6.95961 5.96846 6.2933 6.09336ZM9.79198 6.09291C9.11309 6.22096 8.72984 6.8684 8.87092 7.49697C9.00705 8.10217 9.60282 8.49575 10.2255 8.37804C10.8483 8.26032 11.2625 7.65647 11.152 7.03689C11.041 6.41506 10.4565 5.96801 9.79198 6.09336V6.09291ZM13.2889 6.09381C12.6127 6.22096 12.2263 6.86975 12.3687 7.49652C12.5066 8.10262 13.1028 8.4962 13.7229 8.37894C14.3429 8.26167 14.7607 7.65512 14.6498 7.03689C14.5388 6.41865 13.957 5.96846 13.2884 6.09426L13.2889 6.09381Z" fill="var(--fill-0, #FF6701)"/>
</g>
</svg>
