<svg preserveAspectRatio="none" width="100%" height="100%" overflow="visible" style="display: block;" viewBox="0 0 21.5 21.5" fill="none" xmlns="http://www.w3.org/2000/svg">
<g id="Group">
<path id="Vector" d="M8.75 7C8.60166 7 8.45666 7.04399 8.33332 7.1264C8.20999 7.20881 8.11386 7.32594 8.05709 7.46299C8.00033 7.60003 7.98547 7.75083 8.01441 7.89632C8.04335 8.0418 8.11478 8.17544 8.21967 8.28033C8.32456 8.38522 8.4582 8.45665 8.60368 8.48559C8.74917 8.51453 8.89997 8.49967 9.03701 8.44291C9.17406 8.38614 9.29119 8.29001 9.3736 8.16668C9.45601 8.04334 9.5 7.89834 9.5 7.75C9.49869 7.55149 9.41925 7.36149 9.27888 7.22112C9.13851 7.08075 8.94851 7.00131 8.75 7ZM8.75 7C8.60166 7 8.45666 7.04399 8.33332 7.1264C8.20999 7.20881 8.11386 7.32594 8.05709 7.46299C8.00033 7.60003 7.98547 7.75083 8.01441 7.89632C8.04335 8.0418 8.11478 8.17544 8.21967 8.28033C8.32456 8.38522 8.4582 8.45665 8.60368 8.48559C8.74917 8.51453 8.89997 8.49967 9.03701 8.44291C9.17406 8.38614 9.29119 8.29001 9.3736 8.16668C9.45601 8.04334 9.5 7.89834 9.5 7.75C9.49869 7.55149 9.41925 7.36149 9.27888 7.22112C9.13851 7.08075 8.94851 7.00131 8.75 7ZM20.14 8.27C19.8137 7.95722 19.5372 7.59638 19.32 7.2C19.1814 6.74666 19.1173 6.27387 19.13 5.8C19.2116 4.8501 18.9332 3.90421 18.35 3.15C17.5963 2.56579 16.65 2.28726 15.7 2.37C15.2261 2.38272 14.7533 2.31856 14.3 2.18C13.9036 1.96281 13.5428 1.68628 13.23 1.36C12.6127 0.600088 11.7226 0.111939 10.75 0C9.77741 0.111939 8.88725 0.600088 8.27 1.36C7.95722 1.68628 7.59638 1.96281 7.2 2.18C6.74666 2.31856 6.27387 2.38272 5.8 2.37C4.84999 2.28726 3.90371 2.56579 3.15 3.15C2.56677 3.90421 2.28836 4.8501 2.37 5.8C2.38057 6.27305 2.31989 6.74501 2.19 7.2C1.96547 7.59422 1.686 7.95449 1.36 8.27C0.600088 8.88725 0.111939 9.77741 0 10.75C0.111939 11.7226 0.600088 12.6127 1.36 13.23C1.68628 13.5428 1.96281 13.9036 2.18 14.3C2.31856 14.7533 2.38272 15.2261 2.37 15.7C2.28836 16.6499 2.56677 17.5958 3.15 18.35C3.90371 18.9342 4.84999 19.2127 5.8 19.13C6.27387 19.1173 6.74666 19.1814 7.2 19.32C7.59638 19.5372 7.95722 19.8137 8.27 20.14C8.88725 20.8999 9.77741 21.3881 10.75 21.5C11.7226 21.3881 12.6127 20.8999 13.23 20.14C13.5428 19.8137 13.9036 19.5372 14.3 19.32C14.7533 19.1814 15.2261 19.1173 15.7 19.13C16.65 19.2127 17.5963 18.9342 18.35 18.35C18.9332 17.5958 19.2116 16.6499 19.13 15.7C19.1194 15.2269 19.1801 14.755 19.31 14.3C19.5345 13.9058 19.814 13.5455 20.14 13.23C20.8999 12.6127 21.3881 11.7226 21.5 10.75C21.3881 9.77741 20.8999 8.88725 20.14 8.27ZM8.75 5.5C9.19501 5.5 9.63002 5.63196 10 5.87919C10.37 6.12643 10.6584 6.47783 10.8287 6.88896C10.999 7.3001 11.0436 7.7525 10.9568 8.18895C10.87 8.62541 10.6557 9.02632 10.341 9.34099C10.0263 9.65566 9.62541 9.86995 9.18895 9.95677C8.7525 10.0436 8.3001 9.99903 7.88896 9.82873C7.47783 9.65843 7.12643 9.37004 6.87919 9.00003C6.63196 8.63002 6.5 8.19501 6.5 7.75C6.50079 7.15351 6.7381 6.58167 7.15989 6.15989C7.58167 5.7381 8.15351 5.50079 8.75 5.5ZM7.75 14.5C7.65148 14.5004 7.55387 14.4811 7.46287 14.4433C7.37187 14.4055 7.28931 14.35 7.22 14.28C7.08052 14.1389 7.0023 13.9484 7.0023 13.75C7.0023 13.5516 7.08052 13.3611 7.22 13.22L13.22 7.22C13.3622 7.08752 13.5502 7.0154 13.7445 7.01882C13.9388 7.02225 14.1242 7.10097 14.2616 7.23838C14.399 7.37579 14.4777 7.56118 14.4812 7.75548C14.4846 7.94978 14.4125 8.13782 14.28 8.28L8.28 14.28C8.21069 14.35 8.12813 14.4055 8.03713 14.4433C7.94613 14.4811 7.84852 14.5004 7.75 14.5ZM12.75 16C12.305 16 11.87 15.868 11.5 15.6208C11.13 15.3736 10.8416 15.0222 10.6713 14.611C10.501 14.1999 10.4564 13.7475 10.5432 13.311C10.63 12.8746 10.8443 12.4737 11.159 12.159C11.4737 11.8443 11.8746 11.63 12.311 11.5432C12.7475 11.4564 13.1999 11.501 13.611 11.6713C14.0222 11.8416 14.3736 12.13 14.6208 12.5C14.868 12.87 15 13.305 15 13.75C14.9992 14.3465 14.7619 14.9183 14.3401 15.3401C13.9183 15.7619 13.3465 15.9992 12.75 16ZM12.75 13C12.6017 13 12.4567 13.044 12.3333 13.1264C12.21 13.2088 12.1139 13.3259 12.0571 13.463C12.0003 13.6 11.9855 13.7508 12.0144 13.8963C12.0433 14.0418 12.1148 14.1754 12.2197 14.2803C12.3246 14.3852 12.4582 14.4567 12.6037 14.4856C12.7492 14.5145 12.9 14.4997 13.037 14.4429C13.1741 14.3861 13.2912 14.29 13.3736 14.1667C13.456 14.0433 13.5 13.8983 13.5 13.75C13.4987 13.5515 13.4193 13.3615 13.2789 13.2211C13.1385 13.0807 12.9485 13.0013 12.75 13ZM8.75 8.5C8.89834 8.5 9.04334 8.45601 9.16668 8.3736C9.29001 8.29119 9.38614 8.17406 9.44291 8.03701C9.49967 7.89997 9.51453 7.74917 9.48559 7.60368C9.45665 7.4582 9.38522 7.32456 9.28033 7.21967C9.17544 7.11478 9.0418 7.04335 8.89632 7.01441C8.75083 6.98547 8.60003 7.00033 8.46299 7.05709C8.32594 7.11386 8.20881 7.20999 8.1264 7.33332C8.04399 7.45666 8 7.60166 8 7.75C8.00131 7.94851 8.08075 8.13851 8.22112 8.27888C8.36149 8.41925 8.55149 8.49869 8.75 8.5Z" fill="#181818"/>
</g>
</svg>
