<svg width="24" height="24" viewBox="0 0 24 24" fill="none" xmlns="http://www.w3.org/2000/svg">
<path d="M21.5628 10.74L20.2028 9.16C19.9428 8.86 19.7328 8.3 19.7328 7.9V6.2C19.7328 5.14 18.8628 4.27 17.8028 4.27H16.1028C15.7128 4.27 15.1428 4.06 14.8428 3.8L13.2628 2.44C12.5728 1.85 11.4428 1.85 10.7428 2.44L9.17281 3.81C8.87281 4.06 8.30281 4.27 7.91281 4.27H6.18281C5.12281 4.27 4.25281 5.14 4.25281 6.2V7.91C4.25281 8.3 4.04281 8.86 3.79281 9.16L2.44281 10.75C1.86281 11.44 1.86281 12.56 2.44281 13.25L3.79281 14.84C4.04281 15.14 4.25281 15.7 4.25281 16.09V17.8C4.25281 18.86 5.12281 19.73 6.18281 19.73H7.91281C8.30281 19.73 8.87281 19.94 9.17281 20.2L10.7528 21.56C11.4428 22.15 12.5728 22.15 13.2728 21.56L14.8528 20.2C15.1528 19.94 15.7128 19.73 16.1128 19.73H17.8128C18.8728 19.73 19.7428 18.86 19.7428 17.8V16.1C19.7428 15.71 19.9528 15.14 20.2128 14.84L21.5728 13.26C22.1528 12.57 22.1528 11.43 21.5628 10.74ZM16.1628 10.11L11.3328 14.94C11.1928 15.08 11.0028 15.16 10.8028 15.16C10.6028 15.16 10.4128 15.08 10.2728 14.94L7.85281 12.52C7.56281 12.23 7.56281 11.75 7.85281 11.46C8.14281 11.17 8.62281 11.17 8.91281 11.46L10.8028 13.35L15.1028 9.05C15.3928 8.76 15.8728 8.76 16.1628 9.05C16.4528 9.34 16.4528 9.82 16.1628 10.11Z" fill="#3CA5FA"/>
</svg>
