<svg preserveAspectRatio="none" width="100%" height="100%" overflow="visible" style="display: block;" viewBox="0 0 18.0312 18.0312" fill="none" xmlns="http://www.w3.org/2000/svg">
<g id="Group">
<path id="Vector" d="M9.01563 5.34763C6.99163 5.34763 5.34763 6.99163 5.34763 9.01563C5.34763 11.0396 6.99163 12.6876 9.01563 12.6876C11.0396 12.6876 12.6876 11.0396 12.6876 9.01563C12.6876 6.99163 11.0396 5.34763 9.01563 5.34763Z" fill="var(--fill-0, white)"/>
<path id="Vector_2" d="M14.0067 0H4.02457C1.80673 0 0 1.80673 0 4.02457V14.0067C0 16.2281 1.80673 18.0312 4.02457 18.0312H14.0067C16.2281 18.0312 18.0312 16.2281 18.0312 14.0067V4.02457C18.0312 1.80673 16.2281 0 14.0067 0ZM9.01562 14.8578C5.79524 14.8578 3.1735 12.236 3.1735 9.01562C3.1735 5.79524 5.79524 3.17711 9.01562 3.17711C12.236 3.17711 14.8578 5.79524 14.8578 9.01562C14.8578 12.236 12.236 14.8578 9.01562 14.8578ZM14.9804 4.23734C14.2988 4.23734 13.7434 3.68559 13.7434 3.00401C13.7434 2.32242 14.2988 1.76706 14.9804 1.76706C15.6619 1.76706 16.2173 2.32242 16.2173 3.00401C16.2173 3.68559 15.6619 4.23734 14.9804 4.23734Z" fill="var(--fill-0, white)"/>
</g>
</svg>
