<svg width="226" height="94" viewBox="0 0 226 94" fill="none" xmlns="http://www.w3.org/2000/svg">
<path d="M226 57.748C226 62.2368 223.7 65.6127 219.768 67.1707L223.514 76.0741H216.54L213.35 68.2095H210.048L208.787 76.0741H201.775L205.893 50.106H216.911C223.366 50.106 226 53.0737 226 57.748ZM211.94 56.1899L211.013 62.1255H214.759C217.245 62.1255 218.692 60.79 218.692 58.7125C218.692 57.1174 217.801 56.1899 215.724 56.1899H211.94Z" fill="#FF6701"/>
<path d="M180.256 76.0741L184.374 50.106H202.811L201.847 56.1899H190.421L189.716 60.3077H200.029L199.176 65.761H188.862L188.269 69.9901H200.103L199.064 76.0741H180.256Z" fill="#FF6701"/>
<path d="M147.204 76.0741L144.682 50.106H151.916L152.732 66.132H152.991L159.669 50.106H166.829L168.461 66.132H168.758L174.619 50.106H181.853L171.169 76.0741H163.861L161.858 58.9351L154.475 76.0741H147.204Z" fill="#FF6701"/>
<path d="M127.508 76.4445C120.46 76.4445 116.453 71.8815 116.453 65.0927C116.453 56.7829 122.278 49.7715 130.847 49.7715C137.97 49.7715 141.865 54.2232 141.865 60.9749C141.865 69.396 136.078 76.4445 127.508 76.4445ZM128.028 70.3976C132.554 70.3976 134.631 65.4266 134.631 61.1975C134.631 57.7103 133.295 55.8184 130.365 55.8184C125.876 55.8184 123.687 60.6039 123.687 64.8701C123.687 68.3944 125.06 70.3976 128.028 70.3976Z" fill="#FF6701"/>
<path d="M90.9199 76.0741L95.0377 50.106H106.056C112.511 50.106 115.145 53.0737 115.145 57.748C115.145 64.0917 110.544 68.2095 103.199 68.2095H99.1926L97.9313 76.0741H90.9199ZM100.157 62.1255H103.904C106.39 62.1255 107.836 60.79 107.836 58.7125C107.836 57.1174 106.946 56.1899 104.869 56.1899H101.085L100.157 62.1255Z" fill="#FF6701"/>
<path d="M191.645 43.589C184.893 43.589 180.739 40.5099 181.74 34.1663H189.048C188.9 36.1325 189.865 37.8018 192.832 37.8018C195.021 37.8018 196.505 37.0228 196.505 35.2792C196.505 34.2034 196.06 33.4614 193.537 32.9792L190.458 32.3856C187.082 31.755 183.743 30.4195 183.743 25.9307C183.743 20.2177 189.048 16.916 195.578 16.916C201.699 16.916 205.891 19.587 204.926 25.4855H197.655C198.174 23.2597 196.171 22.7032 194.539 22.7032C192.461 22.7032 191.237 23.5564 191.237 25.1145C191.237 25.8194 191.348 26.7839 193.611 27.1549L196.357 27.6743C202.255 28.7872 204.073 30.9017 204.073 34.2405C204.073 40.2874 198.545 43.589 191.645 43.589Z" fill="white"/>
<path d="M159.332 43.2182L163.45 17.25H181.887L180.923 23.334H169.497L168.792 27.4518H179.105L178.252 32.9051H167.939L167.345 37.1342H179.179L178.14 43.2182H159.332Z" fill="white"/>
<path d="M132.705 43.2182L136.823 17.25H143.983L150.104 31.6809H150.289L152.626 17.25H159.638L155.52 43.2182H148.063L142.054 29.3066H141.905L139.716 43.2182H132.705Z" fill="white"/>
<path d="M121.871 43.2182L125.989 17.25H133L128.882 43.2182H121.871Z" fill="white"/>
<path d="M95.8613 43.2182L99.9791 17.25H110.478C117.267 17.25 120.902 20.8855 120.902 28.0453C120.902 36.6519 115.931 43.2182 106.731 43.2182H95.8613ZM103.874 37.1342H106.62C112.11 37.1342 113.779 33.0535 113.779 28.3792C113.779 24.5211 112.629 23.334 108.957 23.334H106.026L103.874 37.1342Z" fill="white"/>
<g clip-path="url(#clip0_1030_51420)">
<g clip-path="url(#clip1_1030_51420)">
<path d="M86.7408 8.72353C87.0524 6.95231 85.8587 5.26727 84.0844 4.97372L57.2912 0.540878C55.5422 0.251514 53.8864 1.42452 53.5793 3.17047L40.2923 78.7069C39.9808 80.4781 41.1745 82.1632 42.9488 82.4567L69.7419 86.8896C71.4909 87.1789 73.1467 86.0059 73.4538 84.26L86.7408 8.72353Z" fill="#272727"/>
<path d="M46.7135 15.0023C47.025 13.2311 45.8313 11.5461 44.057 11.2525L17.2639 6.81969C15.5149 6.53032 13.8591 7.70333 13.552 9.44929L0.265014 84.9857C-0.046545 86.757 1.14717 88.442 2.92146 88.7355L29.7146 93.1684C31.4636 93.4577 33.1194 92.2847 33.4265 90.5388L46.7135 15.0023Z" fill="#FF6701"/>
<path d="M55.4926 28.0658C57.2478 27.7382 58.9363 28.8955 59.2639 30.6508L64.0093 56.0762C64.3369 57.8315 63.1796 59.52 61.4243 59.8476C59.6691 60.1752 57.9806 59.0178 57.653 57.2626L55.8735 47.728L31.7193 52.2362L33.4988 61.7707C33.8264 63.526 32.6691 65.2145 30.9138 65.5421C29.1586 65.8697 27.4701 64.7123 27.1425 62.9571L22.3971 37.5316C22.0695 35.7764 23.2268 34.0879 24.9821 33.7603C26.7373 33.4327 28.4258 34.59 28.7534 36.3453L30.5329 45.8798L54.6871 41.3717L52.9076 31.8371C52.58 30.0819 53.7373 28.3934 55.4926 28.0658Z" fill="white"/>
<path d="M17.9476 38.3621C19.3518 38.1 20.7026 39.0259 20.9647 40.4301L24.761 60.7704C25.0231 62.1746 24.0972 63.5254 22.693 63.7875C21.2888 64.0496 19.938 63.1237 19.6759 61.7195L15.8796 41.3792C15.6175 39.975 16.5434 38.6242 17.9476 38.3621Z" fill="white"/>
<path d="M63.7134 29.8203C65.1176 29.5583 66.4684 30.4841 66.7305 31.8883L70.5268 52.2287C70.7889 53.6329 69.863 54.9837 68.4588 55.2458C67.0546 55.5078 65.7038 54.582 65.4417 53.1778L61.6454 32.8374C61.3833 31.4332 62.3092 30.0824 63.7134 29.8203Z" fill="white"/>
<path d="M13.485 45.9494C14.1871 45.8184 14.8625 46.2813 14.9935 46.9834L16.8917 57.1536C17.0228 57.8557 16.5598 58.5311 15.8577 58.6621C15.1556 58.7932 14.4802 58.3302 14.3492 57.6281L12.451 47.458C12.32 46.7559 12.7829 46.0805 13.485 45.9494Z" fill="white"/>
<path d="M70.5487 35.5096C71.2508 35.3785 71.9262 35.8415 72.0572 36.5436L73.9554 46.7137C74.0864 47.4158 73.6235 48.0912 72.9214 48.2223C72.2193 48.3533 71.5439 47.8904 71.4129 47.1883L69.5147 37.0181C69.3837 36.316 69.8466 35.6406 70.5487 35.5096Z" fill="white"/>
</g>
</g>
<defs>
<clipPath id="clip0_1030_51420">
<rect width="86.5555" height="93.6039" fill="white"/>
</clipPath>
<clipPath id="clip1_1030_51420">
<rect width="87.8509" height="113.341" fill="white" transform="matrix(-0.949892 -0.312577 -0.312577 0.949892 102.656 6.75439)"/>
</clipPath>
</defs>
</svg>
