<svg width="106" height="44" viewBox="0 0 106 44" fill="none" xmlns="http://www.w3.org/2000/svg">
<path d="M106.001 27.0854C106.001 29.1907 104.922 30.7741 103.078 31.5049L104.835 35.6808H101.564L100.067 31.9921H98.5188L97.9272 35.6808H94.6387L96.57 23.501H101.738C104.765 23.501 106.001 24.893 106.001 27.0854ZM99.4062 26.3546L98.9712 29.1385H100.729C101.894 29.1385 102.573 28.5121 102.573 27.5378C102.573 26.7896 102.155 26.3546 101.181 26.3546H99.4062Z" fill="#FF6701"/>
<path d="M84.5449 35.6808L86.4763 23.501H95.1239L94.6715 26.3546H89.3124L88.9818 28.2859H93.8189L93.4187 30.8437H88.5816L88.3032 32.8272H93.8537L93.3665 35.6808H84.5449Z" fill="#FF6701"/>
<path d="M69.0426 35.6808L67.8594 23.501H71.2523L71.6351 31.0177H71.7569L74.8888 23.501H78.247L79.0126 31.0177H79.1517L81.9009 23.501H85.2938L80.2827 35.6808H76.855L75.9154 27.6422L72.4529 35.6808H69.0426Z" fill="#FF6701"/>
<path d="M59.8041 35.8548C56.4982 35.8548 54.619 33.7146 54.619 30.5305C54.619 26.633 57.3508 23.3445 61.3701 23.3445C64.7108 23.3445 66.5378 25.4324 66.5378 28.5991C66.5378 32.5489 63.8234 35.8548 59.8041 35.8548ZM60.0477 33.0187C62.1705 33.0187 63.1448 30.6871 63.1448 28.7035C63.1448 27.068 62.5185 26.1806 61.1439 26.1806C59.0385 26.1806 58.012 28.4251 58.012 30.4261C58.012 32.0791 58.6557 33.0187 60.0477 33.0187Z" fill="#FF6701"/>
<path d="M42.6445 35.6808L44.5759 23.501H49.7436C52.7711 23.501 54.0065 24.893 54.0065 27.0854C54.0065 30.0607 51.8489 31.9921 48.4038 31.9921H46.5247L45.9331 35.6808H42.6445ZM46.977 29.1385H48.7344C49.9002 29.1385 50.5788 28.5121 50.5788 27.5378C50.5788 26.7896 50.1612 26.3546 49.1868 26.3546H47.412L46.977 29.1385Z" fill="#FF6701"/>
<path d="M89.8871 20.4446C86.7204 20.4446 84.7716 19.0004 85.2414 16.0251H88.6691C88.5995 16.9473 89.0519 17.7303 90.4439 17.7303C91.4705 17.7303 92.1665 17.3649 92.1665 16.5471C92.1665 16.0425 91.9577 15.6945 90.7745 15.4683L89.3303 15.1899C87.7469 14.8941 86.181 14.2677 86.181 12.1624C86.181 9.48283 88.6691 7.93427 91.7315 7.93427C94.6024 7.93427 96.5686 9.18704 96.1162 11.9536H92.7058C92.9494 10.9096 92.0099 10.6486 91.2443 10.6486C90.2699 10.6486 89.6957 11.0488 89.6957 11.7796C89.6957 12.1102 89.7479 12.5626 90.8093 12.7366L92.0969 12.9802C94.8634 13.5022 95.716 14.4939 95.716 16.0599C95.716 18.896 93.1234 20.4446 89.8871 20.4446Z" fill="#181818"/>
<path d="M74.7305 20.2706L76.6619 8.09085H85.3095L84.8571 10.9444H79.498L79.1674 12.8758H84.0045L83.6044 15.4335H78.7673L78.4889 17.4171H84.0393L83.5522 20.2706H74.7305Z" fill="#181818"/>
<path d="M62.2421 20.2706L64.1735 8.09085H67.5316L70.4026 14.8593H70.4896L71.5857 8.09085H74.8743L72.9429 20.2706H69.4456L66.6268 13.7457H66.5572L65.5307 20.2706H62.2421Z" fill="#181818"/>
<path d="M57.1599 20.2706L59.0912 8.09085H62.3797L60.4484 20.2706H57.1599Z" fill="#181818"/>
<path d="M44.9608 20.2706L46.8922 8.09085H51.8163C55.0004 8.09085 56.7056 9.79602 56.7056 13.1541C56.7056 17.1909 54.374 20.2706 50.0589 20.2706H44.9608ZM48.7191 17.4171H50.0067C52.5819 17.4171 53.3648 15.5031 53.3648 13.3107C53.3648 11.5012 52.8255 10.9444 51.1029 10.9444H49.7283L48.7191 17.4171Z" fill="#181818"/>
<g clip-path="url(#clip0_909_5447)">
<g clip-path="url(#clip1_909_5447)">
<path d="M40.6838 4.09205C40.83 3.26131 40.2701 2.47098 39.4379 2.3333L26.8712 0.254177C26.0509 0.118458 25.2743 0.668631 25.1302 1.48753L18.8983 36.9161C18.7521 37.7469 19.312 38.5372 20.1442 38.6749L32.7109 40.754C33.5312 40.8897 34.3078 40.3396 34.4519 39.5207L40.6838 4.09205Z" fill="#181818"/>
<path d="M21.9104 7.0366C22.0565 6.20586 21.4966 5.41553 20.6645 5.27785L8.09775 3.19873C7.27744 3.06301 6.50082 3.61318 6.35678 4.43208L0.124837 39.8607C-0.0212939 40.6914 0.538592 41.4818 1.37078 41.6194L13.9375 43.6986C14.7578 43.8343 15.5344 43.2841 15.6785 42.4652L21.9104 7.0366Z" fill="#FF6701"/>
<path d="M26.0274 13.1636C26.8507 13.0099 27.6426 13.5528 27.7963 14.376L30.022 26.3012C30.1757 27.1245 29.6328 27.9164 28.8096 28.0701C27.9863 28.2237 27.1944 27.6809 27.0407 26.8576L26.2061 22.3857L14.8771 24.5001L15.7118 28.9721C15.8654 29.7953 15.3226 30.5873 14.4993 30.7409C13.6761 30.8946 12.8841 30.3518 12.7305 29.5285L10.5047 17.6033C10.3511 16.7801 10.8939 15.9881 11.7172 15.8344C12.5404 15.6808 13.3324 16.2236 13.486 17.0469L14.3207 21.5188L25.6496 19.4044L24.815 14.9324C24.6613 14.1092 25.2042 13.3172 26.0274 13.1636Z" fill="white"/>
<path d="M8.41784 17.9928C9.07645 17.8699 9.71001 18.3042 9.83293 18.9628L11.6135 28.5029C11.7364 29.1615 11.3022 29.7951 10.6436 29.918C9.98495 30.0409 9.35139 29.6067 9.22847 28.9481L7.44789 19.4079C7.32497 18.7493 7.75923 18.1157 8.41784 17.9928Z" fill="white"/>
<path d="M29.8832 13.9865C30.5418 13.8636 31.1754 14.2979 31.2983 14.9565L33.0789 24.4966C33.2018 25.1552 32.7675 25.7888 32.1089 25.9117C31.4503 26.0346 30.8168 25.6004 30.6938 24.9418L28.9132 15.4016C28.7903 14.743 29.2246 14.1094 29.8832 13.9865Z" fill="white"/>
<path d="M6.32476 21.5515C6.65406 21.49 6.97084 21.7072 7.0323 22.0365L7.92259 26.8065C7.98405 27.1358 7.76692 27.4526 7.43762 27.5141C7.10831 27.5755 6.79153 27.3584 6.73007 27.0291L5.83978 22.259C5.77832 21.9297 5.99545 21.6129 6.32476 21.5515Z" fill="white"/>
<path d="M33.0891 16.6549C33.4184 16.5934 33.7352 16.8106 33.7967 17.1399L34.687 21.91C34.7484 22.2393 34.5313 22.556 34.202 22.6175C33.8727 22.679 33.5559 22.4618 33.4945 22.1325L32.6042 17.3625C32.5427 17.0331 32.7598 16.7164 33.0891 16.6549Z" fill="white"/>
</g>
</g>
<defs>
<clipPath id="clip0_909_5447">
<rect width="40.5968" height="43.9027" fill="white"/>
</clipPath>
<clipPath id="clip1_909_5447">
<rect width="41.2044" height="53.1598" fill="white" transform="matrix(-0.949892 -0.312577 -0.312577 0.949892 48.1484 3.16809)"/>
</clipPath>
</defs>
</svg>
