<svg preserveAspectRatio="none" width="100%" height="100%" overflow="visible" style="display: block;" viewBox="0 0 164 64" fill="none" xmlns="http://www.w3.org/2000/svg">
<g id="image 162 [Vectorized]">
<g id="Vector">
<path d="M93.3239 25.0668C93.4302 25.0537 93.5376 25.0449 93.6445 25.0403C96.4807 24.9469 100.627 24.8445 102.827 26.8635C103.425 27.4119 104.023 28.4584 104.121 29.2357C104.189 29.7765 101.682 31.4979 101.307 31.9979C101.254 32.0685 101.054 32.271 101.077 32.359C101.302 33.2087 102.592 34.3709 102.886 35.1775C102.831 35.6439 101.91 36.6837 101.667 36.9476C100.191 38.5516 97.27 39.7656 95.0866 39.8232C94.5395 39.8618 93.861 39.9786 93.3262 39.9779C90.4317 39.9832 86.2652 40.2347 83.9956 38.1241C81.3636 35.677 82.9993 30.351 85.1508 28.1205C87.3035 25.8891 90.3299 25.1246 93.3239 25.0668ZM93.2338 36.3456C96.0975 36.1675 97.656 33.6242 97.5805 30.9282C97.5587 30.1537 97.2874 29.703 96.7034 29.2398C95.956 28.5752 94.7085 28.5702 93.7496 28.5881C92.1586 28.9207 91.1372 29.2159 90.2186 30.637C89.5148 31.7266 89.1149 33.2891 89.3537 34.5582C89.6441 36.0993 91.3195 36.4157 92.647 36.3896C92.849 36.3856 93.0207 36.3386 93.2338 36.3456Z" fill="var(--fill-0, #5C5C5C)"/>
<path d="M71.0579 25.0707C71.1973 25.0577 71.3371 25.048 71.4771 25.0419C74.3913 24.928 81.4818 24.7505 81.634 28.9415C81.6407 29.1257 81.6424 29.3789 81.508 29.5219C81.0736 29.7004 75.5182 29.6205 74.6199 29.6204C74.3846 29.1416 74.4197 29.1296 74.1019 28.6894C73.9157 28.6112 73.2 28.3122 73.0445 28.2999C72.1656 28.237 71.2257 28.1714 70.3715 28.4274C69.9698 28.5478 69.236 28.9832 69.4165 29.507C69.5809 29.9838 70.5266 29.9316 70.9798 30.0056C72.7892 30.3008 74.6227 30.5184 76.4383 30.7798C77.4643 30.925 78.4055 31.0698 79.3434 31.5096C80.0153 31.8247 80.7954 32.4881 80.9783 33.2123C81.213 34.1407 81.0246 35.343 80.5751 36.1866C79.3757 38.6132 76.576 39.4016 74.0835 39.7594C73.7141 39.8124 72.5767 39.8333 72.3591 39.9079L72.3472 39.912C72.1359 40.0148 68.6037 39.996 68.0939 39.9663C66.1394 39.8527 63.2818 39.6747 61.8714 38.1593C61.2804 37.5242 61.1082 36.7271 61.1587 35.8912C61.1705 35.6954 61.1938 35.5058 61.3529 35.3709C61.4439 35.2938 61.6045 35.2662 61.7214 35.2657C62.8089 35.2607 63.8961 35.2776 64.9841 35.2812C65.9737 35.2843 66.972 35.2476 67.96 35.2696C68.7959 35.2882 68.4494 35.6183 69.0043 36.2558C69.6461 36.4119 70.189 36.5661 70.9393 36.5819C71.819 36.6004 73.4203 36.3467 73.6399 35.2917C73.6833 35.0833 73.455 34.8584 73.3041 34.7095C72.3704 34.4459 71.8801 34.4273 70.9417 34.2946C69.7935 34.1343 68.6311 33.9574 67.4861 33.7917C66.1537 33.5989 65.039 33.5861 63.8458 32.8367C61.9128 31.6228 62.6756 28.7262 63.9737 27.3706C65.6462 25.6239 68.733 25.1253 71.0579 25.0707Z" fill="var(--fill-0, #5C5C5C)"/>
<path d="M45.9687 25.5463C46.4343 25.4753 48.1744 25.5062 48.7466 25.5064L59.8977 25.5052C60.4277 25.5052 62.137 25.4759 62.5918 25.5528L62.6504 25.6781C62.6529 25.9098 61.9398 28.7131 61.8269 28.8829C61.6467 29.0055 61.0953 29.0155 60.8588 29.0125C57.7733 28.9725 54.6384 29.0776 51.5576 28.9952C51.411 29.2355 50.7792 30.6535 51.2758 30.7658C51.7227 30.8669 52.5616 30.8195 53.0533 30.8187L57.6537 30.8084C58.478 30.8055 59.3083 30.7893 60.1312 30.8212C60.2762 30.8268 60.6514 30.8593 60.6205 31.0545C60.522 31.6753 60.3222 32.3157 60.1674 32.9232C60.0476 33.3939 60.13 34.2264 59.4337 34.2271C58.7297 34.2455 58.0304 34.2352 57.3284 34.2344L53.0651 34.23C52.6981 34.2305 50.4934 34.2139 50.3115 34.2565C50.2658 34.2948 50.227 34.3401 50.1966 34.3906C50.1278 34.5061 50.0404 34.6933 50.0058 34.8217C49.8767 35.2997 49.5353 36.0556 50.345 36.0438C53.1523 36.0029 55.957 36.0332 58.7644 36.0187C59.1678 36.0166 59.666 36.0045 60.0459 36.1306C60.2354 36.4075 59.4522 38.8615 59.3855 39.4792C55.4579 39.4096 51.4305 39.5275 47.4969 39.4769C46.5536 39.4648 43.383 39.5364 42.6641 39.3919C43.596 35.0788 44.7786 30.767 45.7514 26.4573C45.8207 26.1507 45.8712 25.8444 45.9687 25.5463Z" fill="var(--fill-0, #5C5C5C)"/>
<path d="M107.86 28.5311C108.3 28.4798 111.342 28.4674 111.611 28.6409C111.715 29.1714 110.106 35.4866 109.856 36.4798C109.128 36.5027 108.293 36.4861 107.557 36.4886L106.466 36.4901C106.134 36.0819 103.426 32.4922 103.632 32.2716C104.818 31.001 106.602 29.746 107.86 28.5311Z" fill="var(--fill-0, #5C5C5C)"/>
<path d="M147.093 29.123C146.906 29.1763 142.143 33.3399 141.652 33.8131C141.588 33.9671 141.556 34.1069 141.618 34.2677C141.766 34.6524 142.172 35.064 142.422 35.3983C142.76 35.8495 145.089 38.9195 145.129 39.2246C145.142 39.3237 145.109 39.3459 145.05 39.4193C144.829 39.4665 143.631 39.4641 143.294 39.4484C142.823 39.4264 139.714 39.5469 139.455 39.2781C139.12 38.9302 138.554 37.4624 138.149 37.0266C137.697 37.0405 135.619 39.4324 135.268 39.4111C134.209 39.347 123.87 39.6305 123.415 39.3634C123.09 38.7868 123.901 36.8094 123.696 35.9311C123.642 35.7035 123.525 35.5031 123.318 35.3776C122.898 35.1241 119.008 35.1101 118.427 35.2436C118.002 35.3411 117.607 38.6922 117.277 39.2088C117.218 39.3 117.137 39.3935 117.025 39.4175C116.311 39.5705 114.674 39.4341 113.865 39.4314C113.119 39.4289 112.355 39.4914 111.612 39.4442C111.441 39.4334 111.266 39.4185 111.117 39.3275C111.108 39.087 111.492 37.5565 111.559 37.278L112.467 33.4628L113.772 27.9402C113.85 27.6158 114.278 25.7097 114.39 25.5906C114.712 25.4364 126.868 25.5215 128.175 25.5356C128.951 25.5439 130.941 25.7902 131.501 26.535C132.121 27.3592 132.269 27.9155 132.203 28.9162C132.104 30.3118 131.3 31.5688 130.058 32.2719C129.816 32.4103 129.411 32.4179 129.311 32.5307C129.319 32.6107 130.048 33.3988 130.162 33.5315C130.242 33.9249 130.267 34.3268 130.238 34.7268C130.16 35.849 129.632 37.6958 129.835 38.8548C129.85 38.9337 129.973 38.9589 130.047 38.9811C130.524 38.7142 135.602 34.4134 135.963 33.9919C136.165 33.7572 132.764 29.4796 132.882 29.0405C133.122 28.9422 137.569 28.9832 138.208 28.9815C138.295 29.191 139.357 31.0798 139.459 31.1024C139.893 30.8271 141.431 29.0006 141.767 29.0116C143.388 29.0643 145.54 28.8171 147.093 29.0147V29.123ZM124.56 31.4369C125.028 31.0285 125.337 30.7108 125.374 30.0424C125.386 29.8592 125.321 29.6792 125.194 29.5433C124.516 28.8153 121.052 29.191 119.935 29.0864C119.514 29.3612 119.506 30.0442 119.421 30.484C119.352 30.8405 119.082 31.2091 119.244 31.5647C119.416 31.7003 123.278 31.6057 123.775 31.6228C123.836 31.6249 124.373 31.4577 124.56 31.4369Z" fill="var(--fill-0, #5C5C5C)"/>
<path d="M20.9815 25.5069C22.0393 25.5217 29.0672 25.4354 29.4975 25.622C29.852 26.3086 29.6367 27.8186 29.78 28.4082C29.9359 29.0503 30.0512 33.0901 30.2201 33.306C30.7414 33.0514 33.7681 26.5115 34.7104 25.5053C35.7146 25.5293 42.8577 25.444 43.1621 25.6179C43.1761 26.1278 42.3218 29.5622 42.1494 30.2568C41.4047 33.2561 40.7605 36.3451 39.9989 39.3327C39.7727 39.5467 37.7409 39.489 37.3015 39.4624C36.6611 39.4237 34.8544 39.5826 34.3972 39.3847C34.3684 39.2659 34.7394 37.8214 34.7899 37.597C35.2955 35.3509 35.8836 33.1158 36.3496 30.8643C36.3952 30.6441 36.5952 30.5266 36.4402 30.27L36.3436 30.3173C36.2725 30.54 35.4691 31.8142 35.2913 32.1286L32.5628 37.0254C32.3062 37.4837 31.3762 39.0726 31.2331 39.4474C29.861 39.5199 27.8958 39.4805 26.4959 39.4551C26.1186 36.9362 26.0288 34.178 25.7637 31.6286C25.732 31.3234 25.6527 30.747 25.6675 30.4718L25.6125 30.4373C25.507 30.5478 25.3559 30.7161 25.24 30.8074C25.1999 31.5944 24.5657 33.9957 24.3495 34.9202L23.7249 37.5867C23.5729 38.2358 23.466 38.8466 23.2176 39.4648L17.6797 39.4693V38.8114C17.8331 38.6688 17.871 38.6507 17.918 38.4248C18.0516 37.7824 18.1984 37.1446 18.3484 36.5065L19.5283 31.4865L20.583 27.0388C20.6821 26.6208 20.9184 25.8459 20.9815 25.5069Z" fill="var(--fill-0, #5C5C5C)"/>
</g>
</g>
</svg>
