<svg preserveAspectRatio="none" width="100%" height="100%" overflow="visible" style="display: block;" viewBox="0 0 164 64" fill="none" xmlns="http://www.w3.org/2000/svg">
<g id="image 163 [Vectorized]">
<path id="Subtract" d="M37.6201 27.7898C37.6612 28.3289 37.7213 28.946 37.7207 29.4793L37.7227 29.4812C37.8052 29.8503 37.9461 31.9727 37.9863 32.4656C38.1674 34.5787 38.3345 36.693 38.4873 38.8084L42.8252 38.8094C43.1983 37.696 43.9529 35.9805 44.4053 34.8504C45.335 32.5275 46.2635 30.1547 47.2217 27.8465C46.6219 31.4019 46.0776 35.2274 45.583 38.8064L50.2139 38.8035C50.4627 37.2563 50.6996 35.1946 51.0234 33.7195C51.0499 33.8925 51.079 34.0657 51.1094 34.2381C52.1144 39.8935 58.7711 39.3103 62.9492 38.5252C59.5082 45.8509 51.2907 49.5092 43.7305 46.784C39.8558 45.4268 36.6712 42.5532 34.8809 38.7986L35.8027 38.8084C36.3566 35.583 36.824 32.3304 37.3867 29.1101L37.4873 28.4461C37.5235 28.237 37.5651 28.029 37.6201 27.7898ZM105.027 34.3094C104.88 35.3514 103.86 40.263 104.324 40.9187C104.443 41.0874 104.599 41.1875 104.799 41.2234C105.115 41.2802 105.484 41.2238 105.748 41.031C106 40.8472 106.119 40.57 106.214 40.2781C106.446 39.5585 106.515 38.7605 106.631 38.0125L107.196 34.3045L110.537 34.3055C110.503 34.8908 110.335 35.7974 110.241 36.3992C109.887 38.3741 109.907 41.2816 108.201 42.6111C106.559 43.8913 102.436 44.0787 101.137 42.2664C100.876 41.9044 100.716 41.4771 100.675 41.0301C100.586 40.0465 101.389 35.5718 101.591 34.3025L105.027 34.3094ZM76.2861 34.198C77.4611 34.0631 79.2633 34.2337 80.3965 34.4783L80.0352 36.9217C79.1426 36.481 78.6348 36.5068 77.5967 36.4363C75.3447 36.2834 73.4153 39.0805 74.9414 40.9461C75.3171 41.4054 76.1793 41.3105 76.7686 41.2801L77.1289 38.8094L80.0781 38.8152L79.9141 39.9637C79.7526 40.7688 79.543 42.302 79.4512 43.1043C78.91 43.2565 78.3592 43.3717 77.8027 43.448C76.0033 43.6926 73.7306 43.7766 72.2197 42.573C70.3863 41.1123 70.6676 38.1104 71.9951 36.3973C73.0821 34.9944 74.593 34.4006 76.2861 34.198ZM84.7021 38.0174C84.5823 38.7804 83.965 41.0065 85.0703 41.2215C86.7131 41.5412 86.7383 39.001 86.9199 37.7976L87.4561 34.3064L90.8115 34.3103C90.7408 34.9458 90.6106 35.6913 90.5146 36.3318C90.131 38.2898 90.1835 41.1636 88.5693 42.5184C86.7873 44.1342 80.9509 44.1833 80.9395 40.9363C80.9327 39.0164 81.5961 36.3057 81.8252 34.3064L85.2871 34.3055L84.7021 38.0174ZM114.933 34.2C116.105 34.0521 117.659 34.2622 118.823 34.4334C118.717 35.2206 118.592 36.0049 118.448 36.7859C118.283 36.7313 118.116 36.681 117.948 36.6355C117.256 36.4432 114.504 35.956 114.327 36.9363C114.619 38.001 118.503 37.5076 118.507 39.7596C118.512 42.7666 116.268 43.4204 113.854 43.5926C112.525 43.6158 111.296 43.4392 109.994 43.2059C110.049 42.4884 110.223 41.5475 110.337 40.8211C111.174 41.1333 114.648 41.9942 114.928 40.7537C114.689 40.0662 112.311 39.9046 111.502 39.1756C110.048 37.8658 110.864 35.8391 112.309 34.9021C113 34.4537 114.073 34.2854 114.933 34.2ZM91.7334 34.3035C93.3466 34.3169 98.2587 34.0119 99.541 34.7547C99.9374 34.9844 100.251 35.3353 100.373 35.7898C100.531 36.382 100.384 37.1526 100.09 37.6795C99.6014 38.5555 98.7503 38.8937 97.8496 39.1541C100.037 39.9807 99.2894 41.4831 99.5459 43.448L97.4326 43.451L95.96 43.449C95.9552 42.7238 96.2401 41.2112 95.7666 40.6414C95.4536 40.2655 94.6703 40.3365 94.2139 40.3426C94.12 41.2852 93.9049 42.5039 93.7471 43.449C92.6064 43.4611 91.4494 43.4476 90.3066 43.4441C90.8127 40.4231 91.2532 37.3362 91.7334 34.3035ZM94.4102 38.3016C95.0577 38.2957 95.8038 38.3331 96.4004 38.1014C97.9521 36.4832 95.7786 36.3215 94.6807 36.3455L94.4102 38.3016ZM60.6143 28.3074C61.8043 28.2003 62.9625 28.3789 64.0938 28.7498C64.3044 29.6808 64.3718 30.8857 64.3926 31.8338C63.045 31.8479 61.672 31.8332 60.3223 31.8328C60.1169 32.8502 59.949 34.2763 59.793 35.3318L59.7285 35.5066C59.1809 35.766 57.5708 35.5824 57.0947 35.1121C56.6242 34.7056 56.3189 34.0548 56.2891 33.407C56.1536 30.453 57.7987 28.5937 60.6143 28.3074ZM47.8877 16.0428C54.3542 15.5574 59.9225 19.1966 62.8652 24.948C58.0266 24.714 54.0933 25.0192 51.6191 29.8816C51.7028 28.7945 52.1587 26.2998 52.3418 25.0926C50.921 25.0667 49.4474 25.0852 48.0225 25.0838L44.71 25.0828C44.6144 25.3896 44.4613 25.77 44.3379 26.0691C43.4457 28.2319 42.6989 30.5406 41.7393 32.6687C41.6966 30.3933 41.3775 27.4185 41.1914 25.0877L34.793 25.0799C35.297 23.8696 36.3185 22.3377 37.1797 21.3611C40.0692 18.0845 43.6202 16.3602 47.8877 16.0428ZM108.969 21.6541C110.092 21.5335 111.075 21.6932 112.173 21.8728C112.044 22.6664 111.927 23.462 111.823 24.2596C111.013 24.0435 110.21 23.8959 109.358 24.0525C108.018 24.2461 106.803 25.7626 107.161 27.1668C107.649 29.0817 109.891 28.6155 111.194 28.3006L110.874 30.5017L110.839 30.6189C110.62 30.8468 110.015 30.879 109.683 30.9422C104.854 31.8599 101.758 28.1108 104.735 23.7635C105.594 22.5082 107.408 21.8154 108.969 21.6541ZM95.1895 21.7625L94.8818 23.784C94.5751 25.7588 94.4953 28.7519 92.8486 30.0486C91.1928 31.3523 87.0944 31.559 85.7686 29.7176C85.5216 29.371 85.3666 28.9654 85.3203 28.5398C85.2128 27.4993 86.0098 23.0644 86.2139 21.7596L89.6553 21.7674C89.5116 22.8877 88.5164 27.6732 88.9404 28.3504C89.052 28.529 89.2352 28.6285 89.4346 28.6687C89.7515 28.7327 90.1228 28.6878 90.3887 28.49C90.6068 28.3275 90.7353 28.0697 90.8203 27.8152C91.0747 27.0559 91.1478 26.2054 91.2676 25.4148C91.4465 24.195 91.6338 22.9765 91.8311 21.7596L95.1895 21.7625ZM99.5146 21.6551C100.542 21.4913 102.435 21.7206 103.458 21.9119C103.341 22.6741 103.231 23.484 103.065 24.2332C102.37 23.9772 99.014 23.329 98.9561 24.4285C99.3431 25.428 103.097 25.0046 103.128 27.1717C103.171 30.262 100.867 30.8564 98.4395 31.0525C96.9626 31.0371 96.0357 30.9592 94.5977 30.6248L94.957 28.2869C95.8212 28.5883 99.1742 29.4306 99.5947 28.2537C99.3077 27.026 95.6988 27.858 95.4307 25.3748C95.3341 24.5528 95.5722 23.7267 96.0898 23.0887C96.9313 22.0319 98.2636 21.7778 99.5146 21.6551ZM72.6455 21.7625C74.3343 21.7387 76.0838 21.7635 77.7773 21.7644C77.8021 23.1816 78.0326 25.3894 78.1475 26.8523C78.7596 25.1875 79.5302 23.4308 80.0898 21.7615L85.1973 21.7674C85.0156 22.6807 84.8646 23.8747 84.7197 24.8113L83.7676 30.907L80.6855 30.9051L81.6289 24.5555L81.7705 23.7283C81.4083 24.3731 80.9572 25.6136 80.668 26.3387L78.8389 30.908L75.958 30.9051C75.8792 28.9143 75.5745 25.5047 75.3389 23.531C74.9959 25.9454 74.567 28.495 74.166 30.9031C73.2006 30.9188 72.2007 30.9067 71.2324 30.908C71.4433 29.8204 71.615 28.5075 71.7881 27.4002C72.0918 25.524 72.3775 23.6444 72.6455 21.7625ZM116.296 21.7635L115.303 28.2059L119.514 28.2098C119.391 29.1112 119.255 30.0107 119.106 30.908L111.428 30.8992C111.937 27.9631 112.425 24.7127 112.844 21.7586L116.296 21.7635ZM128.836 21.7635C128.771 22.4172 128.608 23.2895 128.504 23.9539C127.026 23.9428 125.548 23.9446 124.07 23.9588C124.032 24.3512 123.941 24.8623 123.881 25.2596C125.284 25.2508 126.688 25.2559 128.091 25.2752C127.994 26.002 127.888 26.7278 127.773 27.4519L123.696 27.4529L123.56 27.5144C123.465 27.7562 123.402 28.4098 123.364 28.6961L127.842 28.7C127.766 29.4115 127.625 30.1939 127.512 30.906L119.654 30.9041C119.76 29.8713 120.024 28.4565 120.187 27.408C120.472 25.5227 120.769 23.6392 121.077 21.7576L128.836 21.7635Z" fill="var(--fill-0, #5C5C5C)"/>
</g>
</svg>
