<svg preserveAspectRatio="none" width="100%" height="100%" overflow="visible" style="display: block;" viewBox="0 0 24 24" fill="none" xmlns="http://www.w3.org/2000/svg">
<g id="chat (2) 1">
<path id="Vector" d="M21.75 12V20.26C21.75 20.68 21.54 21.06 21.2 21.3C20.99 21.44 20.74 21.52 20.5 21.52C20.34 21.52 20.18 21.49 20.04 21.43L16.94 19.79C16.68 19.77 16 19.75 15.81 19.75H11C9.48 19.75 8.25 18.52 8.25 17V15.92H15.25C17.49 15.92 19.25 13.76 19.25 11V9.26C20.65 9.39 21.75 10.56 21.75 12ZM17.75 5.666V10.999C17.75 12.915 16.652 14.416 15.25 14.416H6.84L4.265 17.359C4.041 17.614 3.745 17.751 3.441 17.751C3.317 17.751 3.193 17.729 3.071 17.683C2.573 17.495 2.251 16.965 2.251 16.332V5.666C2.251 3.751 3.349 2.25 4.751 2.25H15.251C16.653 2.25 17.75 3.751 17.75 5.666ZM11.75 10C11.75 9.586 11.414 9.25 11 9.25H6C5.586 9.25 5.25 9.586 5.25 10C5.25 10.414 5.586 10.75 6 10.75H11C11.414 10.75 11.75 10.414 11.75 10ZM14.75 7C14.75 6.586 14.414 6.25 14 6.25H6C5.586 6.25 5.25 6.586 5.25 7C5.25 7.414 5.586 7.75 6 7.75H14C14.414 7.75 14.75 7.414 14.75 7Z" fill="currentColor"/>
</g>
</svg>
