<svg preserveAspectRatio="none" width="100%" height="100%" overflow="visible" style="display: block;" viewBox="0 0 76.0935 76.1143" fill="none" xmlns="http://www.w3.org/2000/svg">
<g id="Frame 1948755232">
<path id="Vector" d="M35.2689 1.50389L34.3175 0.791803C33.1745 -0.0636937 31.5525 0.182247 30.7144 1.3381L30.0169 2.3002C29.3127 3.27157 28.0278 3.62278 26.9274 3.14473L25.8374 2.67124C24.528 2.10239 23.0063 2.71578 22.4575 4.03374L22.0006 5.13075C21.5394 6.23836 20.3701 6.87641 19.1891 6.66502L18.0193 6.45566C16.614 6.20412 15.2748 7.15189 15.0447 8.5609L14.8532 9.7337C14.6598 10.9178 13.6692 11.8083 12.4713 11.875L11.2848 11.941C9.85928 12.0204 8.77479 13.2514 8.87581 14.6755L8.95989 15.8609C9.04479 17.0577 8.2863 18.1526 7.136 18.4938L5.99671 18.8317C4.62796 19.2376 3.8566 20.6856 4.28332 22.048L4.6385 23.182C4.99711 24.327 4.51157 25.5673 3.47096 26.1645L2.44029 26.7561C1.20205 27.4667 0.785411 29.0535 1.51482 30.2808L2.12195 31.3024C2.73494 32.3338 2.54853 33.6526 1.6737 34.4737L0.807233 35.287C-0.233741 36.2641 -0.273207 37.9042 0.719571 38.9302L1.54592 39.7842C2.38025 40.6464 2.50301 41.9727 1.84113 42.9735L1.18556 43.9646C0.397972 45.1554 0.737813 46.7604 1.94044 47.5298L2.94146 48.1702C3.95214 48.8168 4.37747 50.0791 3.96421 51.2055L3.55489 52.3211C3.06315 53.6614 3.76397 55.1448 5.11161 55.6161L6.23334 56.0084C7.36589 56.4045 8.07084 57.5346 7.92849 58.7259L7.78749 59.9059C7.61809 61.3235 8.64212 62.6053 10.0621 62.7531L11.2441 62.8761C12.4374 63.0003 13.384 63.9374 13.5203 65.1295L13.6552 66.3101C13.8173 67.7286 15.1093 68.7397 16.5251 68.556L17.7036 68.4031C18.8934 68.2488 20.0306 68.9424 20.438 70.0709L20.8416 71.1886C21.3264 72.5314 22.8168 73.2173 24.1521 72.7121L25.2636 72.2915C26.3857 71.867 27.6522 72.2796 28.3089 73.2837L28.9594 74.2782C29.7408 75.473 31.3492 75.7967 32.532 74.9972L33.5165 74.3317C34.5105 73.6597 35.838 73.7692 36.7086 74.5948L37.5709 75.4125C38.6068 76.3949 40.2464 76.3389 41.213 75.2882L42.0175 74.4136C42.8297 73.5305 44.1467 73.3308 45.1842 73.9334L46.2118 74.5302C47.4464 75.2473 49.0289 74.8147 49.7271 73.5693L50.3082 72.5328C50.8949 71.4862 52.1303 70.9882 53.2788 71.3353L54.4164 71.679C55.783 72.092 57.2231 71.3061 57.6153 69.9334L57.9417 68.7907C58.2712 67.6371 59.3585 66.8676 60.5561 66.9404L61.7422 67.0126C63.1673 67.0993 64.3873 66.0024 64.4523 64.5762L64.5064 63.3891C64.561 62.1906 65.4415 61.1911 66.6236 60.9858L67.7945 60.7825C69.2011 60.5382 70.1353 59.1895 69.8697 57.7868L69.6485 56.6192C69.4253 55.4404 70.0515 54.2648 71.1544 53.7924L72.2468 53.3245C73.5592 52.7624 74.1572 51.2347 73.5752 49.931L73.0908 48.8459C72.6017 47.7503 72.9399 46.462 73.9042 45.748L74.8592 45.0408C76.0066 44.1912 76.2362 42.5668 75.3692 41.4325L74.6476 40.4883C73.919 39.535 73.951 38.2034 74.7246 37.2863L75.4908 36.378C76.4113 35.2867 76.2601 33.653 75.155 32.7492L74.2351 31.997C73.3063 31.2374 73.0303 29.9343 73.5716 28.8635L74.1076 27.8029C74.7517 26.5288 74.2278 24.9741 72.944 24.3495L71.8754 23.8296C70.7965 23.3048 70.2275 22.1004 70.5072 20.9337L70.7842 19.7781C71.117 18.3897 70.2487 16.9977 68.8555 16.6861L67.6958 16.4266C66.5249 16.1647 65.6935 15.1241 65.6966 13.9243L65.6997 12.7359C65.7034 11.3082 64.5375 10.154 63.1099 10.1721L61.9216 10.1871C60.7219 10.2022 59.673 9.38136 59.3993 8.21318L59.1282 7.05616C58.8025 5.66613 57.4019 4.81188 56.0169 5.15866L54.8642 5.4473C53.7003 5.73873 52.4903 5.18189 51.9546 4.10831L51.424 3.045C50.7865 1.76753 49.2266 1.25933 47.959 1.91615L46.9039 2.46285C45.8386 3.01483 44.5328 2.75205 43.7639 1.83096L43.0024 0.918671C42.0876 -0.177353 40.4525 -0.312118 39.3705 0.619325L38.4699 1.39462C37.5606 2.1774 36.2294 2.22284 35.2689 1.50389Z" fill="url(#paint0_linear_0_5)"/>
<g id="Vector_2" filter="url(#filter0_d_0_5)">
<path d="M14.7143 19.9978L17.423 21.0374L17.4457 21.0097L15.8896 18.5616L16.3311 18.022L18.2583 21.1932L17.7626 21.7989L14.2738 20.5361L14.7143 19.9978Z" fill="white"/>
<path d="M19.5386 19.7036L17.1341 17.1607L18.788 15.5968L19.1531 15.983L17.9599 17.1113L18.6127 17.8016L19.7203 16.7543L20.0854 17.1405L18.9778 18.1878L19.6342 18.8819L20.8373 17.7442L21.2025 18.1303L19.5386 19.7036Z" fill="white"/>
<path d="M21.7131 17.6702L19.6133 14.8703L20.6632 14.0829C20.8783 13.9216 21.0868 13.8236 21.2887 13.789C21.4915 13.7537 21.6808 13.7754 21.8567 13.8543C22.0328 13.9315 22.1879 14.0594 22.3218 14.2381C22.4565 14.4176 22.5351 14.6022 22.5577 14.7917C22.5804 14.9797 22.545 15.1651 22.4514 15.3478C22.357 15.5296 22.2023 15.7012 21.9872 15.8625L21.2394 16.4234L20.9236 16.0023L21.6031 15.4927C21.7289 15.3984 21.8189 15.3038 21.8731 15.209C21.9266 15.1134 21.9472 15.0174 21.9349 14.9213C21.9229 14.8235 21.8796 14.725 21.8051 14.6256C21.7306 14.5263 21.6474 14.4562 21.5556 14.4154C21.4631 14.3737 21.3631 14.3647 21.2555 14.3884C21.1473 14.4112 21.0298 14.4701 20.9031 14.5651L20.4383 14.9137L22.2203 17.2898L21.7131 17.6702ZM22.208 15.3167L23.8526 16.0656L23.2866 16.49L21.6543 15.732L22.208 15.3167Z" fill="white"/>
<path d="M23.0082 12.4895L24.8504 15.4651L24.3114 15.7989L22.4691 12.8232L23.0082 12.4895Z" fill="white"/>
<path d="M25.5302 15.0269L23.9513 11.9036L25.9521 10.8921L26.1919 11.3664L24.7568 12.0918L25.1855 12.9398L26.4833 12.2837L26.7231 12.758L25.4253 13.4141L26.096 14.7409L25.5302 15.0269Z" fill="white"/>
<path d="M27.5966 10.2012L28.8977 13.4501L28.3091 13.6858L27.0081 10.4369L27.5966 10.2012Z" fill="white"/>
<path d="M29.5457 13.1691L28.5221 9.82237L30.6988 9.15661L30.8542 9.66483L29.2838 10.1452L29.5617 11.0537L31.0194 10.6079L31.1748 11.1161L29.7172 11.562L29.9966 12.4754L31.58 11.9911L31.7355 12.4993L29.5457 13.1691Z" fill="white"/>
<path d="M33.7304 12.0604L32.5607 12.2562L31.9827 8.80453L33.176 8.60471C33.5187 8.54732 33.8246 8.56713 34.0938 8.66413C34.364 8.75981 34.5869 8.92521 34.7625 9.16031C34.9382 9.39541 35.0561 9.69218 35.1161 10.0506C35.1763 10.4102 35.1612 10.7303 35.0707 11.0112C34.9814 11.2918 34.8231 11.5222 34.5957 11.7023C34.3694 11.8823 34.0809 12.0017 33.7304 12.0604ZM33.0954 11.6105L33.6094 11.5244C33.8499 11.4842 34.0431 11.4068 34.1891 11.2922C34.3349 11.1765 34.4336 11.0243 34.4851 10.8355C34.5365 10.6455 34.5401 10.4185 34.4959 10.1545C34.4516 9.89042 34.3745 9.67809 34.2644 9.51748C34.1542 9.35575 34.0126 9.24488 33.8397 9.1849C33.6677 9.1236 33.4649 9.11252 33.2312 9.15165L32.6986 9.24084L33.0954 11.6105Z" fill="white"/>
<path d="M39.8766 9.09722C39.864 8.94765 39.7995 8.82995 39.6829 8.74412C39.5675 8.65832 39.4158 8.61328 39.2279 8.60901C39.0957 8.60601 38.982 8.62337 38.8865 8.66109C38.7911 8.69881 38.7175 8.75127 38.6659 8.81847C38.6142 8.88566 38.5868 8.9631 38.5837 9.05077C38.582 9.12367 38.5971 9.18725 38.6289 9.24153C38.6619 9.29584 38.707 9.34245 38.7642 9.38135C38.8215 9.41911 38.8851 9.45133 38.9552 9.47799C39.0252 9.50465 39.0959 9.52733 39.1673 9.54605L39.4934 9.6355C39.6249 9.66925 39.7509 9.7137 39.8716 9.76886C39.9934 9.82405 40.1018 9.8926 40.1968 9.97452C40.293 10.0565 40.3682 10.1545 40.4226 10.2685C40.477 10.3826 40.5025 10.5153 40.499 10.6668C40.4944 10.8718 40.4379 11.0512 40.3296 11.2048C40.2213 11.3573 40.067 11.4752 39.8669 11.5584C39.6679 11.6405 39.4283 11.6783 39.1481 11.672C38.8759 11.6658 38.6405 11.6183 38.4419 11.5295C38.2445 11.4407 38.0913 11.3141 37.9822 11.1498C37.8743 10.9856 37.8184 10.7871 37.8145 10.5546L38.4381 10.5688C38.4445 10.6908 38.4797 10.793 38.544 10.8754C38.6082 10.9578 38.6928 11.0201 38.7978 11.0624C38.904 11.1047 39.0231 11.1273 39.1552 11.1303C39.2931 11.1334 39.4143 11.1157 39.5188 11.077C39.6246 11.0373 39.7079 10.981 39.7688 10.9083C39.8297 10.8345 39.8619 10.7475 39.8653 10.6473C39.8662 10.5562 39.8412 10.4804 39.7901 10.42C39.7391 10.3584 39.6668 10.3066 39.5732 10.2646C39.4807 10.2215 39.3722 10.1826 39.2476 10.1478L38.8519 10.0363C38.5654 9.95572 38.3402 9.83836 38.1762 9.68422C38.0133 9.52897 37.9347 9.32605 37.9404 9.07549C37.9451 8.86934 38.005 8.69008 38.1201 8.53772C38.2364 8.38538 38.3923 8.2687 38.5879 8.18767C38.7835 8.10551 39.0037 8.0672 39.2486 8.07276C39.4969 8.0784 39.7134 8.12662 39.8983 8.21742C40.0842 8.3071 40.229 8.42947 40.3326 8.58452C40.4363 8.73843 40.4875 8.91395 40.4865 9.11106L39.8766 9.09722Z" fill="white"/>
<path d="M40.8701 11.6785L41.3477 8.21144L43.6026 8.52207L43.5301 9.04855L41.9033 8.82444L41.7736 9.76568L43.2837 9.9737L43.2111 10.5002L41.7011 10.2922L41.5707 11.2385L43.2111 11.4645L43.1386 11.9909L40.8701 11.6785Z" fill="white"/>
<path d="M43.9081 12.1247L44.7855 8.73675L45.3992 8.89569L44.6551 11.7692L46.1473 12.1556L46.014 12.6701L43.9081 12.1247Z" fill="white"/>
<path d="M46.8159 12.9041L48.0761 9.6391L48.6676 9.8674L47.5987 12.6366L49.0367 13.1916L48.8453 13.6874L46.8159 12.9041Z" fill="white"/>
<path d="M49.5875 13.9972L51.21 10.8963L53.2268 11.9515L52.9805 12.4224L51.5254 11.6611L51.0849 12.5029L52.4355 13.2096L52.1891 13.6805L50.8385 12.9738L50.3956 13.8202L51.8628 14.5879L51.6164 15.0588L49.5875 13.9972Z" fill="white"/>
<path d="M52.2089 15.389L54.1704 12.4906L55.2573 13.2262C55.48 13.3769 55.6406 13.542 55.7392 13.7215C55.8388 13.9017 55.88 14.0877 55.8629 14.2797C55.8473 14.4714 55.777 14.6597 55.6518 14.8447C55.526 15.0305 55.3772 15.1651 55.2054 15.2482C55.0351 15.3311 54.8483 15.3581 54.6451 15.3292C54.4424 15.2993 54.2298 15.2091 54.0071 15.0584L53.233 14.5345L53.5279 14.0986L54.2313 14.5746C54.3615 14.6627 54.4803 14.7169 54.5876 14.7373C54.6955 14.7567 54.7929 14.7449 54.8798 14.7018C54.9682 14.6585 55.0473 14.5855 55.1168 14.4826C55.1864 14.3798 55.2255 14.2783 55.2341 14.1782C55.2434 14.0772 55.2192 13.9797 55.1618 13.8857C55.1049 13.7909 55.0109 13.6991 54.8798 13.6103L54.3986 13.2847L52.734 15.7444L52.2089 15.389ZM54.5951 15.089L54.4238 16.8879L53.8379 16.4914L54.0219 14.7011L54.5951 15.089Z" fill="white"/>
<path d="M23.1392 58.9248L22.3801 61.7251L22.41 61.7448L24.6874 59.9481L25.269 60.3325L22.31 62.5718L21.657 62.1403L22.559 58.5412L23.1392 58.9248Z" fill="white"/>
<path d="M24.335 63.8238L25.8777 60.6824L27.9209 61.6857L27.6866 62.1628L26.2125 61.4389L25.7937 62.2917L27.162 62.9636L26.9277 63.4407L25.5595 62.7688L25.1384 63.6262L26.6247 64.3561L26.3905 64.8332L24.335 63.8238Z" fill="white"/>
<path d="M27.3573 65.2667L28.5328 61.9702L29.769 62.411C30.0222 62.5013 30.219 62.6211 30.3593 62.7703C30.5007 62.9199 30.5871 63.0898 30.6184 63.28C30.6513 63.4695 30.6302 63.6694 30.5552 63.8797C30.4798 64.0911 30.3693 64.2585 30.2237 64.382C30.0795 64.5047 29.9054 64.5775 29.7013 64.6003C29.4976 64.622 29.2692 64.5877 29.0159 64.4974L28.1355 64.1834L28.3123 63.6877L29.1122 63.973C29.2603 64.0258 29.3888 64.0486 29.4978 64.0415C29.6072 64.0333 29.6985 63.9976 29.7719 63.9342C29.8468 63.8702 29.905 63.7797 29.9467 63.6628C29.9884 63.5458 30.001 63.4378 29.9843 63.3387C29.968 63.2385 29.9203 63.1502 29.8412 63.0736C29.7624 62.9959 29.6485 62.9305 29.4993 62.8773L28.9521 62.6821L27.9545 65.4796L27.3573 65.2667ZM29.5929 64.3802L29.8763 66.1649L29.21 65.9273L28.941 64.1478L29.5929 64.3802Z" fill="white"/>
<path d="M32.1661 63.1412L31.2887 66.5292L30.675 66.3702L31.5524 62.9822L32.1661 63.1412Z" fill="white"/>
<path d="M32.3449 66.8053L32.9271 63.3543L35.1379 63.7272L35.0495 64.2512L33.4638 63.9838L33.3058 64.9207L34.7398 65.1626L34.6514 65.6866L33.2174 65.4447L32.9701 66.9107L32.3449 66.8053Z" fill="white"/>
<path d="M36.5957 63.8596L36.3161 67.3482L35.6842 67.2976L35.9637 63.809L36.5957 63.8596Z" fill="white"/>
<path d="M37.291 67.4354L37.2765 63.9357L39.5527 63.9263L39.5549 64.4577L37.9127 64.4645L37.9166 65.4146L39.4409 65.4083L39.4431 65.9398L37.9188 65.9461L37.9228 66.9013L39.5786 66.8945L39.5808 67.4259L37.291 67.4354Z" fill="white"/>
<path d="M42.0461 67.2232L40.8709 67.3829L40.3997 63.915L41.5986 63.7521C41.9429 63.7053 42.2481 63.7346 42.5142 63.8399C42.7813 63.9438 42.999 64.116 43.1673 64.3564C43.3356 64.5969 43.4442 64.8971 43.4932 65.2572C43.5423 65.6185 43.5173 65.938 43.4182 66.2159C43.3203 66.4937 43.1549 66.7191 42.922 66.8921C42.6902 67.065 42.3983 67.1754 42.0461 67.2232ZM41.4253 66.754L41.9417 66.6838C42.1833 66.651 42.3788 66.5796 42.5283 66.4696C42.6776 66.3585 42.7809 66.2094 42.8383 66.0222C42.8955 65.834 42.9061 65.6072 42.87 65.3419C42.834 65.0766 42.7634 64.862 42.6584 64.6981C42.5532 64.533 42.4151 64.4178 42.2441 64.3525C42.0741 64.2859 41.8717 64.2686 41.6369 64.3005L41.1018 64.3732L41.4253 66.754Z" fill="white"/>
<path d="M47.7816 63.2792C47.719 63.1428 47.6184 63.054 47.4796 63.0128C47.3419 62.9713 47.1839 62.9804 47.0057 63.0402C46.8804 63.0822 46.7793 63.1372 46.7023 63.205C46.6253 63.2729 46.574 63.3472 46.5482 63.428C46.5224 63.5087 46.5229 63.5909 46.5497 63.6744C46.5729 63.7435 46.6087 63.7982 46.657 63.8385C46.7065 63.8784 46.7647 63.9069 46.8318 63.9241C46.8984 63.9401 46.9692 63.9488 47.0442 63.9501C47.1191 63.9514 47.1933 63.9488 47.2668 63.9421L47.604 63.9156C47.739 63.9027 47.8727 63.9017 48.0049 63.9126C48.1382 63.9232 48.2635 63.9509 48.3806 63.9957C48.4989 64.0401 48.603 64.1068 48.6928 64.1956C48.7827 64.2844 48.8517 64.4006 48.8999 64.5443C48.9651 64.7387 48.9729 64.9266 48.9232 65.1079C48.8731 65.2881 48.768 65.4513 48.608 65.5975C48.4486 65.7423 48.2361 65.8592 47.9704 65.9484C47.7123 66.035 47.4747 66.0702 47.2578 66.054C47.042 66.0375 46.8549 65.9705 46.6965 65.853C46.5392 65.7351 46.4193 65.5674 46.3368 65.35L46.9281 65.1516C46.9755 65.2643 47.0434 65.3485 47.1318 65.4042C47.2201 65.4598 47.3209 65.4897 47.434 65.4938C47.5482 65.4976 47.668 65.4784 47.7933 65.4364C47.924 65.3926 48.0319 65.3347 48.1172 65.2629C48.2031 65.1896 48.2624 65.1084 48.295 65.0194C48.3273 64.9292 48.328 64.8365 48.2972 64.741C48.2672 64.655 48.2179 64.5922 48.1493 64.5527C48.0805 64.5122 47.9948 64.488 47.8925 64.4803C47.7909 64.4711 47.6756 64.4713 47.5467 64.4809L47.1366 64.5103C46.8398 64.5318 46.588 64.4979 46.3814 64.4086C46.1756 64.3178 46.0328 64.1536 45.9531 63.916C45.8875 63.7205 45.883 63.5316 45.9396 63.3492C45.9972 63.1664 46.1043 63.0037 46.2607 62.8611C46.4168 62.7174 46.6109 62.6066 46.8432 62.5287C47.0786 62.4498 47.2987 62.4216 47.5033 62.4443C47.7087 62.4655 47.8865 62.5314 48.0366 62.6421C48.1863 62.7517 48.2941 62.8994 48.36 63.0852L47.7816 63.2792Z" fill="white"/>
<path d="M49.9296 65.1917L48.4457 62.0221L50.5072 61.057L50.7325 61.5383L49.2452 62.2346L49.6481 63.0951L51.0286 62.4488L51.2539 62.9301L49.8734 63.5764L50.2784 64.4415L51.7781 63.7395L52.0035 64.2208L49.9296 65.1917Z" fill="white"/>
<path d="M53.0331 63.6835L51.1908 60.7078L51.7299 60.3741L53.2924 62.8979L54.6029 62.0865L54.8827 62.5384L53.0331 63.6835Z" fill="white"/>
<path d="M55.8906 61.8593L53.7191 59.1147L54.2163 58.7213L56.058 61.0492L57.2669 60.0928L57.5966 60.5096L55.8906 61.8593Z" fill="white"/>
<path d="M58.4934 59.7458L56.0246 57.2652L57.6379 55.6595L58.0128 56.0362L56.8488 57.1947L57.5191 57.8681L58.5995 56.7928L58.9744 57.1695L57.894 58.2448L58.5678 58.9219L59.7415 57.7538L60.1164 58.1305L58.4934 59.7458Z" fill="white"/>
<path d="M60.8296 57.3636L58.097 55.1769L58.917 54.1522C59.085 53.9423 59.2624 53.7954 59.4493 53.7114C59.6368 53.6266 59.8256 53.6004 60.0156 53.6328C60.2054 53.6636 60.3875 53.7488 60.5619 53.8883C60.7371 54.0285 60.8593 54.1876 60.9285 54.3655C60.9975 54.5418 61.0095 54.7302 60.9644 54.9305C60.9185 55.1301 60.8115 55.3349 60.6436 55.5448L60.0595 56.2746L59.6486 55.9458L60.1792 55.2827C60.2775 55.1599 60.341 55.0459 60.3698 54.9405C60.3978 54.8345 60.3938 54.7365 60.3579 54.6464C60.3218 54.5548 60.2552 54.4702 60.1583 54.3926C60.0613 54.315 59.9633 54.2679 59.8642 54.2514C59.7642 54.2341 59.6651 54.2504 59.5669 54.3002C59.4678 54.3493 59.3687 54.4356 59.2698 54.5593L58.9068 55.0129L61.2257 56.8686L60.8296 57.3636ZM60.721 54.9611L62.5005 55.2755L62.0585 55.8279L60.2886 55.5015L60.721 54.9611Z" fill="white"/>
<path d="M13.621 50.5085C13.8179 50.4071 13.9025 50.2603 14.0039 50.4572C15.5628 53.4857 17.6558 56.1641 20.1422 58.3867C20.307 58.5344 20.3206 58.7873 20.173 58.9524C20.0255 59.1173 19.7727 59.1319 19.6076 58.9844C17.0494 56.6976 14.8946 53.9417 13.29 50.8243C13.1889 50.6275 13.4242 50.6098 13.621 50.5085ZM65.7333 42.6258C65.7721 42.4081 65.9055 42.3703 66.1233 42.4085C66.3414 42.4471 66.5615 42.5481 66.523 42.7662C65.9137 46.2142 64.674 49.4801 62.9109 52.4187C62.797 52.6086 62.5501 52.6698 62.3602 52.5559C62.1705 52.4419 62.1093 52.1961 62.2232 52.0063C63.9368 49.1501 65.1414 45.9758 65.7333 42.6258ZM14.1849 23.2202C14.2989 23.0307 14.5448 22.9696 14.7345 23.0832C14.9244 23.1971 14.9868 23.4438 14.8729 23.6337C12.9753 26.7965 11.7015 30.3486 11.193 34.0983C11.163 34.3175 10.9784 34.0147 10.7591 33.985C10.5398 33.955 10.3689 34.209 10.3986 33.9897C10.922 30.13 12.2326 26.4742 14.1849 23.2202ZM56.9216 16.6867C57.0692 16.5216 57.3231 16.5069 57.4883 16.6545C60.3175 19.1836 62.6528 22.2865 64.2968 25.8175C64.3903 26.0183 64.0773 25.785 63.8765 25.8785C63.6758 25.9718 63.6627 26.3574 63.5692 26.1569C61.9721 22.7266 59.7035 19.7114 56.9539 17.2533C56.7888 17.1057 56.7741 16.8518 56.9216 16.6867Z" fill="white"/>
</g>
<g id="Verified Seller" filter="url(#filter1_d_0_5)">
<path d="M7.34246 39.6494L9.5316 43.9611L9.59073 43.9521L10.4006 39.1857L11.5495 39.0115L10.3908 45.0868L9.10107 45.2823L6.19638 39.8232L7.34246 39.6494Z" fill="var(--fill-0, white)"/>
<path d="M13.0249 44.6874L12.1505 38.9204L15.9013 38.3517L16.0341 39.2274L13.3279 39.6378L13.5653 41.2034L16.0771 40.8226L16.2099 41.6983L13.6981 42.0792L13.9368 43.6533L16.6654 43.2395L16.7982 44.1153L13.0249 44.6874Z" fill="var(--fill-0, white)"/>
<path d="M17.6829 43.9812L16.8085 38.2141L18.9711 37.8862C19.4142 37.8191 19.7975 37.8397 20.1213 37.9481C20.4468 38.0562 20.7077 38.2375 20.9037 38.492C21.1014 38.7443 21.2281 39.0545 21.2839 39.4224C21.34 39.7922 21.3098 40.1252 21.1934 40.4213C21.0785 40.7153 20.8803 40.9595 20.5987 41.1539C20.3168 41.3464 19.9543 41.4763 19.5112 41.5434L17.9709 41.777L17.8394 40.9097L19.2389 40.6975C19.498 40.6582 19.7047 40.5904 19.8591 40.494C20.0132 40.3957 20.1192 40.2712 20.1769 40.1203C20.2363 39.9672 20.2505 39.7884 20.2195 39.5838C20.1884 39.3792 20.1216 39.2107 20.019 39.0784C19.916 38.9442 19.7763 38.8521 19.5997 38.802C19.4228 38.7501 19.2039 38.7439 18.943 38.7835L17.9856 38.9287L18.7276 43.8228L17.6829 43.9812ZM20.2659 40.9163L22.0898 43.313L20.924 43.4897L19.1255 41.0892L20.2659 40.9163Z" fill="var(--fill-0, white)"/>
<path d="M22.852 37.2978L23.7264 43.0648L22.6817 43.2232L21.8073 37.4562L22.852 37.2978Z" fill="var(--fill-0, white)"/>
<path d="M24.6991 42.9173L23.8247 37.1503L27.5192 36.5902L27.652 37.4659L25.0022 37.8677L25.2396 39.4333L27.6359 39.07L27.7687 39.9457L25.3724 40.3091L25.7438 42.7589L24.6991 42.9173Z" fill="var(--fill-0, white)"/>
<path d="M29.3571 36.3115L30.2315 42.0785L29.1868 42.2369L28.3124 36.4699L29.3571 36.3115Z" fill="var(--fill-0, white)"/>
<path d="M31.2042 41.931L30.3298 36.164L34.0806 35.5953L34.2134 36.4711L31.5073 36.8814L31.7447 38.447L34.2565 38.0662L34.3893 38.9419L31.8775 39.3228L32.1161 40.8969L34.8448 40.4832L34.9775 41.3589L31.2042 41.931Z" fill="var(--fill-0, white)"/>
<path d="M37.8165 40.9285L35.8622 41.2248L34.9878 35.4578L36.9815 35.1555C37.5541 35.0687 38.0634 35.1095 38.5096 35.2781C38.9573 35.4445 39.3245 35.7259 39.6112 36.1222C39.8979 36.5185 40.0867 37.0161 40.1775 37.6149C40.2686 38.2157 40.2351 38.7488 40.0772 39.2145C39.9211 39.6799 39.6513 40.0597 39.2677 40.3541C38.8859 40.6482 38.4022 40.8397 37.8165 40.9285ZM36.7699 40.1625L37.6288 40.0322C38.0305 39.9713 38.3545 39.8473 38.6007 39.6602C38.8467 39.4712 39.0151 39.22 39.1058 38.9066C39.1963 38.5914 39.2081 38.2132 39.1412 37.772C39.0743 37.3309 38.9512 36.9751 38.772 36.7046C38.5924 36.4322 38.3593 36.2438 38.0727 36.1394C37.7877 36.0328 37.4499 36.0091 37.0594 36.0683L36.1696 36.2033L36.7699 40.1625Z" fill="var(--fill-0, white)"/>
<path d="M45.758 35.4466C45.6944 35.2046 45.5546 35.0299 45.3386 34.9225C45.1245 34.8148 44.8625 34.7844 44.5528 34.8314C44.335 34.8644 44.1532 34.9256 44.0073 35.0149C43.8615 35.1042 43.7558 35.2115 43.6903 35.3366C43.6248 35.4618 43.602 35.5968 43.6221 35.7416C43.6403 35.8618 43.6833 35.9618 43.7511 36.0418C43.8208 36.1215 43.9082 36.1851 44.0134 36.2325C44.1182 36.2781 44.232 36.3127 44.3546 36.3363C44.4773 36.36 44.5999 36.3769 44.7224 36.3871L45.2836 36.4403C45.509 36.458 45.7287 36.4948 45.9427 36.5507C46.1585 36.6063 46.3562 36.6877 46.5357 36.7949C46.717 36.9018 46.8687 37.0411 46.9908 37.2127C47.1128 37.3844 47.1928 37.595 47.2306 37.8447C47.2819 38.1826 47.2406 38.4932 47.1069 38.7766C46.9729 39.0581 46.7536 39.2959 46.4488 39.49C46.1457 39.6819 45.7632 39.8129 45.3014 39.8829C44.8527 39.9509 44.4527 39.9405 44.1012 39.8517C43.7516 39.7626 43.4637 39.5988 43.2374 39.3604C43.013 39.1218 42.8643 38.8121 42.7912 38.4314L43.819 38.2755C43.8645 38.4741 43.9518 38.6318 44.0809 38.7486C44.21 38.8654 44.3668 38.9434 44.5513 38.9826C44.7377 39.0216 44.9398 39.0245 45.1576 38.9915C45.3848 38.9571 45.5786 38.8931 45.7392 38.7996C45.9014 38.704 46.022 38.5877 46.1012 38.4509C46.18 38.3122 46.2078 38.1601 46.1846 37.9946C46.16 37.8447 46.0971 37.7275 45.9959 37.643C45.8945 37.5566 45.7609 37.4924 45.5951 37.4503C45.4309 37.406 45.2416 37.3733 45.0271 37.352L44.3454 37.2826C43.852 37.2326 43.4485 37.1046 43.1349 36.8986C42.823 36.6905 42.6357 36.3799 42.5731 35.9669C42.5216 35.6271 42.5684 35.3156 42.7137 35.0324C42.8608 34.7489 43.0833 34.5126 43.3811 34.3234C43.6786 34.1324 44.0292 34.0062 44.4328 33.945C44.842 33.883 45.2114 33.9 45.5409 33.9959C45.872 34.0898 46.1449 34.2491 46.3595 34.4739C46.5738 34.6968 46.7084 34.9702 46.7633 35.2942L45.758 35.4466Z" fill="var(--fill-0, white)"/>
<path d="M48.2489 39.3467L47.3745 33.5797L51.1253 33.011L51.2581 33.8867L48.552 34.297L48.7894 35.8627L51.3012 35.4818L51.434 36.3576L48.9222 36.7384L49.1608 38.3125L51.8895 37.8988L52.0223 38.7746L48.2489 39.3467Z" fill="var(--fill-0, white)"/>
<path d="M52.907 38.6404L52.0326 32.8734L53.0773 32.715L53.8189 37.6063L56.3589 37.2211L56.4916 38.0969L52.907 38.6404Z" fill="var(--fill-0, white)"/>
<path d="M57.2398 37.9835L56.3654 32.2164L57.4101 32.058L58.1517 36.9493L60.6917 36.5642L60.8244 37.44L57.2398 37.9835Z" fill="var(--fill-0, white)"/>
<path d="M61.5726 37.3265L60.6982 31.5595L64.449 30.9908L64.5818 31.8665L61.8757 32.2769L62.1131 33.8425L64.6249 33.4617L64.7576 34.3374L62.2458 34.7183L62.4845 36.2924L65.2131 35.8786L65.3459 36.7544L61.5726 37.3265Z" fill="var(--fill-0, white)"/>
<path d="M66.2306 36.6203L65.3562 30.8532L67.5189 30.5253C67.9619 30.4582 68.3453 30.4788 68.669 30.5872C68.9946 30.6953 69.2554 30.8766 69.4514 31.1311C69.6491 31.3834 69.7758 31.6936 69.8316 32.0615C69.8877 32.4313 69.8575 32.7643 69.7411 33.0604C69.6263 33.3544 69.428 33.5986 69.1464 33.793C68.8645 33.9855 68.502 34.1154 68.059 34.1825L66.5187 34.4161L66.3872 33.5488L67.7867 33.3366C68.0457 33.2973 68.2525 33.2295 68.4068 33.1331C68.5609 33.0348 68.6669 32.9103 68.7247 32.7594C68.784 32.6063 68.7982 32.4275 68.7672 32.2229C68.7362 32.0183 68.6693 31.8498 68.5667 31.7175C68.4638 31.5833 68.324 31.4912 68.1474 31.4411C67.9706 31.3892 67.7516 31.383 67.4907 31.4226L66.5333 31.5678L67.2753 36.4619L66.2306 36.6203ZM68.8137 33.5554L70.6376 35.9521L69.4718 36.1288L67.6732 33.7283L68.8137 33.5554Z" fill="var(--fill-0, white)"/>
</g>
<g id="Vector_3" filter="url(#filter2_d_0_5)">
<path d="M40.8448 58.6778C32.5068 59.9421 24.5668 56.1781 20.1042 49.6547L57.9784 43.9121C55.6501 51.4652 49.1827 57.4136 40.8448 58.6778Z" fill="white"/>
<path d="M3.30677 35.1664L16.8935 33.1064M70.5191 24.9756L56.1394 27.1558M5.48912 51.8706L20.1042 49.6547M73.3865 41.5759L57.9784 43.9121M56.1394 27.1558C51.9153 19.7308 43.4232 15.2936 34.4725 16.6507C25.5219 18.0078 18.7268 24.7629 16.8935 33.1064M56.1394 27.1558L16.8935 33.1064M20.1042 49.6547C24.5668 56.1781 32.5068 59.9421 40.8448 58.6778C49.1827 57.4136 55.6501 51.4652 57.9784 43.9121M20.1042 49.6547L57.9784 43.9121M27.5878 5.20178L26.5624 4.75632C25.3304 4.22115 23.8989 4.79822 23.3825 6.03816L22.9527 7.07024C22.5187 8.11227 21.4187 8.71255 20.3076 8.51368L19.2071 8.31671C17.885 8.08006 16.6251 8.97172 16.4086 10.2973L16.2284 11.4007C16.0464 12.5147 15.1145 13.3525 13.9875 13.4152L12.8712 13.4774C11.5301 13.552 10.5098 14.7102 10.6049 16.05L10.684 17.1652C10.7638 18.2911 10.0502 19.3212 8.96804 19.6422L7.89619 19.9601C6.60847 20.342 5.88277 21.7042 6.28423 22.986L6.61838 24.0529C6.95576 25.1301 6.49896 26.297 5.51996 26.8589L4.55031 27.4154C3.38537 28.0839 2.99339 29.5768 3.67962 30.7315L4.25081 31.6925C4.82751 32.6629 4.65214 33.9037 3.8291 34.6762L3.01392 35.4413C2.03457 36.3605 1.99744 37.9036 2.93145 38.8688L3.70888 39.6722C4.49382 40.4834 4.60931 41.7312 3.98661 42.6727L3.36986 43.6052C2.62889 44.7255 2.94861 46.2355 4.08005 46.9593L5.02181 47.5618C5.97266 48.1701 6.37281 49.3577 5.98401 50.4174L5.59893 51.467C5.13629 52.7279 5.79562 54.1235 7.06349 54.5669L8.11881 54.936C9.18432 55.3086 9.84754 56.3719 9.71361 57.4927L9.58096 58.6028C9.42159 59.9364 10.385 61.1423 11.7209 61.2814L12.8329 61.3972C13.9556 61.514 14.8462 62.3957 14.9744 63.5171L15.1013 64.6279C15.2538 65.9624 16.4693 66.9136 17.8013 66.7408L18.91 66.597C20.0294 66.4518 21.0993 67.1043 21.4826 68.166L21.8623 69.2175C22.3184 70.4809 23.7206 71.1261 24.9768 70.6508L26.0225 70.2552C27.0782 69.8558 28.2697 70.244 28.8876 71.1886L29.4995 72.1243C30.2347 73.2484 31.7478 73.5529 32.8606 72.8007L33.7869 72.1746C34.722 71.5424 35.9709 71.6454 36.79 72.4221L37.6012 73.1914C38.5758 74.1156 40.1184 74.063 41.0277 73.0744L41.7846 72.2516C42.5488 71.4208 43.7877 71.233 44.7638 71.7999L45.7306 72.3614C46.8921 73.036 48.381 72.629 49.0378 71.4574L49.5845 70.4822C50.1365 69.4976 51.2987 69.029 52.3793 69.3556L53.4495 69.679C54.7352 70.0675 56.0901 69.3281 56.459 68.0366L56.7661 66.9616C57.0761 65.8763 58.099 65.1523 59.2257 65.2209L60.3417 65.2888C61.6823 65.3703 62.8302 64.3384 62.8913 62.9966L62.9422 61.8798C62.9936 60.7522 63.822 59.8119 64.9341 59.6187L66.0356 59.4274C67.359 59.1976 68.2379 57.9288 67.988 56.6091L67.7799 55.5107C67.5699 54.4016 68.1591 53.2956 69.1967 52.8512L70.2244 52.411C71.4591 51.8822 72.0217 50.4449 71.4742 49.2184L71.0184 48.1975C70.5582 47.1668 70.8765 45.9547 71.7836 45.283L72.6821 44.6177C73.7616 43.8184 73.9776 42.2901 73.162 41.2229L72.4831 40.3347C71.7976 39.4378 71.8277 38.1851 72.5555 37.3222L73.2764 36.4677C74.1424 35.441 74.0001 33.9041 72.9604 33.0538L72.0949 32.346C71.2211 31.6314 70.9616 30.4055 71.4707 29.3981L71.9751 28.4003C72.581 27.2015 72.0881 25.7389 70.8803 25.1513L69.875 24.6622C68.8599 24.1684 68.3246 23.0353 68.5878 21.9376L68.8484 20.8504C69.1615 19.5443 68.3446 18.2347 67.0338 17.9415L65.9428 17.6974C64.8413 17.451 64.0591 16.472 64.062 15.3432L64.0649 14.2252C64.0683 12.882 62.9714 11.7961 61.6284 11.8131L60.5105 11.8272C59.3818 11.8415 58.3949 11.0692 58.1374 9.97019L57.8824 8.88167C57.576 7.57392 56.2582 6.77024 54.9553 7.09649L53.8708 7.36804C52.7758 7.64222 51.6374 7.11834 51.1334 6.10832L50.6343 5.10796C50.0345 3.90611 48.567 3.428 47.3744 4.04593L46.3817 4.56027C45.3795 5.07958 44.151 4.83235 43.4277 3.96578L42.7112 3.1075C41.8505 2.07636 40.3122 1.94957 39.2943 2.82588L38.447 3.55528C37.5916 4.29172 36.3392 4.33447 35.4355 3.65807L34.5404 2.98814C33.4651 2.18329 31.9391 2.41467 31.1507 3.50211L30.4944 4.40724C29.8319 5.32112 28.6231 5.65154 27.5878 5.20178Z" stroke="var(--stroke-0, white)" stroke-width="0.802028"/>
</g>
<path id="Vector_4" d="M40.8448 58.6778C32.5068 59.942 24.5668 56.1781 20.1042 49.6546L57.9784 43.912C55.6501 51.4651 49.1827 57.4136 40.8448 58.6778Z" fill="var(--fill-0, #212121)"/>
<path id="Vector_5" d="M56.1396 27.1559C51.9155 19.7308 43.4234 15.2936 34.4727 16.6507C25.5221 18.0078 18.727 24.7629 16.8937 33.1064L56.1396 27.1559Z" fill="var(--fill-0, #212121)"/>
</g>
<defs>
<filter id="filter0_d_0_5" x="10.1536" y="8.07223" width="56.6154" height="59.8463" filterUnits="userSpaceOnUse" color-interpolation-filters="sRGB">
<feFlood flood-opacity="0" result="BackgroundImageFix"/>
<feColorMatrix in="SourceAlpha" type="matrix" values="0 0 0 0 0 0 0 0 0 0 0 0 0 0 0 0 0 0 127 0" result="hardAlpha"/>
<feOffset dy="0.241593"/>
<feGaussianBlur stdDeviation="0.120797"/>
<feComposite in2="hardAlpha" operator="out"/>
<feColorMatrix type="matrix" values="0 0 0 0 0 0 0 0 0 0 0 0 0 0 0 0 0 0 0.5 0"/>
<feBlend mode="normal" in2="BackgroundImageFix" result="effect1_dropShadow_0_5"/>
<feBlend mode="normal" in="SourceGraphic" in2="effect1_dropShadow_0_5" result="shape"/>
</filter>
<filter id="filter1_d_0_5" x="5.95478" y="30.4868" width="64.9244" height="15.2788" filterUnits="userSpaceOnUse" color-interpolation-filters="sRGB">
<feFlood flood-opacity="0" result="BackgroundImageFix"/>
<feColorMatrix in="SourceAlpha" type="matrix" values="0 0 0 0 0 0 0 0 0 0 0 0 0 0 0 0 0 0 127 0" result="hardAlpha"/>
<feOffset dy="0.241593"/>
<feGaussianBlur stdDeviation="0.120797"/>
<feComposite in2="hardAlpha" operator="out"/>
<feColorMatrix type="matrix" values="0 0 0 0 0 0 0 0 0 0 0 0 0 0 0 0 0 0 0.5 0"/>
<feBlend mode="normal" in2="BackgroundImageFix" result="effect1_dropShadow_0_5"/>
<feBlend mode="normal" in="SourceGraphic" in2="effect1_dropShadow_0_5" result="shape"/>
</filter>
<filter id="filter2_d_0_5" x="1.61187" y="1.84219" width="72.8741" height="72.8936" filterUnits="userSpaceOnUse" color-interpolation-filters="sRGB">
<feFlood flood-opacity="0" result="BackgroundImageFix"/>
<feColorMatrix in="SourceAlpha" type="matrix" values="0 0 0 0 0 0 0 0 0 0 0 0 0 0 0 0 0 0 127 0" result="hardAlpha"/>
<feOffset dy="0.241593"/>
<feGaussianBlur stdDeviation="0.120797"/>
<feComposite in2="hardAlpha" operator="out"/>
<feColorMatrix type="matrix" values="0 0 0 0 0 0 0 0 0 0 0 0 0 0 0 0 0 0 0.5 0"/>
<feBlend mode="normal" in2="BackgroundImageFix" result="effect1_dropShadow_0_5"/>
<feBlend mode="normal" in="SourceGraphic" in2="effect1_dropShadow_0_5" result="shape"/>
</filter>
<linearGradient id="paint0_linear_0_5" x1="32.4016" y1="0.310695" x2="43.7969" y2="75.4664" gradientUnits="userSpaceOnUse">
<stop stop-color="#43ADFB"/>
<stop offset="1" stop-color="#2680EB"/>
</linearGradient>
</defs>
</svg>
