<svg preserveAspectRatio="none" width="100%" height="100%" overflow="visible" style="display: block;" viewBox="0 0 24 24" fill="none" xmlns="http://www.w3.org/2000/svg">
<g id="shield-check 3">
<circle id="Ellipse 3309" cx="12" cy="13" r="7" fill="var(--fill-0, white)"/>
<path id="Vector" d="M20.9245 6.49799C20.9247 6.34786 20.8947 6.19927 20.8361 6.06137C20.7776 5.92347 20.6918 5.79918 20.5841 5.69616C20.4764 5.59315 20.349 5.51358 20.2098 5.46237C20.0705 5.41115 19.9225 5.38938 19.7746 5.39839H19.5685C18.2249 5.41313 16.9021 5.0604 15.7396 4.37731C14.577 3.69422 13.6176 2.70604 12.9624 1.51681V1.45083C12.9213 1.39091 12.8741 1.33562 12.8214 1.2859C12.7727 1.23211 12.7181 1.18415 12.6587 1.14295L12.5827 1.07697H12.4743L12.2356 1H12.0295H11.8343C11.7593 1.01177 11.6863 1.03397 11.6173 1.06598H11.5088H11.4438C11.3846 1.1076 11.3301 1.15553 11.281 1.20892C11.2251 1.25959 11.1775 1.31898 11.14 1.38486C11.1157 1.40401 11.0938 1.42617 11.0749 1.45083C10.4184 2.6672 9.44993 3.68122 8.27185 4.38574C7.09377 5.09026 5.74984 5.45913 4.38204 5.45337H4.24102C4.09166 5.43338 3.93983 5.44516 3.79521 5.48794C3.65059 5.53072 3.51634 5.60356 3.40103 5.70184C3.28571 5.80011 3.19185 5.92166 3.12543 6.05873C3.05901 6.19581 3.02149 6.3454 3.01525 6.49799C3.01525 7.59758 3.01525 8.6422 3.01525 9.79678V10.2586C2.87921 13.049 3.6562 15.8068 5.22548 18.1034C6.79476 20.4001 9.06846 22.107 11.6932 22.959C11.7846 22.9866 11.8801 22.9978 11.9753 22.9919C12.0654 23.0027 12.1564 23.0027 12.2465 22.9919C14.8717 22.1399 17.1487 20.4382 18.728 18.148C20.3074 15.8578 21.1018 13.1056 20.9895 10.3136C20.9895 8.95009 20.9895 7.69655 20.9245 6.49799ZM16.5855 10.6215L11.5739 15.7016C11.4598 15.8199 11.318 15.9069 11.1617 15.9545C10.9668 16.1288 10.7166 16.2264 10.4566 16.2294C10.1721 16.2282 9.89935 16.1137 9.69731 15.9105L7.52781 13.7113C7.41426 13.6128 7.32203 13.4915 7.25692 13.355C7.19181 13.2186 7.15522 13.07 7.14945 12.9186C7.14368 12.7672 7.16885 12.6161 7.22339 12.475C7.27792 12.3339 7.36064 12.2058 7.46636 12.0986C7.57207 11.9915 7.6985 11.9076 7.8377 11.8523C7.9769 11.797 8.12587 11.7715 8.27526 11.7774C8.42465 11.7832 8.57123 11.8203 8.70581 11.8863C8.84039 11.9523 8.96006 12.0458 9.0573 12.1609L10.4892 13.6124L15.0126 9.02706C15.2201 8.84692 15.487 8.75278 15.76 8.76347C16.033 8.77416 16.292 8.88889 16.4852 9.08472C16.6784 9.28055 16.7916 9.54307 16.8021 9.81981C16.8126 10.0966 16.7198 10.3671 16.5421 10.5775L16.5855 10.6215Z" fill="var(--fill-0, #00B638)"/>
</g>
</svg>
