<svg preserveAspectRatio="none" width="100%" height="100%" overflow="visible" style="display: block;" viewBox="0 0 164 64" fill="none" xmlns="http://www.w3.org/2000/svg">
<g id="image 164 [Vectorized]">
<g id="Vector">
<path d="M91.5572 19.0057C92.452 18.965 93.2619 19.1356 93.9623 19.7576C96.582 22.0838 96.6452 27.4923 94.5866 30.2133C94.0014 30.9867 93.1542 31.5126 92.2219 31.6116C91.5107 31.7153 90.6073 31.4258 90.0464 30.9746C87.2605 28.7344 87.1266 23.4898 89.079 20.6517C89.6949 19.7566 90.526 19.1747 91.5572 19.0057ZM91.9264 28.1703C93.8551 27.8423 93.9404 23.9041 92.6331 22.7888C92.4657 22.646 92.1995 22.495 91.9779 22.4866C89.8375 22.6114 89.7524 27.8694 91.9264 28.1703Z" fill="#5C5C5C"/>
<path d="M100.418 19.4429C101.06 19.4341 101.753 19.4332 102.395 19.4402C103.164 19.4779 104.203 19.3349 104.932 19.6195C108.434 20.9878 108.449 27.7806 106.469 30.2425C106.371 30.3763 106.264 30.5027 106.149 30.621C104.981 31.822 103.707 31.6354 102.178 31.6029C101.603 31.5907 100.996 31.5949 100.418 31.5967C100.398 30.9069 100.411 30.1592 100.411 29.4648L100.41 25.7009C100.41 23.6756 100.366 21.4549 100.418 19.4429ZM102.831 27.9272C103.608 27.9287 104.277 28.0632 104.846 27.4764C104.872 27.4492 104.898 27.4211 104.922 27.3921C105.651 26.3745 105.582 24.215 104.554 23.394C104.113 23.0421 103.371 23.1394 102.826 23.1412L102.831 27.9272Z" fill="#5C5C5C"/>
<path d="M79.5026 19.4552L82.3895 19.4538C83.0275 19.4536 84.3399 19.3735 84.8796 19.5508C85.5343 19.766 86.0089 20.2656 86.3181 20.8746C86.9689 22.1558 86.9996 24.0645 86.5732 25.4201C86.315 26.2403 85.8854 26.8445 85.1284 27.2401L86.8897 31.1897L84.8324 31.1912L84.1931 31.1905C83.7528 30.1673 83.2756 29.1563 82.8308 28.135C82.7343 27.9136 82.5935 27.6402 82.5285 27.4119C82.2747 27.4021 81.987 27.4091 81.7306 27.4094C81.7639 28.6093 81.735 29.9693 81.7353 31.181C81.0315 31.2097 80.2141 31.1911 79.5018 31.1911C79.4762 30.3638 79.4908 29.482 79.4908 28.6513L79.4905 21.1941C79.4902 20.6683 79.4708 19.9719 79.5026 19.4552ZM81.7337 24.3685L83.1633 24.3705C83.5168 24.3713 84.1962 24.4296 84.4592 24.2001C84.6769 23.8687 84.6929 23.3553 84.6155 22.9687C84.5843 22.813 84.514 22.6455 84.3772 22.5572C84.0633 22.3546 82.2256 22.4547 81.7287 22.4498C81.7408 23.0592 81.7468 23.7595 81.7337 24.3685Z" fill="#5C5C5C"/>
<path d="M57.8959 19.004C57.9745 19.0015 58.0533 19.0002 58.132 19.0001C59.351 18.9941 60.8077 19.4573 61.4804 20.5535C61.9677 21.3476 62.0551 22.3881 62.0597 23.3007L59.5934 23.3064C59.5529 22.899 59.5034 22.6069 59.188 22.3092C58.4827 21.6433 56.6733 21.828 56.7498 23.066C56.8378 24.4897 58.6562 24.0227 59.5996 24.0904C61.2455 24.2084 61.9973 25.1911 62.0438 26.7846C62.0852 27.9633 62.0517 29.5011 61.2026 30.4402C60.49 31.2284 59.373 31.5731 58.3402 31.6318C58.2448 31.6337 58.1492 31.6326 58.0538 31.6286C57.0143 31.5903 55.8518 31.194 55.1131 30.4309C54.4043 29.6987 54.1923 28.3002 54.2307 27.3176C54.4578 27.2993 54.917 27.3121 55.163 27.312C55.698 27.3081 56.2331 27.3109 56.7681 27.3203C56.7137 28.3858 57.2134 28.779 58.2585 28.7676C59.0725 28.7587 59.6562 28.1149 59.5699 27.3112C59.5532 27.1554 59.5276 26.9428 59.4096 26.8106C58.8301 26.3112 57.8097 26.466 57.0619 26.453C55.1771 26.4203 54.3176 25.3311 54.2322 23.4912C54.1769 22.3002 54.2597 21.067 55.1129 20.0976C55.8713 19.2358 56.7705 19.0692 57.8959 19.004Z" fill="#5C5C5C"/>
<path d="M71.6566 19.4545C73.922 19.4128 76.3371 19.4533 78.6117 19.4514C78.5833 20.4909 78.6041 21.6032 78.6051 22.648C77.1174 22.6668 75.5925 22.65 74.1019 22.6498C74.1112 23.0043 74.1036 23.3872 74.1027 23.744L76.4211 23.7479C76.8738 23.7483 77.4347 23.7609 77.8778 23.7306C77.8749 24.7024 77.8403 25.9125 77.8913 26.8716C76.6368 26.8579 75.3576 26.867 74.1029 26.8713L74.1051 27.5732L74.1033 28.057C75.6077 28.0595 77.1108 28.0132 78.6143 28.024C78.5784 28.9768 78.5893 30.2393 78.6122 31.197L71.6564 31.197C71.6353 30.5354 71.6492 29.8101 71.6491 29.1443L71.6484 21.6346C71.6484 20.9234 71.6356 20.1614 71.6566 19.4545Z" fill="#5C5C5C"/>
<path d="M62.9462 19.4355C63.7307 19.4647 64.7442 19.4379 65.5516 19.438L70.7746 19.4364C70.738 19.7269 70.7557 20.4086 70.7559 20.7277L70.7595 23.1186C69.9411 23.1458 68.9569 23.1229 68.1243 23.1192C68.1427 23.7341 68.1277 24.4177 68.1278 25.0369L68.1278 28.671C68.127 29.5023 68.1146 30.3685 68.1371 31.1968L65.6018 31.197C65.5634 30.2974 65.5902 29.2494 65.5901 28.3331L65.5905 23.121L62.9475 23.122C62.9382 22.9267 62.9352 22.7299 62.9374 22.5344C62.9493 21.504 62.917 20.4652 62.9462 19.4355Z" fill="#5C5C5C"/>
<path d="M96.9325 19.4416C97.7844 19.4294 98.6639 19.44 99.519 19.4372L99.5219 31.197L96.9328 31.1965C96.8648 28.4021 96.9636 25.5697 96.9241 22.7715C96.9086 21.6814 96.9005 20.5302 96.9325 19.4416Z" fill="#5C5C5C"/>
<path d="M53.3477 33.811L109.106 33.8131V45.5692L53.3477 45.5725V33.811Z" fill="#5C5C5C"/>
<path d="M60.7539 35.999C61.625 35.9928 62.4962 35.9921 63.3673 35.9968C63.9535 37.3931 64.6858 38.9565 65.3154 40.3417C65.4434 40.041 65.671 39.2086 65.7714 38.8759L66.6364 35.998C67.4945 35.983 68.3901 35.9956 69.2511 35.9957C69.6503 37.4455 70.0959 38.9219 70.5163 40.3692C71.1559 38.9201 71.8568 37.4405 72.5245 35.9999C73.366 35.9786 74.2835 35.9955 75.129 35.998C74.8423 36.6604 74.5098 37.3525 74.2064 38.0113L71.5261 43.8275L68.9114 43.8302C68.5876 42.592 68.2559 41.3558 67.9164 40.1215L66.8852 43.8287L64.2731 43.8277L60.7539 35.999Z" fill="var(--fill-0, white)"/>
<path d="M92.0054 36.0082C92.9361 35.9692 94.1016 36.0019 95.0515 36.006C94.687 36.3903 94.2944 36.8571 93.9407 37.2574L91.8811 39.5893C92.5984 40.4895 93.3063 41.4202 94.0117 42.3311L95.1671 43.824C94.1712 43.8363 93.1552 43.8265 92.1576 43.8271C91.6469 43.1701 91.1646 42.4768 90.6588 41.814C90.3877 41.4589 90.1077 41.0861 89.8559 40.7183C89.8494 41.7549 89.8488 42.7916 89.8537 43.8283L87.3262 43.8279L87.3289 36.0049L89.8521 36.0043C89.8486 36.8539 89.8497 37.7034 89.8553 38.5529L92.0054 36.0082Z" fill="var(--fill-0, white)"/>
<path d="M79.5011 35.9894L82.0972 35.9893L82.098 43.8298L79.4934 43.8302L79.4922 38.7636C79.4921 37.8661 79.4697 36.8745 79.5011 35.9894Z" fill="var(--fill-0, white)"/>
<path d="M99.522 35.9903L102.135 35.9893L102.134 43.8276L99.5215 43.8302L99.522 35.9903Z" fill="var(--fill-0, white)"/>
</g>
</g>
</svg>
