<svg preserveAspectRatio="none" width="100%" height="100%" overflow="visible" style="display: block;" viewBox="0 0 164 64" fill="none" xmlns="http://www.w3.org/2000/svg">
<g id="Frame 1948755172">
<g id="Vector">
<path d="M52.8193 27.5039H65.2499V29.8115H60.3555V42.8197H57.6728V29.8115H52.7988L52.8193 27.5039ZM64.7174 31.7311H67.011V33.8753H67.052C67.1339 33.5689 67.2773 33.2831 67.4821 32.9972C67.6868 32.7113 67.9326 32.4458 68.2398 32.2212C68.5265 31.9761 68.8541 31.7923 69.2227 31.6494C69.5709 31.5064 69.9395 31.4247 70.3081 31.4247C70.5948 31.4247 70.7996 31.4452 70.902 31.4452C71.0044 31.4656 71.1273 31.486 71.2297 31.486V33.8344C71.0658 33.7936 70.8815 33.7732 70.6972 33.7527C70.5129 33.7323 70.3491 33.7119 70.1648 33.7119C69.7552 33.7119 69.3661 33.7936 68.9975 33.9569C68.6289 34.1203 68.3217 34.3654 68.035 34.6717C67.7688 34.9984 67.5435 35.3864 67.3797 35.8561C67.2158 36.3258 67.1339 36.8772 67.1339 37.4898V42.7584H64.6765L64.7174 31.7311ZM80.0765 42.8197V41.2677H80.0355C79.7283 41.8395 79.2778 42.2683 78.6839 42.6155C78.09 42.9626 77.4757 43.126 76.8613 43.126C75.4073 43.126 74.3424 42.7788 73.6871 42.0437C73.0318 41.3289 72.7041 40.2262 72.7041 38.7763V31.7311H75.1616V38.5313C75.1616 39.5115 75.3459 40.2058 75.735 40.5938C76.1036 41.0022 76.636 41.2064 77.3118 41.2064C77.8238 41.2064 78.2539 41.1247 78.602 40.9614C78.9501 40.798 79.2368 40.5938 79.4416 40.3283C79.6669 40.0628 79.8102 39.7361 79.9126 39.3685C80.015 39.0009 80.056 38.5925 80.056 38.1637V31.7311H82.5134V42.8197H80.0765ZM86.6706 39.2664C86.7525 39.9811 87.0187 40.4713 87.4898 40.7776C87.9608 41.0635 88.5342 41.2064 89.1895 41.2064C89.4147 41.2064 89.681 41.186 89.9677 41.1451C90.2544 41.1043 90.5411 41.043 90.7868 40.9409C91.0531 40.8388 91.2578 40.6959 91.4217 40.4917C91.5855 40.2875 91.6674 40.0424 91.6469 39.7361C91.6264 39.4298 91.5241 39.1643 91.2988 38.9601C91.0735 38.7559 90.8073 38.6129 90.4796 38.47C90.152 38.3475 89.7629 38.2454 89.3328 38.1637C88.9028 38.082 88.4727 37.9799 88.0222 37.8778C87.5717 37.7757 87.1211 37.6532 86.6911 37.5102C86.261 37.3673 85.8924 37.1835 85.5443 36.918C85.2166 36.6729 84.9299 36.3666 84.7456 35.9786C84.5408 35.5906 84.4384 35.1414 84.4384 34.5696C84.4384 33.9569 84.5818 33.4668 84.889 33.0584C85.1757 32.65 85.5648 32.3233 86.0153 32.0782C86.4658 31.8332 86.9778 31.6494 87.5307 31.5473C88.0836 31.4452 88.6161 31.4043 89.1076 31.4043C89.681 31.4043 90.2339 31.4656 90.7459 31.5881C91.2578 31.7106 91.7493 31.8944 92.1589 32.1803C92.589 32.4458 92.9371 32.8134 93.2033 33.2422C93.49 33.6711 93.6539 34.202 93.7358 34.8146H91.1759C91.053 34.2224 90.7868 33.8344 90.3773 33.6302C89.9472 33.426 89.4762 33.3239 88.9233 33.3239C88.7594 33.3239 88.5342 33.3443 88.3089 33.3647C88.0632 33.4056 87.8584 33.4464 87.6331 33.5281C87.4283 33.6098 87.244 33.7323 87.1007 33.8753C86.9573 34.0182 86.8754 34.2224 86.8754 34.4675C86.8754 34.7738 86.9778 34.9984 87.1826 35.1822C87.3874 35.366 87.6536 35.5089 88.0017 35.6519C88.3294 35.7744 88.7185 35.8765 89.1485 35.9582C89.5786 36.0399 90.0291 36.142 90.4796 36.2441C90.9302 36.3462 91.3602 36.4687 91.7903 36.6117C92.2203 36.7546 92.6094 36.9384 92.9371 37.2039C93.2647 37.4489 93.5515 37.7553 93.7562 38.1228C93.961 38.4904 94.0634 38.9601 94.0634 39.491C94.0634 40.1445 93.9201 40.6959 93.6129 41.1656C93.3057 41.6148 92.9166 42.0028 92.4456 42.2887C91.9746 42.5746 91.4217 42.7788 90.8483 42.9218C90.2544 43.0443 89.681 43.126 89.1076 43.126C88.4113 43.126 87.756 43.0443 87.1621 42.8809C86.5682 42.7176 86.0358 42.4725 85.6057 42.1662C85.1757 41.8395 84.8275 41.4515 84.5818 40.9614C84.336 40.4917 84.1927 39.9199 84.1722 39.246H86.6501V39.2664H86.6706ZM94.7597 31.7311H96.6233V28.382H99.0807V31.7106H101.292V33.5281H99.0807V39.4502C99.0807 39.7157 99.1012 39.9199 99.1217 40.1241C99.1421 40.3079 99.2036 40.4713 99.265 40.5938C99.3469 40.7163 99.4698 40.8184 99.6132 40.8797C99.777 40.9409 99.9818 40.9818 100.268 40.9818C100.432 40.9818 100.617 40.9818 100.78 40.9614C100.944 40.9409 101.129 40.9205 101.292 40.8797V42.7788C101.026 42.8197 100.76 42.8401 100.494 42.8605C100.228 42.9014 99.9818 42.9014 99.6951 42.9014C99.0397 42.9014 98.5278 42.8401 98.1387 42.7176C97.7496 42.595 97.4424 42.4113 97.2171 42.1866C96.9919 41.9416 96.8485 41.6557 96.7666 41.3085C96.6847 40.9614 96.6437 40.5325 96.6233 40.0833V33.5485H94.7597V31.6902V31.7311ZM103.013 31.7311H105.327V33.2422H105.368C105.716 32.5887 106.187 32.1395 106.801 31.8536C107.416 31.5677 108.071 31.4247 108.808 31.4247C109.689 31.4247 110.446 31.5677 111.102 31.8944C111.757 32.2007 112.289 32.6092 112.72 33.1605C113.15 33.6915 113.477 34.3245 113.682 35.0393C113.887 35.754 114.01 36.53 114.01 37.3264C114.01 38.082 113.907 38.7967 113.723 39.491C113.518 40.1854 113.231 40.8184 112.842 41.3494C112.453 41.8803 111.962 42.3091 111.347 42.6359C110.733 42.9626 110.037 43.126 109.218 43.126C108.87 43.126 108.501 43.0851 108.153 43.0239C107.805 42.9626 107.456 42.8605 107.129 42.7176C106.801 42.5746 106.494 42.3908 106.228 42.1662C105.941 41.9416 105.716 41.6761 105.531 41.3902H105.491V46.9243H103.033V31.7311H103.013ZM111.593 37.2856C111.593 36.7955 111.532 36.3054 111.388 35.8357C111.266 35.366 111.061 34.9576 110.795 34.59C110.528 34.2224 110.201 33.9365 109.832 33.7119C109.443 33.4873 108.992 33.3852 108.501 33.3852C107.477 33.3852 106.699 33.7323 106.166 34.4471C105.654 35.1618 105.388 36.1216 105.388 37.306C105.388 37.8778 105.45 38.3883 105.593 38.858C105.736 39.3277 105.921 39.7361 106.207 40.0833C106.474 40.4304 106.801 40.6959 107.19 40.9001C107.579 41.1043 108.009 41.2064 108.521 41.2064C109.095 41.2064 109.545 41.0839 109.934 40.8593C110.324 40.6346 110.631 40.3283 110.897 39.9811C111.143 39.6136 111.327 39.2052 111.429 38.7355C111.532 38.2454 111.593 37.7757 111.593 37.2856ZM115.914 27.5039H118.372V29.8115H115.914V27.5039ZM115.914 31.7311H118.372V42.8197H115.914V31.7311ZM120.563 27.5039H123.02V42.8197H120.563V27.5039ZM130.516 43.126C129.635 43.126 128.836 42.983 128.14 42.6767C127.444 42.3704 126.87 41.9824 126.379 41.4719C125.908 40.9614 125.539 40.3283 125.293 39.6136C125.048 38.8988 124.904 38.1024 124.904 37.2652C124.904 36.4279 125.027 35.6519 125.293 34.9372C125.539 34.2224 125.908 33.6098 126.379 33.0788C126.85 32.5683 127.444 32.1599 128.14 31.874C128.836 31.5881 129.635 31.4247 130.516 31.4247C131.396 31.4247 132.195 31.5677 132.891 31.874C133.587 32.1599 134.161 32.5683 134.652 33.0788C135.123 33.5894 135.492 34.2224 135.738 34.9372C135.983 35.6519 136.127 36.4279 136.127 37.2652C136.127 38.1228 136.004 38.8988 135.738 39.6136C135.471 40.3283 135.123 40.9409 134.652 41.4719C134.181 41.9824 133.587 42.3908 132.891 42.6767C132.195 42.9626 131.417 43.126 130.516 43.126ZM130.516 41.186C131.048 41.186 131.539 41.0635 131.929 40.8388C132.338 40.6142 132.645 40.3079 132.912 39.9403C133.178 39.5727 133.362 39.1439 133.485 38.6946C133.608 38.2249 133.669 37.7553 133.669 37.2652C133.669 36.7955 133.608 36.3258 133.485 35.8561C133.362 35.3864 133.178 34.978 132.912 34.6104C132.645 34.2428 132.318 33.957 131.929 33.7323C131.519 33.5077 131.048 33.3852 130.516 33.3852C129.983 33.3852 129.492 33.5077 129.102 33.7323C128.693 33.957 128.386 34.2633 128.12 34.6104C127.853 34.978 127.669 35.3864 127.546 35.8561C127.423 36.3258 127.362 36.7955 127.362 37.2652C127.362 37.7553 127.423 38.2249 127.546 38.6946C127.669 39.1643 127.853 39.5727 128.12 39.9403C128.386 40.3079 128.713 40.6142 129.102 40.8388C129.512 41.0839 129.983 41.186 130.516 41.186ZM136.864 31.7311H138.727V28.382H141.185V31.7106H143.397V33.5281H141.185V39.4502C141.185 39.7157 141.205 39.9199 141.226 40.1241C141.246 40.3079 141.308 40.4713 141.369 40.5938C141.451 40.7163 141.574 40.8184 141.717 40.8797C141.881 40.9409 142.086 40.9818 142.373 40.9818C142.537 40.9818 142.721 40.9818 142.885 40.9614C143.048 40.9409 143.233 40.9205 143.397 40.8797V42.7788C143.13 42.8197 142.864 42.8401 142.598 42.8605C142.332 42.9014 142.086 42.9014 141.799 42.9014C141.144 42.9014 140.632 42.8401 140.243 42.7176C139.854 42.595 139.547 42.4113 139.321 42.1866C139.096 41.9416 138.953 41.6557 138.871 41.3085C138.789 40.9614 138.748 40.5325 138.727 40.0833V33.5485H136.864V31.6902V31.7311Z" fill="var(--fill-0, #5C5C5C)"/>
<path d="M50.1082 27.544H38.9876L35.5642 17L32.1207 27.544L21 27.5238L29.9938 34.0481L26.5502 44.5921L35.544 38.0678L44.5378 44.5921L41.1145 34.0481L50.1082 27.544Z" fill="var(--fill-0, #5C5C5C)"/>
<path d="M41.8825 36.4314L41.1127 34.0479L35.5625 38.0675L41.8825 36.4314Z" fill="var(--fill-0, #5C5C5C)"/>
</g>
</g>
</svg>
