<svg preserveAspectRatio="none" width="100%" height="100%" overflow="visible" style="display: block;" viewBox="0 0 20 12" fill="none" xmlns="http://www.w3.org/2000/svg">
<g id="Flag_of_the_United_Kingdom_(3-5) 1" clip-path="url(#clip0_0_103)">
<path id="Vector" d="M0 0V12H20V0H0Z" fill="var(--fill-0, #012169)"/>
<g id="Vector_2">
<path d="M0 0L20 12ZM20 0L0 12Z" fill="var(--fill-0, black)"/>
<path d="M0 0L20 12M20 0L0 12" stroke="var(--stroke-0, white)" stroke-width="2.4"/>
</g>
<g id="Clip path group">
<mask id="mask0_0_103" style="mask-type:luminance" maskUnits="userSpaceOnUse" x="0" y="0" width="20" height="12">
<g id="t">
<path id="Vector_3" d="M10 6H20V12L10 6ZM10 6V12H0L10 6ZM10 6H0V0L10 6ZM10 6V0H20L10 6Z" fill="var(--fill-0, white)"/>
</g>
</mask>
<g mask="url(#mask0_0_103)">
<g id="Vector_4">
<path d="M0 0L20 12ZM20 0L0 12Z" fill="var(--fill-0, black)"/>
<path d="M0 0L20 12M20 0L0 12" stroke="var(--stroke-0, #C8102E)" stroke-width="1.6"/>
</g>
</g>
</g>
<path id="Vector_5" d="M-0.400553 4.4H8.39945V-0.4H11.5994V4.4H20.3994V7.6H11.5994V12.4H8.39945V7.6H-0.400553V4.4Z" fill="var(--fill-0, #C8102E)" stroke="var(--stroke-0, white)" stroke-width="0.8"/>
</g>
<defs>
<clipPath id="clip0_0_103">
<rect width="20" height="12" fill="white"/>
</clipPath>
</defs>
</svg>
