<svg width="124" height="124" viewBox="0 0 124 124" fill="none" xmlns="http://www.w3.org/2000/svg">
<path d="M9.62557 64.8177L13.3489 72.1255L13.4491 72.1105L14.8084 64.0411L16.7555 63.7494L14.8086 74.0343L12.6228 74.3618L7.68322 65.1088L9.62557 64.8177ZM19.2728 73.3654L17.7741 63.5967L24.1309 62.6442L24.3584 64.1276L19.7722 64.8148L20.1791 67.4669L24.436 66.829L24.6636 68.3124L20.4067 68.9503L20.8157 71.6166L25.4402 70.9237L25.6678 72.4071L19.2728 73.3654ZM27.1671 72.1824L25.6684 62.4138L29.3336 61.8646C30.0845 61.7521 30.7344 61.7881 31.2835 61.9726C31.8357 62.1565 32.2784 62.4643 32.6115 62.8958C32.9473 63.3237 33.163 63.8493 33.2586 64.4725C33.3547 65.099 33.3045 65.6628 33.108 66.1639C32.9142 66.6614 32.5788 67.0743 32.1019 67.4028C31.6246 67.728 31.0105 67.9469 30.2596 68.0594L27.6491 68.4506L27.4237 66.9815L29.7956 66.6261C30.2347 66.5603 30.5849 66.446 30.8463 66.2832C31.1073 66.1172 31.2865 65.9066 31.3841 65.6513C31.4843 65.3923 31.5078 65.0895 31.4546 64.7429C31.4014 64.3962 31.2877 64.1108 31.1133 63.8864C30.9384 63.6589 30.7013 63.5025 30.4018 63.4173C30.1018 63.3288 29.7307 63.3178 29.2884 63.384L27.6658 63.6272L28.9377 71.9171L27.1671 72.1824ZM31.5372 66.9994L34.6359 71.0633L32.6601 71.3594L29.6044 67.2891L31.5372 66.9994ZM35.9108 60.8791L37.4095 70.6477L35.639 70.913L34.1402 61.1444L35.9108 60.8791ZM39.058 70.4007L37.5593 60.632L43.8207 59.6938L44.0482 61.1772L39.5574 61.8502L39.9643 64.5022L44.0256 63.8936L44.2532 65.3771L40.1919 65.9856L40.8286 70.1354L39.058 70.4007ZM46.9355 59.2271L48.4342 68.9957L46.6637 69.261L45.1649 59.4924L46.9355 59.2271ZM50.0827 68.7487L48.584 58.9801L54.9408 58.0275L55.1684 59.511L50.5821 60.1982L50.989 62.8502L55.246 62.2123L55.4736 63.6958L51.2166 64.3336L51.6257 67L56.2501 66.307L56.4777 67.7905L50.0827 68.7487ZM61.2891 67.0695L57.9771 67.5658L56.4784 57.7972L59.8572 57.2909C60.8276 57.1455 61.6912 57.2161 62.4479 57.5028C63.2074 57.7859 63.8307 58.2634 64.3179 58.9353C64.805 59.6073 65.1264 60.4504 65.282 61.4648C65.4381 62.4824 65.383 63.3852 65.1166 64.1733C64.8534 64.961 64.397 65.6035 63.7475 66.1009C63.1012 66.5979 62.2818 66.9208 61.2891 67.0695ZM59.5127 65.7694L60.9683 65.5513C61.6492 65.4492 62.198 65.2401 62.615 64.9239C63.0314 64.6045 63.3161 64.1796 63.469 63.6493C63.6215 63.1157 63.6404 62.4753 63.5258 61.728C63.4111 60.9807 63.2015 60.3778 62.8968 59.9192C62.5916 59.4575 62.1959 59.1378 61.7098 58.9602C61.2263 58.7789 60.6537 58.7378 59.9919 58.837L58.4838 59.063L59.5127 65.7694ZM74.736 57.8085C74.6275 57.3986 74.39 57.1024 74.0235 56.9199C73.6602 56.7368 73.2161 56.6847 72.6911 56.7633C72.3221 56.8186 72.014 56.9217 71.767 57.0726C71.52 57.2234 71.3412 57.4048 71.2305 57.6165C71.1198 57.8283 71.0816 58.0568 71.116 58.3022C71.1472 58.5057 71.2204 58.6753 71.3356 58.8109C71.454 58.946 71.6023 59.0539 71.7807 59.1345C71.9586 59.212 72.1515 59.2709 72.3595 59.3113C72.5675 59.3517 72.7754 59.3807 72.9831 59.3984L73.9345 59.4901C74.3168 59.5206 74.6893 59.5835 75.0522 59.6788C75.4183 59.7736 75.7536 59.912 76.0582 60.0941C76.3659 60.2757 76.6235 60.5119 76.8309 60.8029C77.0383 61.0939 77.1744 61.4508 77.2393 61.8738C77.3271 62.4461 77.2581 62.9721 77.0322 63.4516C76.8058 63.9279 76.4346 64.33 75.9186 64.6578C75.4053 64.9819 74.7573 65.2027 73.9746 65.3199C73.2142 65.4339 72.536 65.4151 71.9399 65.2637C71.347 65.1118 70.8585 64.8337 70.4742 64.4294C70.0932 64.0246 69.8401 63.4997 69.7152 62.8548L71.4571 62.5938C71.5347 62.9302 71.6831 63.1975 71.9023 63.3956C72.1215 63.5938 72.3875 63.7263 72.7005 63.7933C73.0166 63.8597 73.3592 63.8653 73.7283 63.81C74.1133 63.7524 74.4417 63.6446 74.7137 63.4867C74.9884 63.3252 75.1926 63.1287 75.3263 62.8972C75.4595 62.6626 75.5063 62.4051 75.4665 62.1248C75.4243 61.8708 75.3173 61.6722 75.1456 61.5288C74.9734 61.3822 74.7467 61.273 74.4656 61.2013C74.1871 61.1259 73.8661 61.0699 73.5025 61.0333L72.3466 60.9137C71.5099 60.8276 70.8256 60.6098 70.2935 60.2601C69.7641 59.9068 69.4457 59.3803 69.3384 58.6808C69.2501 58.1052 69.3287 57.5778 69.5741 57.0986C69.8227 56.619 70.1992 56.2194 70.7035 55.8998C71.2073 55.5771 71.8012 55.3645 72.4852 55.262C73.1788 55.1581 73.805 55.1879 74.3639 55.3513C74.9254 55.5112 75.3884 55.7817 75.7529 56.163C76.1168 56.5411 76.3458 57.0045 76.4397 57.5532L74.736 57.8085ZM78.9697 64.4202L77.471 54.6515L83.8278 53.699L84.0554 55.1824L79.4692 55.8697L79.876 58.5217L84.133 57.8838L84.3606 59.3672L80.1036 60.0051L80.5127 62.6715L85.1371 61.9785L85.3647 63.4619L78.9697 64.4202ZM86.8641 63.2373L85.3654 53.4686L87.1359 53.2033L88.4071 61.4885L92.7117 60.8435L92.9393 62.3269L86.8641 63.2373ZM94.2072 62.1369L92.7085 52.3683L94.4791 52.103L95.7502 60.3882L100.055 59.7432L100.282 61.2266L94.2072 62.1369ZM101.55 61.0366L100.052 51.268L106.408 50.3155L106.636 51.7989L102.05 52.4861L102.457 55.1381L106.714 54.5003L106.941 55.9837L102.684 56.6216L103.093 59.2879L107.718 58.595L107.945 60.0784L101.55 61.0366ZM109.445 59.8537L107.946 50.0851L111.611 49.5359C112.362 49.4234 113.012 49.4593 113.561 49.6438C114.113 49.8278 114.556 50.1356 114.889 50.5671C115.225 50.995 115.441 51.5206 115.536 52.1438C115.632 52.7703 115.582 53.334 115.386 53.8352C115.192 54.3326 114.856 54.7456 114.38 55.074C113.902 55.3993 113.288 55.6182 112.537 55.7307L109.927 56.1219L109.701 54.6528L112.073 54.2973C112.512 54.2316 112.863 54.1173 113.124 53.9545C113.385 53.7885 113.564 53.5779 113.662 53.3225C113.762 53.0635 113.785 52.7607 113.732 52.4141C113.679 52.0675 113.565 51.782 113.391 51.5577C113.216 51.3302 112.979 51.1738 112.679 51.0885C112.379 51.0001 112.008 50.989 111.566 51.0553L109.943 51.2984L111.215 59.5884L109.445 59.8537ZM113.815 54.6707L116.914 58.7346L114.938 59.0306L111.882 54.9603L113.815 54.6707Z" fill="#5C5C5C"/>
<path d="M66.258 96.8461C52.1307 98.9881 38.6776 92.6108 31.1164 81.5578L95.2881 71.828C91.3432 84.6256 80.3852 94.7041 66.258 96.8461Z" fill="#5C5C5C"/>
<path d="M92.1721 43.4374C85.0151 30.8568 70.6267 23.3387 55.4613 25.6381C40.2959 27.9375 28.7826 39.3829 25.6765 53.5195L92.1721 43.4374Z" fill="#5C5C5C"/>
<path d="M2.65602 57.01L25.6765 53.5195M116.536 39.7432L92.1721 43.4373M6.35366 85.3124L31.1164 81.5578M121.394 67.8697L95.2881 71.828M92.1721 43.4373C85.0151 30.8568 70.6267 23.3387 55.4613 25.6381C40.2959 27.9375 28.7826 39.3829 25.6765 53.5195M92.1721 43.4373L25.6765 53.5195M31.1164 81.5578C38.6776 92.6108 52.1307 98.9881 66.2579 96.8461C80.3852 94.7041 91.3432 84.6255 95.2881 71.828M31.1164 81.5578L95.2881 71.828M43.7962 6.23983L42.0588 5.48508C39.9714 4.57832 37.5459 5.55607 36.671 7.65694L35.9428 9.40562C35.2075 11.1712 33.3438 12.1883 31.4611 11.8513L29.5965 11.5176C27.3563 11.1166 25.2217 12.6274 24.8549 14.8734L24.5495 16.7429C24.2412 18.6304 22.6623 20.0499 20.7527 20.1562L18.8613 20.2614C16.5891 20.3879 14.8604 22.3502 15.0214 24.6203L15.1554 26.5098C15.2908 28.4176 14.0817 30.1629 12.2481 30.7067L10.432 31.2453C8.2502 31.8924 7.02063 34.2005 7.70083 36.3722L8.267 38.1799C8.83864 40.005 8.06467 41.9821 6.4059 42.9341L4.76299 43.877C2.7892 45.0099 2.12506 47.5393 3.28776 49.4956L4.25554 51.124C5.23267 52.7681 4.93552 54.8704 3.54102 56.1793L2.15984 57.4757C0.500495 59.0331 0.437585 61.6476 2.02011 63.283L3.33733 64.6443C4.66728 66.0187 4.86297 68.1329 3.8079 69.7281L2.76291 71.3081C1.50747 73.2062 2.04918 75.7647 3.96621 76.9911L5.56187 78.0119C7.17293 79.0426 7.85091 81.0547 7.19216 82.8502L6.5397 84.6285C5.75584 86.765 6.87298 89.1296 9.02116 89.8809L10.8092 90.5062C12.6145 91.1376 13.7383 92.939 13.5113 94.8381L13.2866 96.7189C13.0166 98.9786 14.6489 101.022 16.9124 101.257L18.7965 101.454C20.6988 101.652 22.2077 103.145 22.4248 105.046L22.6399 106.928C22.8982 109.189 24.9578 110.8 27.2146 110.508L29.0932 110.264C30.9898 110.018 32.8025 111.123 33.452 112.922L34.0953 114.704C34.8681 116.844 37.2438 117.938 39.3723 117.132L41.144 116.462C42.9328 115.785 44.9516 116.443 45.9984 118.044L47.0353 119.629C48.2809 121.533 50.8447 122.049 52.7301 120.775L54.2995 119.714C55.884 118.643 58 118.817 59.3878 120.134L60.7622 121.437C62.4135 123.003 65.0272 122.914 66.5679 121.239L67.8503 119.845C69.1451 118.437 71.2443 118.119 72.8981 119.079L74.5362 120.031C76.5041 121.174 79.0267 120.484 80.1396 118.499L81.0659 116.847C82.0012 115.178 83.9705 114.385 85.8012 114.938L87.6145 115.486C89.793 116.144 92.0886 114.891 92.7137 112.703L93.234 110.882C93.7593 109.043 95.4924 107.816 97.4014 107.932L99.2922 108.047C101.564 108.185 103.509 106.437 103.612 104.164L103.698 102.271C103.785 100.361 105.189 98.7676 107.073 98.4403L108.94 98.1162C111.182 97.7268 112.671 95.5771 112.248 93.341L111.895 91.4799C111.539 89.6007 112.537 87.7268 114.296 86.9738L116.037 86.228C118.129 85.332 119.082 82.8968 118.154 80.8187L117.382 79.089C116.602 77.3426 117.142 75.289 118.679 74.1508L120.201 73.0236C122.03 71.6693 122.396 69.0798 121.014 67.2717L119.864 65.7667C118.702 64.2472 118.753 62.1245 119.987 60.6626L121.208 59.2147C122.675 57.4751 122.434 54.8711 120.673 53.4304L119.206 52.2312C117.726 51.0205 117.286 48.9433 118.149 47.2364L119.003 45.5458C120.03 43.5148 119.195 41.0365 117.148 40.0409L115.445 39.2122C113.725 38.3756 112.818 36.4558 113.264 34.596L113.705 32.7539C114.236 30.5408 112.852 28.3219 110.631 27.8251L108.782 27.4116C106.916 26.9941 105.591 25.3353 105.596 23.4227L105.601 21.5285C105.606 19.2527 103.748 17.4128 101.472 17.4416L99.5782 17.4656C97.6658 17.4897 95.9937 16.1812 95.5574 14.3191L95.1253 12.4748C94.6062 10.259 92.3735 8.89733 90.1659 9.4501L88.3284 9.9102C86.4731 10.3748 84.5443 9.48713 83.6904 7.77582L82.8446 6.08086C81.8285 4.04454 79.3419 3.23445 77.3213 4.28143L75.6394 5.1529C73.9413 6.03278 71.8598 5.61389 70.6342 4.14564L69.4204 2.69143C67.962 0.94433 65.3557 0.729511 63.631 2.21426L62.1954 3.45011C60.7459 4.69788 58.6239 4.77032 57.0928 3.62428L55.5763 2.4892C53.7544 1.12551 51.1687 1.51755 49.8329 3.36002L48.721 4.89362C47.5984 6.44203 45.5503 7.00187 43.7962 6.23983Z" stroke="#5C5C5C" stroke-width="1.3589"/>
<path d="M22.5774 31.4996L27.1908 33.2458L27.2295 33.199L24.5828 29.0777L25.3362 28.1678L28.6137 33.5066L27.7679 34.528L21.8258 32.4073L22.5774 31.4996Z" fill="#5C5C5C"/>
<path d="M30.7505 31.0796L26.651 26.7951L29.4688 24.1619L30.0914 24.8125L28.0584 26.7123L29.1713 27.8755L31.0583 26.1121L31.6808 26.7627L29.7938 28.5261L30.9128 29.6956L32.9627 27.78L33.5852 28.4306L30.7505 31.0796Z" fill="#5C5C5C"/>
<path d="M34.4122 27.7221L30.8276 22.9985L32.614 21.6744C32.98 21.4031 33.3349 21.2386 33.6787 21.1808C34.0241 21.1218 34.3467 21.159 34.6465 21.2923C34.9468 21.423 35.2113 21.639 35.44 21.9403C35.6698 22.2432 35.8042 22.5545 35.8432 22.874C35.8825 23.1908 35.8226 23.503 35.6636 23.8107C35.5034 24.1168 35.2403 24.4055 34.8743 24.6768L33.6019 25.6199L33.0628 24.9095L34.2189 24.0526C34.4329 23.894 34.586 23.7349 34.6781 23.5753C34.7691 23.4142 34.8039 23.2526 34.7827 23.0906C34.7619 22.9258 34.6879 22.7596 34.5607 22.592C34.4335 22.4244 34.2916 22.3061 34.1351 22.2372C33.9774 22.1667 33.807 22.1512 33.6239 22.1909C33.4395 22.229 33.2396 22.3279 33.0241 22.4877L32.2332 23.0739L35.2752 27.0824L34.4122 27.7221ZM35.249 23.7576L38.0526 25.0239L37.0896 25.7377L34.3069 24.4559L35.249 23.7576Z" fill="#5C5C5C"/>
<path d="M36.5633 19.0341L39.7114 24.0592L38.7951 24.6198L35.647 19.5947L36.5633 19.0341Z" fill="#5C5C5C"/>
<path d="M40.8269 23.3622L38.1264 18.083L41.5246 16.3852L41.9347 17.1869L39.4974 18.4046L40.2306 19.8378L42.4348 18.7366L42.8448 19.5383L40.6406 20.6395L41.7878 22.8821L40.8269 23.3622Z" fill="#5C5C5C"/>
<path d="M44.2817 15.2509L46.5087 20.7466L45.5098 21.1419L43.2829 15.6462L44.2817 15.2509Z" fill="#5C5C5C"/>
<path d="M47.5623 20.3022L45.8091 14.6376L49.5008 13.5216L49.767 14.3819L47.1036 15.187L47.5795 16.7248L50.0518 15.9775L50.318 16.8377L47.8458 17.585L48.3243 19.1312L51.0099 18.3194L51.2761 19.1796L47.5623 20.3022Z" fill="#5C5C5C"/>
<path d="M54.5893 18.4703L52.6068 18.7984L51.6162 12.952L53.6386 12.6173C54.2195 12.5212 54.7382 12.5556 55.1949 12.7207C55.6532 12.8836 56.0317 13.1643 56.3302 13.5629C56.6288 13.9616 56.8295 14.4644 56.9324 15.0715C57.0356 15.6805 57.0109 16.2226 56.8585 16.6979C56.7079 17.1728 56.4402 17.5624 56.0552 17.8668C55.6721 18.1708 55.1834 18.372 54.5893 18.4703ZM53.5113 17.7067L54.3826 17.5625C54.7901 17.495 55.1175 17.3646 55.3646 17.1711C55.6115 16.9756 55.7783 16.7181 55.8651 16.3986C55.9516 16.0771 55.957 15.6927 55.8812 15.2455C55.8054 14.7982 55.674 14.4385 55.4869 14.1662C55.2994 13.892 55.0591 13.7038 54.7657 13.6017C54.4739 13.4974 54.13 13.478 53.7339 13.5436L52.8312 13.693L53.5113 17.7067Z" fill="#5C5C5C"/>
<path d="M64.913 13.4675C64.8918 13.2141 64.7825 13.0147 64.585 12.8693C64.3895 12.724 64.1325 12.6477 63.8141 12.6406C63.5902 12.6356 63.3975 12.665 63.2357 12.729C63.074 12.7929 62.9494 12.8818 62.8618 12.9957C62.7742 13.1096 62.7278 13.2408 62.7224 13.3893C62.7196 13.5129 62.7451 13.6206 62.799 13.7125C62.8548 13.8045 62.9312 13.8835 63.0281 13.9494C63.1251 14.0133 63.233 14.0679 63.3516 14.113C63.4703 14.1582 63.5901 14.1966 63.711 14.2282L64.2636 14.3796C64.4863 14.4368 64.6998 14.512 64.9043 14.6054C65.1106 14.6989 65.2943 14.815 65.4552 14.9537C65.6181 15.0925 65.7455 15.2586 65.8376 15.4518C65.9297 15.645 65.9728 15.8699 65.967 16.1266C65.959 16.4739 65.8632 16.7778 65.6796 17.0382C65.496 17.2967 65.2346 17.4964 64.8954 17.6375C64.5582 17.7766 64.1522 17.8409 63.6775 17.8303C63.2163 17.8199 62.8175 17.7395 62.4811 17.5891C62.1467 17.4387 61.8871 17.2244 61.7024 16.9461C61.5195 16.6678 61.4249 16.3317 61.4185 15.9376L62.4751 15.9613C62.4858 16.1682 62.5455 16.3413 62.6543 16.4809C62.7631 16.6204 62.9064 16.7259 63.0843 16.7975C63.2642 16.8691 63.466 16.9074 63.6899 16.9125C63.9234 16.9177 64.1288 16.8876 64.306 16.822C64.4851 16.7546 64.6263 16.6593 64.7296 16.5361C64.8328 16.411 64.8874 16.2636 64.8932 16.0938C64.8948 15.9394 64.8524 15.811 64.766 15.7086C64.6795 15.6044 64.557 15.5167 64.3984 15.4455C64.2418 15.3725 64.0579 15.3066 63.8469 15.2478L63.1764 15.059C62.6911 14.9226 62.3095 14.7239 62.0316 14.4628C61.7558 14.1998 61.6227 13.8561 61.6325 13.4315C61.6405 13.0822 61.7421 12.7785 61.9373 12.5203C62.1343 12.2621 62.3986 12.0643 62.7299 11.927C63.0614 11.7877 63.4345 11.7227 63.8494 11.732C64.2701 11.7414 64.637 11.823 64.9502 11.9768C65.2652 12.1287 65.5105 12.3359 65.686 12.5986C65.8615 12.8593 65.9483 13.1567 65.9464 13.4906L64.913 13.4675Z" fill="#5C5C5C"/>
<path d="M66.5361 17.8297L67.3547 11.9567L71.1762 12.477L71.0518 13.3688L68.2948 12.9935L68.0726 14.5879L70.6316 14.9363L70.5073 15.8281L67.9482 15.4797L67.7248 17.0827L70.5048 17.4612L70.3805 18.3531L66.5361 17.8297Z" fill="#5C5C5C"/>
<path d="M71.6291 18.5556L73.1322 12.8195L74.1729 13.0858L72.898 17.9509L75.4281 18.5984L75.1999 19.4695L71.6291 18.5556Z" fill="#5C5C5C"/>
<path d="M76.5091 19.8296L78.6664 14.3062L79.6701 14.6891L77.8404 19.3737L80.2805 20.3045L79.9529 21.1433L76.5091 19.8296Z" fill="#5C5C5C"/>
<path d="M81.1641 21.6214L83.9387 16.3808L87.3645 18.1523L86.9431 18.9481L84.4716 17.67L83.7183 19.0928L86.0124 20.2791L85.5911 21.0749L83.297 19.8886L82.5396 21.319L85.0318 22.6077L84.6104 23.4035L81.1641 21.6214Z" fill="#5C5C5C"/>
<path d="M85.5727 23.9078L88.923 19.0152L90.7714 20.2514C91.1501 20.5047 91.423 20.7824 91.5903 21.0847C91.7592 21.3881 91.8287 21.7016 91.7989 22.0253C91.7717 22.3485 91.6513 22.6662 91.4375 22.9783C91.2227 23.2921 90.9688 23.5194 90.6759 23.6601C90.3857 23.8004 90.0675 23.8465 89.7214 23.7985C89.3764 23.7489 89.0146 23.5975 88.636 23.3442L87.3195 22.4637L87.8233 21.7279L89.0195 22.5279C89.2409 22.676 89.4429 22.767 89.6256 22.8009C89.8093 22.8333 89.9752 22.813 90.1233 22.7402C90.2741 22.6669 90.4089 22.5435 90.5278 22.3699C90.6467 22.1963 90.7136 22.0251 90.7286 21.8563C90.7447 21.686 90.7039 21.5217 90.6063 21.3636C90.5099 21.2038 90.3501 21.0494 90.1271 20.9002L89.3088 20.353L86.4656 24.5049L85.5727 23.9078ZM89.6371 23.3938L89.3392 26.4269L88.3428 25.7605L88.6624 22.7419L89.6371 23.3938Z" fill="#5C5C5C"/>
<path d="M36.0706 97.1802L34.7679 101.904L34.8188 101.937L38.7031 98.8998L39.6921 99.5458L34.6454 103.332L33.5352 102.606L35.084 96.5357L36.0706 97.1802Z" fill="#5C5C5C"/>
<path d="M38.1653 105.504L40.804 100.194L44.2736 101.878L43.8729 102.684L41.3697 101.469L40.6533 102.911L42.9768 104.039L42.5761 104.845L40.2526 103.717L39.5324 105.167L42.0564 106.392L41.6557 107.198L38.1653 105.504Z" fill="#5C5C5C"/>
<path d="M43.3824 107.979L45.395 102.401L47.4923 103.141C47.9219 103.292 48.2555 103.493 48.4931 103.745C48.7325 103.997 48.8783 104.284 48.9306 104.605C48.9854 104.925 48.9486 105.263 48.8202 105.619C48.6912 105.977 48.5027 106.26 48.2547 106.47C48.0093 106.678 47.7132 106.802 47.3666 106.841C47.0205 106.879 46.6327 106.822 46.2031 106.671L44.7093 106.144L45.012 105.306L46.3692 105.784C46.6204 105.872 46.8386 105.91 47.0237 105.898C47.2095 105.884 47.3648 105.823 47.4897 105.715C47.6172 105.607 47.7166 105.453 47.788 105.255C47.8594 105.058 47.8812 104.875 47.8533 104.708C47.8262 104.538 47.7456 104.389 47.6116 104.26C47.4782 104.129 47.285 104.019 47.032 103.93L46.1035 103.603L44.3955 108.336L43.3824 107.979ZM47.1836 106.47L47.6561 109.485L46.5256 109.087L46.0776 106.08L47.1836 106.47Z" fill="#5C5C5C"/>
<path d="M51.633 104.395L50.1299 110.132L49.0893 109.865L50.5924 104.129L51.633 104.395Z" fill="#5C5C5C"/>
<path d="M51.9936 110.617L52.9913 104.772L56.7383 105.397L56.5868 106.285L53.8993 105.837L53.6285 107.423L56.0589 107.829L55.9074 108.716L53.477 108.311L53.0531 110.794L51.9936 110.617Z" fill="#5C5C5C"/>
<path d="M59.2928 105.633L58.8136 111.544L57.7428 111.459L58.222 105.548L59.2928 105.633Z" fill="#5C5C5C"/>
<path d="M60.5442 111.695L60.5194 105.765L64.3761 105.749L64.3798 106.65L61.5974 106.661L61.6041 108.271L64.1868 108.26L64.1905 109.161L61.6079 109.171L61.6146 110.79L64.4202 110.778L64.424 111.679L60.5442 111.695Z" fill="#5C5C5C"/>
<path d="M68.7292 111.329L66.7376 111.596L65.93 105.722L67.9617 105.449C68.5452 105.371 69.0626 105.421 69.5139 105.6C69.9669 105.777 70.3363 106.069 70.6223 106.476C70.9082 106.884 71.0931 107.393 71.177 108.003C71.2611 108.615 71.2196 109.156 71.0524 109.626C70.8871 110.097 70.6073 110.478 70.213 110.77C69.8207 111.063 69.326 111.249 68.7292 111.329ZM67.6757 110.533L68.5509 110.415C68.9603 110.36 69.2916 110.24 69.5446 110.054C69.7974 109.866 69.9722 109.614 70.0689 109.297C70.1654 108.978 70.1827 108.594 70.121 108.145C70.0592 107.695 69.939 107.332 69.7606 107.054C69.5818 106.774 69.3474 106.579 69.0574 106.467C68.7691 106.354 68.426 106.324 68.028 106.378L67.1212 106.5L67.6757 110.533Z" fill="#5C5C5C"/>
<path d="M78.6207 104.624C78.5138 104.393 78.3424 104.243 78.1066 104.172C77.8726 104.102 77.6044 104.116 77.3021 104.216C77.0896 104.287 76.9181 104.379 76.7878 104.494C76.6574 104.608 76.5705 104.734 76.5271 104.87C76.4837 105.006 76.485 105.145 76.531 105.287C76.5707 105.404 76.6317 105.496 76.714 105.564C76.7981 105.632 76.8971 105.681 77.011 105.71C77.1243 105.738 77.2446 105.753 77.3718 105.755C77.4991 105.758 77.6251 105.754 77.7498 105.743L78.3222 105.699C78.5514 105.678 78.7784 105.677 79.003 105.696C79.2294 105.715 79.4422 105.762 79.6413 105.839C79.8423 105.914 80.0194 106.027 80.1724 106.178C80.3254 106.329 80.4432 106.525 80.5257 106.768C80.6374 107.098 80.6514 107.415 80.5679 107.721C80.4837 108.026 80.3061 108.301 80.035 108.548C79.7652 108.792 79.4049 108.988 78.9542 109.138C78.5163 109.283 78.1132 109.341 77.7448 109.313C77.3783 109.284 77.0602 109.17 76.7908 108.971C76.5231 108.771 76.3187 108.486 76.1774 108.118L77.1806 107.786C77.2616 107.977 77.3773 108.119 77.5276 108.214C77.6779 108.308 77.8491 108.359 78.0413 108.367C78.2352 108.374 78.4384 108.342 78.651 108.272C78.8727 108.198 79.0557 108.101 79.2001 107.98C79.3457 107.856 79.446 107.719 79.5009 107.569C79.5553 107.417 79.5561 107.26 79.5033 107.098C79.4518 106.953 79.3678 106.846 79.2513 106.779C79.1341 106.71 78.9886 106.669 78.8148 106.655C78.6423 106.639 78.4465 106.639 78.2276 106.655L77.5314 106.703C77.0275 106.738 76.6 106.679 76.2488 106.527C75.8987 106.373 75.6555 106.094 75.519 105.692C75.4067 105.361 75.3981 105.042 75.4933 104.734C75.5903 104.425 75.7713 104.15 76.0363 103.91C76.3006 103.668 76.6297 103.482 77.0236 103.351C77.4231 103.219 77.7966 103.172 78.1442 103.211C78.4931 103.248 78.7952 103.361 79.0505 103.548C79.3053 103.734 79.4891 103.985 79.6019 104.299L78.6207 104.624Z" fill="#5C5C5C"/>
<path d="M82.3675 107.817L79.8289 102.458L83.3291 100.838L83.7146 101.652L81.1893 102.82L81.8785 104.275L84.2225 103.191L84.608 104.005L82.264 105.089L82.9569 106.552L85.5032 105.374L85.8887 106.187L82.3675 107.817Z" fill="#5C5C5C"/>
<path d="M87.7172 105.222L84.5691 100.197L85.4854 99.6366L88.1554 103.899L90.3832 102.536L90.8612 103.299L87.7172 105.222Z" fill="#5C5C5C"/>
<path d="M92.6356 102.09L88.9298 97.4605L89.776 96.7989L92.9191 100.725L94.9765 99.1164L95.5393 99.8194L92.6356 102.09Z" fill="#5C5C5C"/>
<path d="M97.1073 98.4662L92.8996 94.288L95.6492 91.5836L96.2881 92.2181L94.3044 94.1693L95.4467 95.3036L97.288 93.4925L97.927 94.127L96.0857 95.9381L97.2342 97.0785L99.2344 95.1111L99.8734 95.7456L97.1073 98.4662Z" fill="#5C5C5C"/>
<path d="M101.119 94.3887L96.4683 90.7103L97.8676 88.9822C98.1543 88.6282 98.4569 88.3802 98.7754 88.2384C99.0951 88.0951 99.4168 88.0505 99.7405 88.1047C100.064 88.1562 100.374 88.2993 100.671 88.534C100.969 88.7699 101.177 89.0376 101.294 89.3373C101.412 89.6342 101.432 89.9515 101.354 90.2891C101.276 90.6255 101.093 90.9707 100.806 91.3247L99.8096 92.5556L99.1101 92.0024L100.016 90.8841C100.183 90.677 100.292 90.4848 100.341 90.3073C100.389 90.1286 100.382 89.9634 100.321 89.8118C100.26 89.6575 100.147 89.5151 99.9819 89.3846C99.8169 89.254 99.65 89.1749 99.4812 89.1472C99.3109 89.1184 99.142 89.146 98.9745 89.2301C98.8055 89.313 98.6366 89.4587 98.4678 89.6672L97.8483 90.4323L101.795 93.5538L101.119 94.3887ZM100.94 90.3412L103.971 90.8671L103.217 91.7987L100.202 91.2526L100.94 90.3412Z" fill="#5C5C5C"/>
<path d="M94.0055 26.1527C98.7319 30.3778 102.633 35.5603 105.378 41.458M21.671 37.1202C18.4094 42.5564 16.2203 48.6623 15.3461 55.1089M30.7288 96.8597C26.4553 93.0395 22.8569 88.4366 20.1768 83.23M103.063 85.8922C106.009 80.983 108.079 75.5276 109.097 69.7684" stroke="#5C5C5C" stroke-width="1.3589" stroke-linecap="round"/>
</svg>
