<svg preserveAspectRatio="none" width="100%" height="100%" overflow="visible" style="display: block;" viewBox="0 0 122.72 122.529" fill="none" xmlns="http://www.w3.org/2000/svg">
<g id="Vector">
<path d="M60.6807 96.7875C46.3919 96.7875 34.0469 88.4655 28.2281 76.4039H93.1332C87.3144 88.4655 74.9694 96.7875 60.6807 96.7875Z" fill="#5C5C5C"/>
<path d="M94.3085 47.867C89.1183 34.3557 76.0194 24.7656 60.6807 24.7656C45.3419 24.7656 32.2431 34.3557 27.0529 47.867H94.3085Z" fill="#5C5C5C"/>
<path d="M3.76924 47.867H27.0529M118.951 47.867H94.3085M3.18231 76.4039H28.2281M119.538 76.4039H93.1332M94.3085 47.867C89.1183 34.3557 76.0194 24.7656 60.6807 24.7656C45.3419 24.7656 32.2431 34.3557 27.0529 47.867M94.3085 47.867H27.0529M28.2281 76.4039C34.0469 88.4655 46.3919 96.7875 60.6807 96.7875C74.9694 96.7875 87.3144 88.4655 93.1332 76.4039M28.2281 76.4039H93.1332M52.0554 3.83782L50.4507 2.83114C48.5229 1.62172 45.9783 2.22482 44.7983 4.17079L43.8162 5.79055C42.8245 7.42593 40.8293 8.15212 39.0185 7.53674L37.225 6.92725C35.0702 6.19501 32.7332 7.3687 32.0339 9.53434L31.4517 11.3369C30.864 13.1569 29.09 14.3237 27.1861 14.1425L25.3004 13.963C23.0348 13.7474 21.0315 15.4284 20.8504 17.697L20.6997 19.5852C20.5475 21.4917 19.0904 23.0361 17.196 23.2989L15.3197 23.5592C13.0655 23.8719 11.5039 25.9696 11.8508 28.2187L12.1396 30.0908C12.4312 31.981 11.3696 33.8198 9.58683 34.5124L7.82114 35.1983C5.69983 36.0224 4.66401 38.4237 5.5203 40.5323L6.23304 42.2873C6.95266 44.0593 6.34372 46.0933 4.76876 47.1784L3.20885 48.253C1.33478 49.5441 0.880655 52.1196 2.20012 53.9738L3.2984 55.5172C4.40727 57.0755 4.28382 59.1951 3.00154 60.6141L1.73151 62.0195C0.205706 63.708 0.357765 66.3188 2.06928 67.8187L3.49387 69.0672C4.93222 70.3278 5.30092 72.4187 4.38045 74.0952L3.46877 75.7556C2.37349 77.7505 3.12353 80.2558 5.13482 81.3206L6.80894 82.2069C8.49921 83.1018 9.34018 85.0514 8.83114 86.8949L8.32697 88.7209C7.72125 90.9145 9.02884 93.1794 11.2315 93.7516L13.0649 94.228C14.9159 94.7089 16.1839 96.412 16.1137 98.3232L16.0442 100.216C15.9607 102.49 17.7553 104.393 20.0306 104.442L21.9244 104.482C23.8365 104.523 25.463 105.888 25.8355 107.764L26.2044 109.622C26.6476 111.854 28.8326 113.291 31.0578 112.814L32.9099 112.417C34.78 112.016 36.6774 112.969 37.4724 114.708L38.2599 116.431C39.2059 118.501 41.6634 119.395 43.7186 118.418L45.4292 117.604C47.1564 116.783 49.2224 117.273 50.3971 118.782L51.5607 120.277C52.9586 122.072 55.5561 122.376 57.3304 120.951L58.8073 119.765C60.2985 118.567 62.4217 118.567 63.9129 119.765L65.3898 120.951C67.1642 122.376 69.7617 122.072 71.1595 120.277L72.3231 118.782C73.4979 117.273 75.5639 116.783 77.291 117.604L79.0017 118.418C81.0568 119.395 83.5143 118.501 84.4604 116.431L85.2478 114.708C86.0429 112.969 87.9403 112.016 89.8103 112.417L91.6625 112.814C93.8876 113.291 96.0726 111.854 96.5158 109.622L96.8848 107.764C97.2572 105.888 98.8837 104.523 100.796 104.482L102.69 104.442C104.965 104.393 106.76 102.49 106.676 100.216L106.607 98.3232C106.536 96.412 107.804 94.7089 109.655 94.228L111.489 93.7516C113.691 93.1794 114.999 90.9145 114.393 88.7209L113.889 86.8949C113.38 85.0514 114.221 83.1018 115.911 82.2069L117.585 81.3206C119.597 80.2558 120.347 77.7505 119.251 75.7556L118.34 74.0952C117.419 72.4187 117.788 70.3278 119.226 69.0672L120.651 67.8187C122.362 66.3188 122.515 63.708 120.989 62.0195L119.719 60.6141C118.436 59.1951 118.313 57.0755 119.422 55.5172L120.52 53.9738C121.84 52.1196 121.385 49.5441 119.511 48.253L117.951 47.1784C116.377 46.0933 115.768 44.0593 116.487 42.2873L117.2 40.5323C118.056 38.4237 117.02 36.0224 114.899 35.1983L113.133 34.5124C111.351 33.8198 110.289 31.981 110.581 30.0908L110.869 28.2187C111.216 25.9696 109.655 23.8719 107.401 23.5592L105.524 23.2989C103.63 23.0361 102.173 21.4917 102.021 19.5852L101.87 17.697C101.689 15.4285 99.6854 13.7474 97.4199 13.963L95.5341 14.1425C93.6302 14.3237 91.8563 13.1569 91.2685 11.3369L90.6864 9.53434C89.987 7.3687 87.65 6.19501 85.4953 6.92725L83.7017 7.53674C81.8909 8.15212 79.8957 7.42593 78.9041 5.79055L77.9219 4.17079C76.742 2.22482 74.1973 1.62172 72.2695 2.83114L70.6649 3.83782C69.0448 4.85421 66.9359 4.60772 65.5938 3.2451L64.2646 1.8955C62.6677 0.274101 60.0525 0.2741 58.4556 1.8955L57.1264 3.2451C55.7843 4.60772 53.6755 4.85421 52.0554 3.83782Z" stroke="var(--stroke-0, #5C5C5C)" stroke-width="1.3589"/>
</g>
</svg>
