<svg preserveAspectRatio="none" width="100%" height="100%" overflow="visible" style="display: block;" viewBox="0 0 56 56" fill="none" xmlns="http://www.w3.org/2000/svg">
<g id="vuesax/bold/location">
<path id="Vector" d="M48.1133 19.7167C45.6633 8.93667 36.26 4.08333 28 4.08333C28 4.08333 28 4.08333 27.9767 4.08333C19.74 4.08333 10.3133 8.91333 7.86333 19.6933C5.13333 31.7333 12.5067 41.93 19.18 48.3467C21.6533 50.7267 24.8267 51.9167 28 51.9167C31.1733 51.9167 34.3467 50.7267 36.7967 48.3467C43.47 41.93 50.8433 31.7567 48.1133 19.7167ZM28 31.4067C23.94 31.4067 20.65 28.1167 20.65 24.0567C20.65 19.9967 23.94 16.7067 28 16.7067C32.06 16.7067 35.35 19.9967 35.35 24.0567C35.35 28.1167 32.06 31.4067 28 31.4067Z" fill="var(--fill-0, #FF6701)"/>
<path id="Vector_2" opacity="0" d="M54.833 1.16699V54.833H1.16699V1.16699H54.833Z" stroke="var(--stroke-0, #FF6701)" stroke-width="2.33333"/>
<g id="Vector_3" opacity="0">
</g>
</g>
</svg>
