<svg preserveAspectRatio="none" width="100%" height="100%" overflow="visible" style="display: block;" viewBox="0 0 56 56" fill="none" xmlns="http://www.w3.org/2000/svg">
<g id="box-time">
<g id="Group">
<path id="Vector" d="M41.0667 12.39L27.8833 5.29667C26.4833 4.55 24.8267 4.55 23.4267 5.29667L10.2667 12.39C9.31 12.9267 8.70333 13.9533 8.70333 15.0733C8.70333 16.2167 9.28667 17.2433 10.2667 17.7567L23.45 24.85C24.15 25.2233 24.92 25.41 25.6667 25.41C26.4133 25.41 27.2067 25.2233 27.8833 24.85L41.0667 17.7567C42.0233 17.2433 42.63 16.2167 42.63 15.0733C42.63 13.9533 42.0233 12.9267 41.0667 12.39Z" fill="var(--fill-0, #FF6701)"/>
<path id="Vector_2" d="M21.28 27.3233L9.03 21.21C8.07333 20.72 7 20.79 6.09 21.3267C5.20333 21.8867 4.66667 22.8433 4.66667 23.8933V35.4667C4.66667 37.4733 5.78667 39.27 7.58333 40.18L19.8333 46.2933C20.2533 46.5033 20.72 46.62 21.1867 46.62C21.7233 46.62 22.2833 46.4567 22.7733 46.1767C23.66 45.6167 24.1967 44.66 24.1967 43.61V32.0367C24.1733 30.03 23.0533 28.2333 21.28 27.3233Z" fill="var(--fill-0, #FF6701)"/>
<path id="Vector_3" d="M46.6667 23.8933V29.6333C45.5467 29.3067 44.3567 29.1667 43.1667 29.1667C39.9933 29.1667 36.89 30.2633 34.44 32.2233C31.08 34.86 29.1667 38.85 29.1667 43.1667C29.1667 44.31 29.3067 45.4533 29.61 46.55C29.26 46.5033 28.91 46.3633 28.5833 46.1533C27.6967 45.6167 27.16 44.66 27.16 43.61V32.0367C27.16 30.03 28.28 28.2333 30.0533 27.3233L42.3033 21.21C43.26 20.72 44.3333 20.79 45.2433 21.3267C46.13 21.8867 46.6667 22.8433 46.6667 23.8933Z" fill="var(--fill-0, #FF6701)"/>
</g>
<g id="Vector_4" opacity="0">
</g>
<path id="Vector_5" d="M51.2867 36.5167C49.3733 34.16 46.4567 32.6667 43.1667 32.6667C40.6933 32.6667 38.4067 33.53 36.61 34.9767C34.1833 36.89 32.6667 39.8533 32.6667 43.1667C32.6667 46.4567 34.16 49.3733 36.5167 51.2867C38.3133 52.78 40.6467 53.6667 43.1667 53.6667C45.8267 53.6667 48.23 52.6633 50.0967 51.0533C52.2667 49.1167 53.6667 46.3167 53.6667 43.1667C53.6667 40.6467 52.78 38.3133 51.2867 36.5167ZM45.57 43.82C45.57 44.4267 45.2433 45.01 44.73 45.3133L41.44 47.2733C41.16 47.4367 40.8567 47.53 40.53 47.53C39.9467 47.53 39.3633 47.2267 39.0367 46.69C38.5467 45.85 38.8033 44.7767 39.6433 44.2867L42.07 42.84V39.9C42.07 38.9433 42.8633 38.15 43.82 38.15C44.7767 38.15 45.57 38.9433 45.57 39.9V43.82Z" fill="var(--fill-0, #FF6701)"/>
</g>
</svg>
