<svg preserveAspectRatio="none" width="100%" height="100%" overflow="visible" style="display: block;" viewBox="0 0 56 56" fill="none" xmlns="http://www.w3.org/2000/svg">
<g id="user-octagon">
<path id="Vector" opacity="0" d="M56 0H0V56H56V0Z" fill="var(--fill-0, #FF6701)"/>
<path id="Vector_2" d="M45.5233 13.65L31.6633 5.64667C29.4 4.34 26.6 4.34 24.3133 5.64667L10.4767 13.65C8.21333 14.9567 6.81333 17.3833 6.81333 20.02V35.98C6.81333 38.5933 8.21333 41.02 10.4767 42.35L24.3367 50.3533C26.6 51.66 29.4 51.66 31.6867 50.3533L45.5467 42.35C47.81 41.0433 49.21 38.6167 49.21 35.98V20.02C49.1867 17.3833 47.7867 14.98 45.5233 13.65ZM28 17.1267C31.01 17.1267 33.4367 19.5533 33.4367 22.5633C33.4367 25.5733 31.01 28 28 28C24.99 28 22.5633 25.5733 22.5633 22.5633C22.5633 19.5767 24.99 17.1267 28 17.1267ZM34.2533 38.8733H21.7467C19.8567 38.8733 18.76 36.7733 19.81 35.21C21.3967 32.8533 24.4767 31.2667 28 31.2667C31.5233 31.2667 34.6033 32.8533 36.19 35.21C37.24 36.75 36.12 38.8733 34.2533 38.8733Z" fill="var(--fill-0, #FF6701)"/>
</g>
</svg>
