<svg preserveAspectRatio="none" width="100%" height="100%" overflow="visible" style="display: block;" viewBox="0 0 18 18" fill="none" xmlns="http://www.w3.org/2000/svg">
<g id="_&#208;&#168;&#208;&#176;&#209;&#128;_1" clip-path="url(#clip0_0_76)">
<path id="Vector" d="M16.4948 15.4864C16.3253 12.631 14.008 10.471 11.1719 10.4692L6.82141 10.4663C3.94337 10.4644 1.59978 12.6512 1.4491 15.509C1.37517 16.9043 2.39181 18.0028 3.81388 18L14.3231 17.9793C15.6622 17.9765 16.5725 16.7889 16.4952 15.486L16.4948 15.4864Z" fill="var(--fill-0, white)"/>
<path id="Vector_2" d="M9.48986 8.99247C11.9596 8.70805 13.741 6.46618 13.4547 3.99215C13.1717 1.55062 10.9628 -0.260399 8.45533 0.0306076C5.93375 0.323497 4.19195 2.60728 4.4952 5.0653C4.79798 7.51907 7.0342 9.27547 9.48986 8.99247Z" fill="var(--fill-0, white)"/>
</g>
<defs>
<clipPath id="clip0_0_76">
<rect width="18" height="18" fill="white"/>
</clipPath>
</defs>
</svg>
